<?xml version='1.0' encoding='utf-8'?>
<svg xmlns="http://www.w3.org/2000/svg" enable-background="new 0 0 3283.9148 5000" version="1.1" viewBox="0 0 3283.9 5e3"> <path d="m3231.8 2014.8c-19.915-20.267-42.92-35.109-67.431-49.059 53.662-43.423 81.276-101.63 88.74-169.74 9.6272-87.901-26.24-197.05-81.926-265.05-66.166-80.795-170.64-124.66-273.08-134.29-60.98-5.7325-126.98-1.4863-175.99 39.694-46.752 39.277-42.57 63.292-55.566 75.736-2.0645 1.9771-11.277 3.2975-14.423 3.6825-11.558-14.046-9.7583-27.608-43.574-64.536 131.95-34.083 197.45-152.23 176.82-226.72-9.2061-33.222-32.071-55.022-61.62-71.291-17.97-9.8962-33.246-12.693-53.177-15.659 56.27-64.646 110.45-151.63 103.97-240.55-11.142-152.88-184.66-301.25-338.33-288.05-58.842 5.0558-110.66 36.672-147.92 81.498-19.411 23.358-32.771 51.057-44.357 78.93-17.947-33.56-37.318-60.379-75.508-72.445-30.91-9.7665-66.963 0.0265-94.63 14.942-59.569 32.11-106.36 107.33-124.59 171.01-23.25 81.216-14.522 177.94 26.96 252.41 5.6549 10.152 13.278 20.094 17.373 30.93-57.906 38.064-80.625 114.25-21.382 203.48l46.052 59.692c-22.11 61.184 1.9927 91.864 16.832 116.77-154.19 200.63-164.26 216.78-188.65 232.34-17.025-22.555-17.02-21.059-29.084-30.269-0.3585-21.693-0.0763-44.007-4.427-65.335-19.913-97.622-124.87-183.09-221.85-196.78-6.9425-0.9818-63.223-3.6991-64.802-4.7042-2.0244-1.2905-9.7103-23.256-11.157-26.713l-47.947-107.88c45.821-39.048 51.452-69.634 45.183-126.11 84.409-57.327 142.99-129.7 162.53-231.45 13.091-68.156-5.3479-134.84-4.1384-138.5 1.2412-3.7717 18.086-16.979 21.76-20.502 118.57-113.63 169.81-361.63 64.839-515.91-33.166-48.753-77.48-82.627-135.93-93.282-64.905-11.831-114.65 10.043-171.09 38.864 2.4722-58.187-18.362-114.16-57.744-157.25-61.796-67.616-136.64-99.155-227.47-102.67-327.15 3.5333-479.93 295.17-390.87 462.24-65.005-0.6436-125.31 4.1899-174.37 52.204-97.586 95.52-45.21 277.79 50.788 374.37 49.806 50.108 117.95 85.071 185.23 104.84-5.5164 71.713 29.926 153.34 75.296 204.92 78.517 89.256 212.74 119.28 332.74 101.75 13.397 15.566 60.296 78.456 78.621 79.962 15.186 1.251 31.404-8.5955 45.747-12.71 9.833-2.823 20.937-3.45 31.106-4.4983 16.264 30.428 27.873 64.927 40.507 97.054 2.937 7.4742 11.306 23.133 10.57 30.727-63.946 9.8102-137.01 55.598-175.44 107.98-38.174 52.035-61.272 114.81-58.716 179.63-176.16-50.989-300.31 145.84-167.61 373.83 71.825 123.38 133.39 125.96 176.54 175.7-15.07 44.707-23.675 78.612-1.543 123.1 26.95 54.169 98.045 98.318 154.25 116.74 57.714 16.006 52.717 13.801 53.536 14.557 3.6172 3.3442 8.5521 16.256 11.16 21.153 21.279 39.963 42.78 52.643 83.606 68.905l0.1825 98.567c-0.8899 53.743-8.5461 4.3032 14.054 216.69-63.628-30.76-110.13-66.742-159.02-118.07-77.424-81.277-63.489-83.379-94.066-159.54-71.938-163.22-146.9-320.87-282.48-505.36-45.969-62.549-96.664-126.02-153.94-178.61 16.829-29.483 24.574-64.768 19.148-98.623-0.9924-6.2003-4.8716-17.563-3.5974-23.608 1.9944-9.488 15.883-27.19 20.838-36.808 26.705-51.84 45.996-119.4 30.04-176.97-14.079-50.799-54.332-67.956-53.582-77.176 1.0089-12.5 12.588-32.873 16.646-45.861 43.401-138.9 17.1-286.34-89.33-384.44-39.146-36.08-89.218-71.027-140.4-55.618-33.843 10.188-66.233 40.245-82.219 71.384l-9.9126 22.722c-39.276-67.074-85.607-122.87-164.28-143.66-147.85-39.06-337.81 64.158-381.78 237.97-18.782 74.233-4.8541 158.93 34.285 224.53 20.902 35.033 50.512 61.802 81.505 87.676-46.786 12.985-82.409 40.314-106.5 82.629-13.674 24.016-27.575 59.798-19.233 87.649 18.659 62.306 87.958 118.84 144.24 147.92 71.678 37.03 150.62 41.317 228.55 25.237 0.0132 32.352 4.3971 56.627 28.344 80.692 28.404 28.544 72.731 32.724 111.05 32.342 111.9-1.1208 160.32-31.505 168.65-29.788 7.3055 1.502 33.319 54.685 115.93 28.112 17.642 25.057 39.03 47.042 58.945 70.255l79.229 98.65c124.84 169.15 223.6 354.05 299.88 549.69 14.227 36.489 32.134 74.93 41.602 112.83-126.47-160.59-185.19-144.46-236.08-157.97-13.643-3.6228-102.96-35.733-102.9-44.239 0.1028-16.883-4.2378-28.856-11.088-44.14-16.681-37.22-22.004-43.416 5.4326-99.675-23.409 9.0801-43.212 19.268-64.696 32.247 44.32-259.4-174.25-234.87-239.31-364.51-19.922 57.492-22.294 111.2-10.162 170.78-23.28-13.28-47.738-27.038-74.768-30.561-32.97-4.2964-61.52 7.2817-93.326 11.953-47.28 6.9468-83.324-15.367-102.61-58.246-11.006 76.768 22.799 136.98 83.015 186.3l-76.666 47.928c90.465-2.4114 84.894 33.839 146.81 77.8-39.508 15.937-81.525 43.546-98.908 84.292-18.448 43.234-9.3155 83.489 5.1239 126.07 4.0652-23.554 10.132-52.798 31.102-67.568 14.708-10.36 34.52-10.862 51.614-7.3679 62.7 12.829 60.489 28.469 165.43 36.386-30.299 26.384-58.497 56.172-61.484 98.759-2.5587 36.476 15.398 75.255 35.941 104.75 2.905-79.087 27.556-92.15 97.172-124.41 58.524-27.117 91.66-71.297 107.08-133.36 63.539 8.5701 53.604 0.2788 79.451 2.2327 9.614 0.7263 20.098 5.9448 29.025 9.4282 18.388 7.176 36.717 14.329 54.044 23.843-13.065 66.301-10.314 132.68 28.484 190.81 72.617 108.81 209.94 158.47 296.23 130.5 53.345 92.568 64.271 144.42 96.751 249.6l-25.168 20.37c-1.2997-195.11-204.1-314.76-407.6-264.66-88.222 25.886-174.52 73.848-235.28 144.08-17.472 20.194-31.059 42.62-45.034 65.279 160.86-70.717 213.87 26.84 293.96 100.69 95.034 87.626 242.77 100.02 368.68 8.2275 45.807 39.545 91.969 105.56 114.8 161.46 14.758 36.161 20.997 77.629 29.566 115.68 77.412 343.78 135.41 768.35-15.388 1086.8-11.403 24.085-36.952 57.691-10.696 81.146 10.494 9.3555 20.154 13.104 34.371 12.009 32.983-2.5923 45.287-34.94 69.996-100.19 31.669 132.85 37.053 160.45 47.984 180.27 24.068 43.826 106.64 24.183 86.343-44.455-92.03-311.78-60.399-376.75-52.43-480.05 23.515-270.55-0.4803-94.013 113.31-778.06 34.295-169.13 66.943-343.1 143.32-499.51 114.2 36.108 232.35 43.148 341.19-13.489 155.53-80.938 179.33-222 286.49-325.78 48.515-46.983 101.52-74.933 169.79-76.8 8.3396-0.2256 20.177 2.9194 23.648-6.1772 0.876-2.2991 0.9656-5.2383 1.1482-7.6833-18.382-14.266-44.619-24.41-65.822-34.499-166.81-79.37-341.72-98.643-505.25-14.398-29.967 15.44-58.325 34.638-86.752 52.699l138.48-207.13c49.345 44.085 84.787 4.1965 92.238 4.4023 3.3491 0.0908 32.316 23.502 61.268 15.765 17.739-4.741 29.718-23.584 31.888-24.122 3.3738-0.8323 55.305 27.534 105.04 42.414 162.1 48.495 328.12-34.967 370.3-144.16 3.2986-8.5393 4.1484-27.635 9.1692-33.331 104.76 3.3176 199.76-18.548 278.51-91.935 52.928-49.322 100.62-125.48 102.21-199.5 0.8298-38.62-26.459-69.967-52.142-96.102zm-2703.2 386.27 1.1118-0.0664c40.454 1.2078 69.787 18.827 98.141 45.799l-35.735-4.4688-107.22-32.25 43.703-9.0136zm226.75 111.66c25.43 22.081 46.563 66.005 48.996 99.469 2.2034 30.322-1.2545 43.901-21.554 67.366-5.9536 4.4487-12.787 8.592-19.497 11.784-34.407 16.379-86.958 12-121.79-1.2839-103.32-39.406-112.91-163.52-126.28-206.04-4.8119-15.31-11.92-30.233-18.408-44.909 30.468 6.5688 58.076 20.585 88.129 28.209 55.069 13.97 125.44 6.3729 170.4 45.41zm-372.7-102.98c39.441 12.236 51.22 3.3306 63.535 12.225 31.756 22.944 45.352 60.97 51.492 98.182-62.465-31.155-74.116-45.626-115.03-110.41zm80.337 155.66c-8.7046-7.126-26.555-13.652-31.6-22.426l19.61-5.5239c27.41-0.0461 46.517 4.1619 57.863 29.367 4.3441 9.6506 23.28 48.492 20.42 55.924l-7.4371-4.0906c-22.138-15.579-38.2-36.334-58.856-53.25zm167.78 221.67c-84.398-10.33-106.67-35.383-147.08-40.554-26.297-3.364-40.73-0.1694-61.129 15.987-0.043-12.597 6.9858-25.631 14.021-35.856 29.084-42.269 67.262-55.36 115.64-63.869 1.4136-0.146 8.6251-1.3801 9.428-0.9722 4.6278 2.3594 6.4919 10.139 30.14 28.096 54.02 41.018 114.9 41.631 178.76 32.475-27.147 68.653-62.634 69.428-139.77 64.692zm82.647 84.248c-35.509 16.206-58.975 20.552-82.039 55.204l-3.3054-0.4678c-2.416-40.978 35.247-90.472 70.208-109.05 25.427-13.509 48.89-10.596 70.59-33.474 31.823-33.547 22.796-59.942 41.23-83.432 13.614 18.325-2.6772 128.31-96.684 171.22zm120.08-253.33-2.9768 0.3352c-4.4766-29.486-9.4945-59.016-24.438-85.287-31.079-54.636-86.294-70.637-142.87-86.295-19.369-32.396-34.025-101.18-22.301-142.26 12.75 4.512 32.29 22.47 44.194 30.339 52.185 34.496 118.4 63.988 148.16 122.64 24.057 47.411 19.474 104.59 3.7767 153.77l-3.5379 6.7512zm4.135 77.945c4.1431-34.021 22.03-60.282 50.602-80.427-1.4769 13.191-3.8629 28.173-8.4393 40.593-6.3552 17.255-22.178 34.088-38.884 41.509l-3.2787-1.6755zm48.727 36.599c-13.792-1.1609-24.043-2.3784-35.921-10.019l14.187-7.4875c12.226 0.4014 20.911 8.1743 30.624 14.896l-8.8906 2.6108zm474.62 674.78c-11.353-17.085-22.308-35.564-35.353-51.356-84.894-102.73-222.23-140.76-354.53-123.51-15.946 2.0801-33.511 3.4766-48.455 9.6243 9.4331 3.2817 258.88-36.383 428 173.93-56.506 52.437-202.85 87.711-299.86 17.914-72.262-51.904-123.75-161.28-267.19-159.74 74.221-73.151 166.98-123.99 271.47-133.91 22.444-5.2185 56.343 0.0664 79.116 3.7422 164.16 26.51 244.93 155.07 226.81 263.3zm1491.6-1983.9 39.007 1.8612c90.983 8.8778 188.89 49.753 246.94 121.89 91.546 113.75 116.34 313.56 0.501 406.68-2.2864 1.8378-6.6868 0.6437-9.5806 0.302-2.7346-0.3252-22.55-2.0702-24.03-3.281-2.748-2.2428-0.0764-7.0896-0.2056-10.629-1.2148-33.417-16.012-57.891-36.2-83.38 19.128-14.159 36.468-30.64 43.228-54.152 12.382-43.068-30.06-92.29-64.023-113.2-5.3364-3.2876-37.59-15.287-39.216-17.825-5.4587-8.5132 6.2239-39.306-16.676-78.108-31.559-53.496-119.21-85.3-210.35-29.751-67.091-56.372-77.656-41.052-98.633-49.982 38.055-62.7 96.68-85.208 169.24-90.416zm-693.75 1016.8c10.729 14.936 28.438 17.089 45.176 19.73-88.806 114.6-139.48 170.81-203 301.87-4.1317-70.484-11.546-142.36-28.368-211.07-4.8617-19.865-14.399-81.316-31.786-91.832-5.1304 1.085-9.3385 2.6838-10.938 8.5359-3.6498 13.337 2.1885 55.321-19.484 108.33-73.849 180.68-246.33 249.73-279.76 444.9-18.169-101.11-23.562-202.74-22.942-305.26 0.0963-15.964-2.5917-38.224 0.5941-53.575 1.2046-5.8154 11.691-10.39 16.364-13.894 22.869-17.146 39.011-39.288 42.611-67.996l57.993-22.596c55.474-26.292 107.41-63.428 128.35-123.8 11.32-32.631 6.7633-62.087-8.2567-92.619 25.297-36.272 144.64-115.53 196.2-253.89 47.849-128.4 13.612-270.55-101.88-313.33l144.21-195.61c20.428 1.624 53.583 18.938 105.76-30.346l42.23 4.2233c-70.197 123.8-75.162 260.75-28.384 370.54 5.7793 13.598 6.6458 6.5433-5.4458 20.522-25.659 32.694-64.078 75.978-77.552 148.36-16.799 90.223 32.389 188.8 81.95 261.31-26.709 22.237-64.046 59.082-43.643 87.486zm-289.29 555.6c-55.032 44.206-112.4 57.522-181.44 49.975l-33.004-11.342c7.5302-145.42 148.94-247.29 229.4-356.15 26.111-35.328 45.226-76.171 62.542-116.3 14.063 118.65 79.931 307.37-77.49 433.82zm-231.07 939.96c-6.9969-19.784-10.8-50.696-15.282-78.094-3.1991-19.54-7.6427-40.076-8.8839-59.815-1.5365-24.417 0.7832-49.597 0.9657-74.081-13.546-561.95-63.775-779.95-60.283-971.81 0.4614-25.32-0.3981-51.654 2.3132-76.778l8.5321-2.4883 10.298-0.7197 2.2997 3.208c-2.2997 159.63 4.9667 187.46 39.78 498.22 28.08 531.22 23.232 379.85 24.043 684.9-2.1041 75.502-1.1021 72.583-3.783 77.464zm-51.276-247.49c-22.131-82.668-1.651-5.8215-115.87-435.08 19.712-46.949 49.739-86.007 85.663-121.52 16.261 133.14 21.402 269 26.207 403 1.8053 50.26 8.0808 103.61 3.9954 153.6zm-28.414-1094.3c71.618-7.1694 56.236-5.79 77.101-7.2356l2.3992 2.5879c-9.7566 21.829-37.385 38.718-59.911 46.794-7.2413 1.0818-12.724 3.54-18.976-0.7629l-0.6138-41.383zm508.19-1060.7c-12.77-19.03-20.828-33.972-19.56-57.423 5.5396 2.4932 12.218 15.281 25.171 24.052 5.3962 3.6494 21.322 9.4321 23.589 14.514-9.6927 5.8419-3.7271 2.0388-29.201 18.857zm52.275-10.148c12.037 0.428 27.139 8.8477 37.812 14.355l-34.815 11.986c-11.688 0.1129-27.79 1.3435-37.706-5.6893 3.029-5.4208 23.724-11.56 34.709-20.652zm65.34 498.1c28.699-61.812 76.896-118.4 141.9-142.3l4.7322 1.108c2.5789 30.518-0.7864 61.474 4.3608 91.839 23.04 136.01 103.24 284.13-45.246 435.24-61.476-77.261-184.45-216.4-105.75-385.89zm215.11 212.96c12.32-146.65-92.192-312.36-12.438-467.71 13.722-26.726 32.23-50.762 50.403-74.542-1.6064 17.138-4.7493 34.021-4.0391 51.279 3.917 95.298 43.206 113.96 68.798 148.15 19.767 26.415 82.005 135.11 169.37 214.97 77.812 71.138 173.01 107.54 278.33 102.71-161.25 182.78-327.39 33.459-551.63 139.61-13.098 6.2036-27.246 16.893-41.061 20.565 20.048-39.847 38.523-90.439 42.266-135.04zm459.91-61.118c-125.02-28.607-230.51-130.6-297.08-236.21 116.65 86.072 183.52 92.286 209.23 102.01 14.682 5.5502 28.461 15.553 42.923 22.174 45.279 20.731 98.971 29.543 148.21 22.43 54.737-7.9021 93.641-36.662 125.81-79.959 3.4019 30.727 1.7954 49.268-8.6648 78.353-41.845 84.204-138.2 110.02-220.44 91.199zm-61.414-583.76c10.155-10.155 41.16-16.929 55.195-19.653 34.663-4.1865 74.3 0.5841 102.88 22.174 24.223 18.296 31.819 44.717 35.904 73.493-12.916 0.1425-22.772-0.5804-33.827 6.4459l0.4878 3.1284c14.048 5.0328 27.899 9.6376 40.859 17.198 37.46 21.859 62.529 47.626 73.902 90.081-5.353 24.911-17.473 39.147-29.851 60.415-24.382 41.89-42.621 82.915-83.818 112.01-68.131 48.117-186.24 42.452-238.51-34.509-17.612-25.926-30.335-65.727-23.881-97.014 7.0952-34.413 33.22-64.41 62.46-82.597 57.33-35.658 120.49-17.723 146.75 28.013 23.752 41.355-0.0928 92.447-38.323 113.93-27.688 15.561-67.992 18.157-81.26-12.215-9.1746-21.022 4.0283-57.7 28.776-66.523 8.6382 2.0072 10.198 3.3971 16.775 9.4781 0.3652 7.9158 0.0698 9.1033-3.8462 15.997-7.2209 2.4617-12.066 4.7142-17.665 9.9526 0.0664 8.3503-0.6638 10.205 4.2974 16.727 6.05 3.0753 11.28 4.8302 18.05 2.7767 9.8198-2.9758 16.825-11.359 21.096-20.326 9.8982-20.772-5.6526-48.284-27.382-55.897-13.099-4.5883-24.777 0.5936-36.707 5.7424-52.403 42.565-45.097 112.45 13.195 128.67 76.762 21.375 170.01-86.622 116.37-173.1-15.82-25.505-50.765-42.119-78.999-48.821-88.401-20.986-161.07 66.474-174.94 127.74-17.9 79.106 46.069 124.03 83.699 182.38-34.713-15.105-57.8-40.968-79.803-71.141-68.585-94.041-68.916-219.48 26.572-286.78 29.881-21.056 73.218-35.906 109.94-29.211 34.347 6.2635 58.062 27.28 77.191 54.875-9.7658-28.479-11.972-56.827-85.584-83.445zm260.62 273.11c15.581 36.871 31.557 65.076 16.318 105.14-13.294 34.957-43.056 61.832-76.889 76.665-65.99 28.936-133.57 9.9392-197.1-14.75-4.8586-2.0865-15.661-5.0591-19.285-8.2773-6.1692-5.4772-12.345-17.258-17.336-24.234 11.386 1.3767 23.695 8.4032 35.34 11.014 45.727 10.245 92.453 7.0331 136.84-7.8458 65.104-21.823 93.697-80.46 122.11-137.71zm-356.62-311.93c23.28-0.3582 49.517 22.038 67.985 34.492-42.549 10.992-69.2 13.459-132.8 85.274-11.061 12.577-19.62 27.963-28.64 42.056-0.3307-51.347 33.775-134.57 93.452-161.82zm-46.012-4.9763h7.218c-44.051 45.752-79.73 105.18-83.251 170.19-5.1672 95.326 35.795 188.26 98.46 258.46-8.3428-2.2792-17.097-8.5992-24.674-12.965-75.544-44.435-165.58-91.804-189.26-178.38-11.811-43.194-0.4216-94.095 21.551-132.39 37.63-65.591 101.52-86.432 169.95-104.91zm-26.562-17.662c-89.454 17.43-123.98 50.593-179.36 111.96-38.717 42.908-86.732 75.242-116.26 218.4-42.777 8.6718-72.26 26.686-105.33 54.487l-16.493-62.705c-34.936-179.82 68.148-386.8 244.56-419.62 82.389-8.1552 127.07 28.123 172.88 97.479zm-379.41-195.56c105.27-137.06 243.59-121.15 341.67-133.66 3.999 3.3275 5.9868 5.8817 7.5203 10.934 9.1333 30.065-6.5835 43.921-74.121 138.19-11.273 15.138-24.189 30.348-33.236 46.89-4.5603 8.3411-56.658-13.484-155.4 48.091-71.143-0.2828-103.09-13.001-131.04-22.768 7.9514-30.634 25.46-62.744 44.609-87.676zm-71.3 58.956c-1.0752 4.256-1.9316 5.6665-5.28 8.5062-30.07-15.586-60.13-48.3-75.445-77.975-36.206-70.15-74.237-192.65-49.016-267.54 16.205-48.127 47.244-83.014 92.486-105.88h6.8696c34.498 110.29 95.525 156.46 125.71 223.7 8.0874 18.011 17.539 51.12 7.7256 70.029-5.7444 11.064-25.397 25.077-34.407 35.017-29.479 32.522-52.995 73.241-68.646 114.14zm528.64-217.65c22.503 9.9591 43.47 30.684 51.979 53.936 8.6748 23.694-3.0796 60.555-13.128 82.264-25.553 55.224-70.225 89.248-126.13 110.21-9.0134 3.2573-29.323 11.704-38.101 11.528-2.9866-0.0596-19.045-11.91-23.768-14.365-12.262-6.3729-25.042-10.855-38.24-14.846 112.12-154.74 126.39-164.88 95.815-212.69l33.193-26.198c19.543 0.1758 40.394 2.2096 58.384 10.168zm-430.9-406.65c26.113-73.029 84.149-115.47 155.5-127.6 137.83-14.684 272.43 111.19 301.49 208.4 16.384 54.808 11.622 116.84-16.102 167.14l-31.749-2.2328c1.3242-33.225-2.8806-72.163-30.252-94.812-8.376-6.9301-20.124-11.303-30.05-15.629-4.4939-38.742-10.111-77.907-45.236-101.27-31.368-20.864-62.948-17.062-97.832-10.035-15.268-24.06-40.771-68.545-102.7-60.588-41.161 5.2879-69.548 39.107-93.559 69.681-15.549-22.782-15.297-16.845-9.5077-33.049zm240.71 132.89c-11.001-10.47-30.216-16.969-45.332-16.475-23.665 0.7729-36.843 11.257-52.278 28.156-6.7109 11.748-13.352 23.486-8.28 36.898 3.7136 9.8163 13.391 17.55 22.659 21.872 18.219 8.4964 43.756 0.5503 50.861-17.682 3.0896-7.9323 4.0388-22.045 0.156-29.755-4.948-9.8319-16.067-13.415-26.459-16.322v-2.6077c9.3916-3.261 18.783-4.6708 27.926 0.2256 26.784 14.351 22.786 43.915 8.25 68.945-30.831 53.106-81.792 68.322-102.89 54.881-8.6614-24.135-12.707-54.245-16.029-79.637-3.5972-27.492-6.2986-64.848 12.159-88.02 23.459-29.45 92.894-42.126 129.23-46.734 26.527-0.5164 47.382 3.6746 62.818 27.778 18.106 28.285 18.468 83.452 11.24 115.49-8.2832 36.715-30.256 66.799-62.151 86.764-37.089 23.216-65.894 23.222-107.42 13.568 26.194-9.4019 48.75-22.138 68.576-41.91 21.571-21.511 41.493-49.643 41.121-81.458-0.1528-13.326-4.3837-24.678-14.154-33.974zm-149.9 123.21c-22.835-22.967-41.074-44.345-54.668-74.292-15.193-33.477-28.388-79.2-14.346-115.2 12.903-33.076 48.09-61.603 80.002-75.042 39.049-7.209 57.911 8.9536 79.52 36.622-103.78 26.786-148.56 66.946-90.508 227.91zm255.7-100.8c6.415 4.3856 13.733 9.1098 18.777 15.058 18.375 21.664 17.167 50.446 15.448 76.99-38.212 11.599-54.686 21.283-103.43 44.657 41.735-43.217 59.187-78.015 69.206-136.7zm-378.3-129.73c6.0166 6.5353 13.258 13.9 16.341 22.363 6.0203 16.535-0.9192 43.964-0.3418 62.559 2.9946 96.319 85.631 194.07 182.9 212.27 93.934 17.575 156.32-33.417 207.01-47.082 19.029-5.1288 37.072-5.7162 56.632-6.1641-34.188 60.276-122.36 136.93-153.13 136.33-84.223-1.6621-170.46 9.0433-242.63 55.163-24.468-145.01-169.04-236.91-131.48-367.14 10.762-37.322 32.781-50.42 64.703-68.298zm-227.49 26.451c23.871-42.965 54.634-79.212 103.36-93.05 52.525-6.501 75.552 6.9897 105.48 50.36-58.649 33.524-83.599 57.135-82.225 144.58-12.478 5.7064-25.222 11.515-36.465 19.441-46.301 32.644-75.986 85.403-85.5 140.37-4.1252 18.956-2.5985 39.369-2.4692 58.69-54.254-74.28-66.534-204.56-2.1803-320.39zm-45.322 431.69c5.429-25.243 21.338-39.81 42.332-53.495l3.8694 0.3446c10.75 20.364 23.262 107.39 76.673 170.83 50.337 59.792 123.44 97.674 201.05 104.64l-48.382 48.788c-123.59-20.04-153.64-44.34-207.88-114.4-36.811-47.548-80.412-97.458-67.666-156.71zm77.29 312.26c6.3784 1.1013 9.0034 2.5314 13.776 6.8607l-145.34 189.7c-5.1937 4.5084-5.2666 3.8683-11.768 3.563l-1.0985-3.563 144.43-196.56zm-181.68 245.08c7.7954-10.311 17.562-11.92 29.499-14.454 24.329-1.6124 52.318 9.8566 70.846 25.077 36.896 30.309 56.884 88.97 60.734 135.5 10.208 123.44-62.652 209.52-136.64 297.91l-52.68 52.039c34.942-88.146 44.665-188.26 24.13-281.27l-11.174-41.068c-5.9183-19.471-7.126-9.6765 3.8529-26.832 32.756-51.24 33.032-98.03 11.433-146.9zm-119.46 561.54c-69.644 64.347-149.14 75.643-240.66 72.176l-8.5719-1.5923c-7.1152-8.1379-7.1782-24.075-7.4901-34.827-3.5511-122.86 91.477-238.09 186.68-306.09 51.624-36.874 105.67-61.457 150-108.53 10.288 38.052 14.748 77.016 13.351 116.43-3.3717 95.206-20.313 194.99-93.313 262.44zm65.363-586.4c18.465 17.192 32.297 35.72 37.168 60.973 5.3793 27.89-0.5675 58.202-13.278 83.309-58.988 116.53-191.25 111.9-303.33 275.88-8.2665-12.023-16.57-24.43-26.857-34.827-39.711-40.126-91.693-60.054-140.41-86.315-80.142-43.194-150.14-99.897-156.36-191.01-1.0752-15.778 2.4027-32.966 12.803-45.118 19.192-11.402 53.056-4.1493 54.877-1.2408 5.6361 9.0413 3.5524 99.311 152.35 145.79 166.57 52.017 326.63-23.812 383.04-207.43zm-437.69 60.847c13.271 30.72 39.88 56.152 71.217 67.996 31.049 11.734 59.645 8.5029 89.476-4.7307l14.688-9.548c34.042-25.612 57.579-73.478 31.284-106.79-12.903-16.339-36.717-30.541-57.515-32.714-43.5-4.5432-79.128 28.251-80.552 59.028-1.0521 22.644 16.854 45.08 42.71 45.434 31.839 0.4286 53.786-37.883 29.22-60.064-6.2588-2.6904-11.409-3.4237-18.232-2.6274-9.4547 1.1013-13.374 7.2089-18.72 14.239l0.8529 4.4354 27.385-2.7202 6.0364 5.7493c-0.2056 9.1199-0.4678 10.304-5.6382 17.792-7.8916 4.0804-13.039 3.8018-21.558 2.7172-52.116-32.251 10.842-77.167 51.246-62.406 94.723 34.617 3.6096 146.66-81.923 110.63-24.521-10.324-44.287-30.584-53.891-55.373-27.247-70.331 47.506-167.47 115.29-193.46 33.341-1.3883 44.834-3.4836 80.43 36.473l-16.985 15.145c-1.344 4.8967-1.9978 7.1658 1.6858 11.263 5.4127 6.0214 15.335 10.553 22.208 14.912 99.62 63.181 30.335 200.53-85.862 230.53-101.33 26.17-196.75-37.766-212-104.06-13.846-60.209 8.885-138.99 65.287-149.6 8.937-1.6819 24.551-1.8345 32.028 3.5134-28.866 42.739-48.534 97.081-28.168 144.23zm302.17-77.049c-10.613-35.527-30.023-53.638-61.939-70.258 21.674-1.8147 43.812-2.9395 63.913 6.6316 58.798 27.996 64.117 141.46 44.645 175.23-6.1627 10.686-15.85 20.091-24.534 28.799-35.526 35.61-75.137 55.081-123.68 66.805-15.82 4.0737-33.492 4.0804-49.773 5.3311 9.9857-6.897 27.893-10.437 39.468-15.43 89.097-38.429 130.82-133.76 111.9-197.11zm-196.36-505.09c-0.9159 26.855-19.915 48.704-38.34 66.125 4.0952-24.148 5.2964-44.392 1.6162-68.868 8.917-6.6152 19.573-11.714 29.277-17.161l3.3053-0.1428c5.0079 5.6167 4.3938 12.64 4.1415 20.048zm-38.874-962.6c3.4679-4.7475 11.735-9.9983 16.666-13.79 41.814-32.149 110.8-51.225 164.44-34 139.73 44.864 232.35 301.19 59.682 553.67-4.6395 6.7812-10.45 18.711-17.473 22.297-8.4697-23.27-32.24-131.71-79.557-197.16-2.8408-3.9313-14.343-14.899-15.312-18.598-1.9977-7.6304 6.2754-32.157 7.437-41.284 12.502-98.386-38.842-227.93-136.74-269.28l0.8562-1.8481zm-497.4 154.14c9.5377 46.545 48.598 97.114 88.185 123.32 116.62 77.218 237.55-20.041 223.9-131.46-6.4708-52.874-51.958-109.39-110.08-101.53-58.523 7.9103-94.827 64.887-86.367 116.09 10.68 64.657 80.223 63.689 108.26 15.357 14.349-24.746-9.9778-66.398-40.046-52.759-16.487 7.4724-19.666 24.683-12.531 33.275 4.3275 5.2088 8.8806 5.1623 15.02 5.6999l7.7921-8.4201c3.0039 11.016 0.2994 15.381-8.3496 24.666-5.5952 2.6476-9.5112 2.8039-15.511 2.1431-8.0841-0.8921-12.68-5.2846-17.502-11.727-20.71-27.666-8.973-67.185 18.342-86.196 93.017-64.747 170.02 116.98 55.391 181.19-66.539 37.264-147.8-14.952-184.18-83.469-29.114-54.828-21.106-107.17 19.348-154.74 7.0918-8.3406 23.058-20.977 26.164-30.88l-5.4525-8.0477c-10.464-4.3873-20.396 2.5216-30.75 6.6246 10.805-25.977 20.457-63.044 87.409-83.771 55.389-4.9407 85.981 9.6587 102.19 62.127l27.266 1.5435c81.983 7.3217 185.22 173.08 57.236 280.18-59.791 50.045-139.18 78.244-217.21 70.773-49.212-4.714-112.43-26.381-144.28-65.81-48.931-60.566-63.795-178.97 4.5198-230.02 20.058-14.989 46.962-24.354 71.944-20.439 4.2975 5.0889-2.3164 10.214-5.7081 15.499-24.571 38.291-44.542 84.209-35.004 130.76zm399.81-87.695c-20.828-54.557-54.797-89.347-108.02-112.88 14.934-12.989 27.936-20.869 46.766-27.132 64.822-7.8586 128.23 58.751 108.89 160.67-3.9393 20.758-18.382 69.13-37.056 81.777 3.5277-36.121 2.5453-68.052-10.58-102.44zm-314.6 294.03c85.401 24.603 167.7 36.121 256.72 30.458l-93.402 42.172c-60.85 19.905-123.42 37.04-188.13 34.665-69.687-2.5579-131.02-22.964-179.03-74.648-69.185-74.482-61.591-153.81 5.8773-215.55 18.129 84.938 47.951 139.69 197.96 182.9zm-172.86 95.631c92.302 59.028 309.89 61.891 510.64-81.611 88.275-63.102 145.67-133.82 163.77-242.93l3.2356 1.9114c14.854 36.154 26.552 75.46 24.75 114.98-8.9122 195.47-283.99 311.1-330.98 539.98-93.435-58.803-199.72-89.066-287.69-157.35l-29.041-25.011c-54.876-49.607-91.501-107.73-95.344-182.59 13.069 11.087 26.21 23.372 40.663 32.614zm619.55-402.36c24.704 27.356 34.341 52.642 31.723 89.633-4.2148 59.562-46.577 119.74-90.283 157.75-91.99 80.005-191.56 60.03-297.62 48.359 76.524-16.976 142.64-42.501 199.24-99.101 112.23-112.22 101.57-186.09 101.47-225.81 17.451-6.6803 43.04 15.409 55.467 29.171zm-629.68-177.65c70.806-90.716 187.81-137.02 301.07-139.65 142.27-3.2922 256.48 88.324 276.69 194.67 2.1504 11.316 4.3771 36.344 1.5696 47.137-1.291 4.9726-11.104 16.409-14.313 21.146-11.824-29.806-25.782-55.045-52.152-74.706-24.657-18.382-54.97-27.621-85.594-22.693-25.835 4.1577-43.401 19.267-58.636 39.332-11.124-10.139-21.783-21.882-33.933-30.757-23.031-16.827-55.564-26.894-83.987-26.977-49.544-0.1447-94.89 39.147-110.04 72.87-2.6714 5.943-5.698 24.817-8.728 28.194-1.5696 1.7523-33.14 2.6962-38.108 3.8493-20.658 4.7976-40.235 15.128-55.57 29.779-38.38 36.662-48.846 86.77-49.646 137.42l-28.138 7.0896c-17.695-13.569-24.83-54.431-27.511-75.553-9.1926-72.495 22.858-154.57 67.026-211.15zm-118.6 735.87c-74.921-55.028-125.79-142.09-139.65-233.76-18.193-120.4 36.269-183 144.03-197.28 19.925-2.3584 40.769-0.1126 60.156 4.5484-19.016 23.714-32.628 53.416-36.71 83.615-7.3839 54.656 16.537 95.166 48.342 136.94-10.099 20.856-12.822 37.215-7.4073 65.172 16.852 86.996 98.576 157.09 168.73 203.85-34.016-0.9157-67.238-2.0003-100.94 3.4034-31.898-1.9984-102.95-41.794-136.55-66.48zm528.37 355.99c-44.403 1.8314-89.805 3.1383-133.81-4.0806-81.439-13.356-161.93-54.079-210.46-122.13-42.444-59.528-55.132-125.53-51.8-145.37l9.6275-2.6207c118.76-6.7485 98.592-9.3802 351.82 117.02-9.0171 112.06 38.919 130.17 43.414 155.36l-8.7912 1.818zm-7.2476-133.58c-1.6401-205.24 239.9-316.12 314.94-506.01 26.752 52.858 47.343 101.71 60.412 159.75 24.126 107.14 28.009 201.89-33.976 298.6-59.101 92.217-163.43 155.65-269.02 179.01l-29.423 5.1028c-10.268-14.027-19.298-33.544-26.267-49.448-12.013-27.406-16.424-57.27-16.662-87.005zm75.823 215.13c-13.888-17.626-32.552-33.176-49.344-47.998 40.469-1.6866 28.946-0.9014 51.8-3.3304 8.6748 16.037 18.734 27.276 33.508 37.939l-35.964 13.39zm94.57-18.104c-29.811 0.3016-43.847-14.783-70.643-36.171l69.691-22.665 3.2655 2.0566c4.4934 15.035 4.8186 32.107 6.3485 47.706l-8.6616 9.0732zm12.448 34.519 3.6239-3.782c3.4052-1.0022 6.0667-1.105 9.6042-1.012l48.077 119.13-4.0453 4.5516-8.655-0.2888c-5.7627-5.4409-2.5912-1.1944-48.604-118.6zm-144.01 265.13c54.322-71.42 127.85-105.48 215.12-117.47 125.03-21.918 379.11 108.14 252.82 328.24l2.9635-44.222c-0.229-36.32-14.257-75.799-40.846-101.21-29.725-28.418-64.577-26.988-103.05-26.308-19.636-27.93-37.998-44.305-71.586-52.609-34-0.5907-60.097-4.1675-117.25 58.591-13.064-2.0824-57.668-23.883-106.96 23.634-34.388 33.149-42.442 76.648-43.288 122.45l-30.007-20.346c-14.465-30.652-9.1137-103.43 42.084-170.74zm-113.67 615.82c-78.929-62.698-138.65-159.64-146.56-255.99-4.4733-54.51 3.9957-112.1 41.028-154.66 27.239-31.301 62.25-41.045 102.09-43.742 24.747 1.4795 41.629 5.0028 59.672 23.12-18.704 11.064-31.278 15.112-40.139 36.639-16.504 40.089 0.3184 87.254 16.384 124.68-20.529 14.637-33.74 33.739-41.423 57.745-24.531 76.628 4.2578 165.99 40.145 234.34l-31.202-22.142zm6.6905-130.83c-4.4736-47.792 6.7599-80.728 37.261-117.41 12.249 15.579 24.445 31.766 39.027 45.254 70.23 64.95 159.84 81.092 220.49 136.47 6.8893 6.29 34.524 33.029 35.141 41.406 0.448 6.0977-11.147 22.552-14.472 28.368-37.865 66.2-42.349 107.5-39.79 163.81 1.2178 6.5059 1.3838 12.646 1.3539 19.252l-1.6493 0.4148c-50.865 6.3022-260.39-136.25-277.36-317.57zm275.17 470.98 65.702 5.7395 1.4733 46.286c-30.488-12.421-46.401-27.283-67.175-52.026zm-124.88-81.73c-36.979-21.312-75.435-54.63-86.685-97.157-6.2322-23.551 3.3784-44.475 14.997-64.668l37.825 37.093c75.678 64.473 185.03 103.27 284.8 94.241 95.194-8.6155 165.46-47.762 226.29-120.88 13.468 30.739 18.342 43.135 0.5708 87.095-57.695 106.44-296.83 168.56-477.8 64.28zm209.58 514.76c7.3809 24.898 8.1307 55.608 11.114 81.545l-56.028 59.347-38.911 54.679-106.78-335.88c57.84 56.989 115.66 106.98 190.61 140.3zm-890.71-1862.6c20.433-1.8612 39.648-1.158 58.51 7.5309 62.456 28.782 114.35 93.451 137.41 157.24 25.062 69.33 22.364 143.56 11.383 215.16-4.009 26.129-8.2535 53.571-19.477 77.666l-8.27-40.411c-20.506-75.988-65.715-146.27-125.42-197.53-21.967-18.86-30.417-17.669-32.25-20.784-3.6856-6.3035 15.436-123.31-96.874-133.72 21.564-32.787 35.99-52.606 74.984-65.153zm158.05 531.85c-6.989 67.027-65.918 133-116.48 173.82l-24.727 19.195c-16.772-17.613-33.299-35.71-46.732-56.059-136.69-207.03 22.908-299.38 51.243-439.62 32.086 34.241 45.866 44.857 82.248 112.93 29.376 54.978 61.102 126.01 54.452 189.74zm-780.35-274.87c-7.2278-70.252 13.265-133.99 57.912-188.01 62.22-75.288 140.22-118.89 237.59-128.17 20.366-1.9338 44.011 2.0006 63.618 7.5607 70.338 19.948 122.22 70.756 156.92 133.1l-16.096 22.181c-21.179-28.395-46.676-53.874-79.179-69.117-38.051-17.848-62.977-5.3711-91.232 20.864-1.5696 1.4602-7.3904 7.962-8.9999 8.4531-2.6608 0.8162-22.267-6.7839-53.599-8.6188-81.44-4.7539-155.15 66.713-124.69 144.52-19.371 10.696-36.203 22.742-48.706 41.483-16.56 24.822-20.635 63.02-14.247 91.633 5.9772 26.772 25.416 49.106 48.198 63.424 149.54 93.988 440.84-23.124 382.3-276.44l24.229-23.783c6.2596-2.8745 10.477-4.9363 15.588-5.1688 24.515-1.1229 60.537 27.576 64.932 83.176 7.5631 95.853-55.935 165.15-86.838 249.63-15.236 41.658-19.182 77.305-18.81 121.45-93.698-23.591-187.57-30.816-283.77-22.118-21.548-10.095-43.93-26.726-61.938-42.328-48.654-42.169-35.699-57.444-42.403-65.909-10.778 10.059-6.6108 29.454-4.807 45.569-62.798-56.424-107.06-116.75-115.97-203.37zm213.06 55.745c-35.01-29.088-40.696-76.771-44.46-119.33-2.2314-25.237-3.2746-53.353 14.307-73.722 23.848-27.631 58.596-36.838 93.523-39.565l28.45 0.6036-16.981 30.724c1.0454 6.2069 2.0609 9.6368 5.8973 14.673 23.366-3.6193 49.54-6.4426 69.711 8.0751 26.28 18.913 43.222 47.935 48.531 79.634 8.5786 51.209-11.177 89.328-40.241 129.42-71.551-2.2536-122.86-0.6938-158.74-30.504zm151.05 57.804-52.656 18.087c-24.853 5.2981-49.401 9.5312-74.918 8.8611-40.015-1.0483-87.655-15.35-115.65-45.154-14.114-15.025-19.193-32.718-18.367-52.935 1.4853-36.333 18.104-55.917 43.74-79.425 4.455 37.73 12.97 81.594 40.288 110 44.308 46.067 118.85 39.402 177.57 40.57zm73.972-162.71c-6.9425-37.67-24.561-73.696-57.04-95.502-22.288-14.959-42.116-16.203-68.204-11.339 18.07-20.874 37.036-33.026 63.236-41.43 27.126-2.7789 44.476 1.3473 65.768 19.822 70.539 61.214 58.279 168.23-3.3518 236.19-8.3828 9.2391-25.304 28.915-37.879 29.539 30.115-41.366 46.74-86.972 37.47-137.28zm-186.24 579.94c-43.431-3.6957-85.956-13.947-125.27-33.046-50.874-24.709-113.22-81.213-131.35-136.58-4.1784-12.759-0.5821-22.357 5.4217-33.683 21.266-40.115 53.37-73.589 97.286-87.058 34.469-1.0618 49.472 13.194 75.443 33.474-11.745 5.0858-29.344 11.12-35.402 23.455-20.276 41.28 52.039 146.41 109.68 189.68 22.547 16.929 47.881 29.606 72.87 42.474l-68.675 1.2836zm-90.505-176.93c-5.126-12.6-6.8903-26.335-8.837-39.718 49.407-14.594 103.47-18.505 154.68-20.681 55.965-1.2771 112.55 6.3165 166.6 20.698 47.359 12.605 32.746 6.8801 53.824 50.204 20.738 42.634 57.213 88.85 95.404 117.07l-0.9757 1.7817c-189.59 99.951-414.17-14.988-460.7-129.36zm599.06 283.36c-13.527 7.501-32.618 4.7473-46.975 1.2507l-22.726-11.575 61.152-43.645c1.7828 17.603 0.6999 36.682 11.668 49.998-1.022 1.8775-1.1746 2.8929-3.1194 3.971zm-111.56-30.488c-66.448 26.417-163.76 41.642-231.44 12.106-12.561-6.7279-27.8-15.032-35.642-27.373-10.258-16.151 4.8743-41.675 7.1813-42.939 10.336-5.6473 106.35 34.254 234.68-38.778 107.48-61.165 170.44-147.31 202.77-265.42 69.077 92.72 3.9708 290.24-177.55 362.4zm125.99-38.868 30.906-32.897 3.8329 1.5261c5.1501 29.584-11.94 58.985-30.017 83.071-7.012-10.208-4.3538-38.477-4.7223-51.7zm502.35 1109.4c-95.452 11.673-199.84-41.445-249.71-115.61-35.735-53.154-42.199-121.54-29.751-183.22l5.0874-1.6953c68.726-13.818 236.92 72.878 278.03 296.47l-3.6604 4.0607zm88.869 331.58 32.768-27.967 27.259 95.91c-20.831-25.036-6.7555-8.9575-60.027-67.943zm191.44 1319c-58.62 140.04-49.016 124.47-66.206 131.94-9.8596-0.2324-10.427 0.4644-17.403-6.27-1.676-6.3369-2.2701-11.28-0.2523-17.616 5.1074-16.023 17.373-32.578 24.65-48.204 47.421-101.73 89.338-262.84 92.758-435.56 7.629-384.75-99.534-741.15-165.67-987.79-131.64-478.52-289.01-950.5-638.91-1313.7l14.784-13.738 6.249-0.667c110.28 107.14 272.98 328.65 395.64 603.65 167.63 375.82 265.21 818.72 357.06 1191.6 58.174 286.28 102.52 623.76-2.6946 896.33zm111.94 186.68c3.7172 11.678 9.6475 25.843 3.5876 37.554-7.4736 7.2319-9.1895 8.4932-19.915 10.483-23.246-2.2817-22.888-13.389-60.943-178.88-2.5288-13.668-7.822-31.384-7.3906-45.151 0.2092-6.6685 4.7856-13.237 6.8364-19.474l18.972-59.616c14.894 38.485 1.5006 74.683 58.852 255.08zm-26.96-720.86c-16.085-116.61-16.656-66.948 13.497-276.55 32.6-213.47 110.39-640.47 200.89-833.35-1.2083 12.428-4.4835 28.156-2.884 40.474 0.7897 6.0879 5.8871 16.223 5.5653 21.55-1.2382 20.703-131.66 374.07-217.07 1047.9zm149.78-1006.2c-108.35 341.83-139.37 613.93-149.93 637.16-0.36-76.848 5.1941 52.598-37.646-784.42 91.275 44.297 182.1 17.811 259.98-45.314 0.3184 1.3034-65.417 170.56-72.396 192.57zm533.33-521.25c78.2-8.4761 167.84 8.6821 242.19 32.565l62.914 23.584c-30.813 12.733-60.203 25.983-87.585 45.205-138.08 96.908-167.93 261.8-284.04 335.88-90.784 57.921-226.06 63.65-327.85 38.258-7.0055-1.7449-10.842-2.2856-14.539-8.7217 9.936-21.806 26.184-42.531 40.049-62.028 71.417-100.43 161.51-184.09 270.3-242.66 82.063-42.368 158.75-52.911 250.06-53.943-36.077-12.962-85.564-10.566-123.35-5.9053-144.18 17.792-279.04 105.31-369.96 215.98-36.226 44.09-65.028 92.877-99.79 137.74l-0.6107-1.7449c-0.9591-14.667 4.4238-35.07 6.6937-49.929 6.9025-45.239 10.359-110.76 98.968-219.65 85.481-105.06 201.62-170.93 336.55-184.62zm-331.41 125.01-5.9469 4.22-2.8209-0.8494c6.2186-37.67 77.877-179.43 191.96-303.31l9.2522 19.188c-73.856 87.928-132.72 183.14-192.45 280.75zm193.48-374.76c-6.5476 1.8645-20.658 4.4988-26.888 1.4431-3.6934-1.8113-4.208-6.479-5.5852-10.221 2.2864-14.272 20.502-29.888 30.568-39.81l5.1404-1.4231 29.914 34.077c-10.888 6.6914-21.067 11.754-33.15 15.934zm70.414 93.631 5.4292 3.5498-1.6926 2.0632c-15.6 0.9294-27.113 0.3303-40.016-11.847-24.533-23.146-16.821-58.362 6.2756-81.246 4.5696 0.2622 34.334 25.263 41.18 29.118-5.1833 4.0708-10.736 8.2178-15.163 13.121-7.0986 7.8623-14.449 21.746-14.074 32.406 5.5884 8.5291 8.9204 9.1063 18.06 12.836zm87.137 8.3567c-5.9634 3.0059-14.108 3.2776-20.496 1.4531-10.792-3.0786-40.251-25.21-45.677-33.842l10.327-11.196c6.0032-0.408 17.496 9.2429 23.044 12.643 13.659 8.3735 28.285 15.029 42.76 21.859-1.0851 4.6874-6.0399 6.4457-9.9591 9.0832zm-63.837-106.01c83.745-66.371 176.37-81.412 279.78-87.032 43.812-2.1396 97.212-2.624 140.07 6.8872 20.856 4.6255 0.3259 0.364 143.1 46.588-69.48 210.05-369.91 198.25-562.94 33.557zm862.2-153.05c-72.558 70.086-165.98 98.617-265.04 96.941-50.376-5.0061-95.204-19.749-142.99-35.152 37.683-8.168 72.326-15.075 107.47-31.868 35.831-17.122 72.03-39.98 96.515-71.821 6.7932-8.8345 12.1-24.941 19.357-32.104 6.7534-6.6682 26.36-13.393 35.167-18.857 36.621-22.715 75.06-64.403 89.065-105.65 12.398-36.513 7.8782-64.526-8.9534-98.574 17.748-9.3105 76.403 15.058 113.3 51.312 73.572 72.292 28.103 176.22-43.892 245.77z"/> <path d="m366.02 1341.7c-10.706-3.0024-26.595-1.0621-36.306 4.561-3.7634 2.1831-7.1848 5.1925-10.437 8.0453-6.7765 12.222-12.276 22.536-8.3463 36.838 1.8419 6.6952 6.0233 12.799 12.398 16.123 6.1361 3.202 11.459 2.8235 18.004 1.4668 6.7765-4.9265 7.0886-5.7031 9.76-13.685-3.8694-8.3103-10.318-6.2203-14.987-13.685 3.8829-6.3334 4.9282-7.6603 11.366-11.277 9.1694 0.7032 13.235 0.554 19.029 8.7885 16.256 23.106-16.427 56.576-44.98 47.533-25.404-8.0471-42.614-40.31-32.585-68.948 3.4846-9.9492 11.088-18.16 18.056-25.86l-0.8396-3.0062-9.7468 0.5181c-12.113 3.4034-20.26 7.5868-26.56 19.088-16.928 30.913 0.2163 75.065 30.533 90.486 32.771 16.673 75.137 5.7754 90.289-28.902 8.8874-20.335 4.9158-59.803-24.647-68.085z"/> </svg>