<?xml version="1.0" encoding="UTF-8"?><svg id="a" xmlns="http://www.w3.org/2000/svg" viewBox="0 0 800 600.7"><path d="M241.45,370.15c-8.9,.84-17.43,.26-25.76-2.4-10.11-3.24-17.61-9.42-22.05-19.18-4.1-9.01-9.01-17.54-15.22-25.29-6.71-8.37-14.65-15.11-25.04-19.18,.76-.53,1.31-.97,1.91-1.31,13.43-7.47,23.97-18.21,33.34-30.1,11.4-14.45,26.22-20.84,44.34-20.34,1.1,.03,2.21,0,3.59,0-2.69-3.21-5.38-6.05-7.66-9.2-6.99-9.66-11.15-20.3-9.72-32.43,.48-4.05,1.99-7.99,3.07-11.97,3.07-11.36,5.14-22.79,1.93-34.48-.89-3.23-2.09-6.37-3.17-9.62,16.51,1.57,31.47-3.37,44.78-12.39,18.1-12.27,36.09-10.47,54.5-1.76,6.87,3.25,12.69,8.06,18.2,14.37-.12-2.68-.25-4.74-.3-6.81-.33-12.22,1.78-23.79,9.01-34,4.28-6.04,10.03-10.27,16.32-14.08,7.86-4.77,15.51-9.94,22.93-15.37,5.98-4.37,10.34-10.3,13.77-17.4,8.25,16.3,21.77,26.13,37.66,32.97,18.53,7.98,25.62,22.95,26.64,41.9,.18,3.45,.03,6.91,.03,10.66,3.55-3.25,6.68-6.46,10.16-9.23,11.81-9.36,25.13-14.22,40.37-12.74,6.34,.61,12.26,2.64,17.81,5.82,5.71,3.27,11.36,6.65,17.23,9.62,10.89,5.5,22.22,9.28,34.59,7.11-2.17,5.3-4.63,10.37-6.32,15.69-2.4,7.57-3.12,15.45-3.04,23.4,.07,6.97,.29,13.97-.22,20.91-.9,12.25-6.73,22.32-15.52,31.66,2.74,0,4.99-.04,7.24,0,7.3,.17,14.37,1.48,21.1,4.42,7.46,3.25,13.33,8.29,17.76,15.15,5.66,8.77,11.3,17.56,17.34,26.06,4.69,6.6,10.8,11.77,18.61,15.15-.67,.44-1.13,.84-1.65,1.08-14.1,6.55-24.22,17.17-31.9,30.5-3.27,5.67-6.77,11.36-11.05,16.27-7.13,8.17-16.94,11.73-27.47,12.82-6,.62-12.12,.11-18.42,.11,3.64,2.93,7.22,5.47,10.42,8.43,10.07,9.29,16.2,20.63,17.08,34.5,.38,5.92-.81,11.59-2.99,17.08-4.63,11.67-8.23,23.6-8.95,36.22-.23,4.02-.04,8.06-.04,12.21,.06,0-.24,.13-.44,.04-13.13-6.21-26.73-6.04-40.54-2.95-4.4,.98-8.73,2.27-13.17,3.02-12.23,2.07-23.02-1.93-33-8.56-7.68-5.1-14.2-11.47-19.24-19.25-.44-.68-.99-1.3-1.95-2.55,1.55,9.56,1.31,18.32-.78,26.97-3.01,12.4-10.25,21.82-20.72,28.87-10.43,7.01-20.48,14.49-28.43,24.33-3.82,4.72-7.06,9.91-10.54,14.85-8.01-16.31-20.91-28.47-36.14-38.37-11.92-7.75-19.63-18.29-21.8-32.43-.82-5.36-.74-10.86-1.06-16.29-.02-.41,0-.83,0-1.73-2.26,2.91-4.05,5.52-6.14,7.87-9.66,10.84-21.41,17.61-36.23,18.27-5.92,.27-11.54-1.11-17.15-2.82-11.16-3.4-22.42-6.7-34.25-5.85-5.26,.38-10.44,1.97-15.57,3,1.63-14.08-1.22-28.2-6.15-41.91-7.02-19.53-1.85-36.35,10.8-51.65,2.2-2.66,4.74-5.03,7.29-7.7Zm-.8-22.99c-3.27-5.89-9.39-6.57-13.65-10.07,1.77,.58,3.54,1.16,5.95,1.94-3.65-4.24-7.79-7.02-10.43-11.17-.4-.64-.5-1.47-1-3.01-2.42-1.58-5.66-3.71-8.91-5.83,3.71,1.14,7.23,2.61,10.81,3.94,.78,.29,2.05,.48,2.58,.07,3.26-2.56,6.38-5.31,10.01-8.39-4.31-.97-7.74-1.74-11.16-2.51,3.14-.37,6.24-.6,9.29-.3,3.23,.31,5.17-.9,6.29-4.06-12.05-1.19-24.05-2.37-36.05-3.55,1.34-.39,2.66-.41,3.98-.39,10.84,.19,21.67,.41,32.51,.55,1.05,.01,2.41-.14,3.08-.79,1.58-1.53,2.84-3.4,4.45-5.43-5.34,.24-10.32,.45-15.3,.67,4.33-1.24,8.68-2.07,13.07-2.32,3.75-.21,6.23-1.98,8.28-4.69h-26.28c4.15-1.12,8.21-2.36,12.34-3.29,4.12-.92,8.3-1.6,12.47-2.23,4.13-.63,8.29-1.06,12.43-1.58l-.05-1.44c-8.62-.36-17.25-1.09-25.86-.96-8.67,.13-17.32,1.11-25.99,1.71,6.88-1.65,13.8-3.42,20.83-4.32,7.08-.91,14.26-1.23,21.4-1.3,6.99-.07,13.99,.5,20.99,.78-7.18-2.88-14.66-4.2-22.2-4.54-7.63-.34-15.29,.13-22.69,.24,13.2-4.5,27.04-5.07,41.88-3.23-5.48-8.47-14.49-13.32-17.73-22.42,3.48,3.35,7.02,6.75,10.56,10.15-.15-3.35-1.17-5.88-3.34-8.25-3.65-4-6.67-8.58-9.95-12.91l.64-.47,9.58,10.18,1.32-1.02c-1.11-1.91-2.06-3.92-3.36-5.69-3.79-5.18-7.72-10.26-11.59-15.39l.63-.47c3.91,3.67,7.81,7.33,12.08,11.33,.4-3.31,.42-5.7-1.56-7.99-2.48-2.86-4.52-6.11-6.75-9.19l.36-.24c2.51,2.39,5.02,4.78,7.68,7.31,1.59-5.54-1.88-9.05-3.32-13.18,1.11,1.04,2.21,2.09,3.32,3.13l.86-.33c-.63-3.35-1.27-6.69-1.81-9.54-.09-.07,.42,.33,.92,.74l.77-.27c-1.16-9.17-2.31-18.35-3.48-27.63,9.29-3.76,18.81-7.68,28.37-11.48,9.65-3.83,19.57-6.03,30.04-4.58,.89,.12,1.81,.02,2.78,.02-.24-.61-.39-1-.26-.66,3.84,1.13,7.93,2.33,12.26,3.59-.13-.87-.19-1.27-.17-1.12,3.68,2.03,7.59,4.2,11.73,6.49-.88-6.17-3.36-10.95-8.48-13.98-3.87-2.29-7.68-4.85-11.84-6.44-17.67-6.71-35.06-7.14-51.62,3.48-2.85,1.83-5.61,3.81-8.54,5.49-7.11,4.06-14.65,6.39-22.94,4.9-3.08-.55-6.11-1.34-9.28-2.04,.35,.54,.62,1.04,.97,1.47,4.84,6.06,6.95,13.02,6.85,20.7-.08,6.21-1.94,12.01-4.21,17.72-3.19,8.05-4.06,16.4-2.83,24.95,2.22,15.35,10.61,26.41,23.85,34.07,2.67,1.55,5.28,3.2,7.92,4.81-1.54-.33-2.92-.91-4.22-1.64-9.98-5.68-20.59-6.03-31.45-3.58-13.68,3.09-24.36,10.56-31.7,22.59-5.74,9.39-13.42,16.39-24.01,19.91-.39,.13-.75,.36-1.16,.57,.25,.35,.32,.57,.46,.62,1.04,.43,2.09,.84,3.15,1.23,9.26,3.45,16.49,9.34,21.28,18.02,2.13,3.86,3.98,7.88,5.95,11.83,11.11,22.34,36.37,30.61,59.11,25.13-10.08-5.12-18.11-13.42-29.32-16.33l.4-.77c2.53,.83,5.06,1.67,8,2.64Zm97.61-88.25c-18.94-15.66-31.71-36.45-46.54-55.51,3.9,3.95,7.58,8.1,11.19,12.31,8.2,9.58,15.82,19.72,25.77,27.66,4.05,3.24,8.32,6.2,12.5,9.29l.59-.72c-7.58-7.36-14.86-14.97-20.05-24.3,7.01,5.7,13.64,11.86,21.45,16.32-6.71-7.6-13.43-15.19-20.14-22.79l.68-.69c7.7,6.23,15.41,12.46,23.11,18.69-9.17-16.89-21.62-30.33-39.09-38.63,20.27,5.28,35.1,18.23,48.06,33.87-8.46-16.95-21.35-29.99-36.2-41.34,15.57,5.19,25.73,16.98,35.76,29.03-4.69-11.86-12.53-21.51-21.23-30.56l.7-.73c6.3,5.56,12.59,11.12,18.37,16.22,0-1.78-.37-4.29,.07-6.64,1.06-5.69-1.5-9.16-5.85-12.46-14.08-10.69-29.48-16.28-47.19-12.47-11.51,2.47-22.84,5.78-34.28,8.72,4.41,9.83,6.27,20.76,6.38,32.06,.08,8.28-.26,16.62,.6,24.82,1.53,14.64,8.49,26.73,19.46,36.47,9.38,8.33,20.95,12.3,32.59,16.08,.27,.09,.61-.06,.91-.1l.27-.65c-1.52-1.01-2.97-2.13-4.56-3.01-7.62-4.2-14.74-9.07-20.84-15.33-1.65-1.7-3.19-3.5-4.79-5.26,8.31,6.57,16.96,12.31,27.04,15.7-12.58-7.47-23.6-16.5-30.84-29.5,9.22,10.18,20.17,17.77,33.22,22.4-13.55-8.34-24.72-18.86-32.04-33.08,2.56,2.6,4.88,5.44,7.48,7.98,2.69,2.62,5.56,5.09,8.54,7.39,2.9,2.24,5.93,4.34,9.08,6.2,3.1,1.83,6.42,3.29,9.65,4.91-14.46-10.46-26.53-22.72-34.18-38.94,10.26,14.8,23.93,25.35,40.23,32.73-15.27-10.65-26.76-24.72-36.79-40.15,11.58,13.8,24.85,25.55,40.92,34.03Zm161.52,10.16c-4.63,5.28-9.67,9.88-15.47,13.54-2.49,1.58-3.32,3.52-3.19,6.34,8.64-2.84,16.56-6.75,23.39-12.71,18.34-15.99,27.18-35.95,25.89-60.42-.56-10.7-2.87-21.59,2.21-32.08-11.78-6.01-23.96-8.63-36.79-6.45-18.75,3.19-34.38,12.22-46.87,26.58-1.58,1.82-3.18,3.83-4.07,6.03-3.13,7.75-5.97,15.61-8.88,23.44-.55,1.48-.91,3.03-1.36,4.55l.88,.44c7.56-14.04,16.46-27,29.32-36.71-6.11,7.36-12.18,14.73-16.54,23.36,8.73-11.18,19.81-19.31,32.32-25.65-11.58,9.16-20.94,20.2-28.27,32.99,11.62-13.09,25.33-23.4,40.91-31.3-5.01,4.79-10.34,9.21-15.37,13.95-5.06,4.78-10.02,9.7-14.65,14.89-4.53,5.09-8.39,10.73-11.35,17,14.92-19.11,36.35-29.81,55.4-43.57-.59,.97-1.36,1.73-2.18,2.42-6.21,5.21-12.22,10.67-18.68,15.54-11.58,8.72-21.26,19.12-29.11,31.26-.61,.94-.95,2.05-1.42,3.08l.79,.49c9.37-8.3,18.73-16.59,28.1-24.89-3.87,5.84-7.84,11.56-12.27,16.9-4.42,5.32-9.3,10.24-13.98,15.34,13.1-8.58,23.83-19.71,34.11-31.39,.1,.46,.09,.84-.07,1.13-6.44,11.8-14.8,22.11-24.4,31.47,16.18-10.85,29.26-24.62,39.19-41.4-7.7,20.07-20.87,35.96-37.44,49.36,4.44-2.65,8.74-5.44,12.75-8.62,4.05-3.21,7.96-6.64,11.65-10.27,3.6-3.55,6.84-7.46,10.72-11.75-6.93,15.08-17.99,25.54-30.57,34.75,11.25-4.81,20.62-12.18,28.83-21.14-5.93,10.26-14.16,18.25-23.87,25.18,.91,.35,1.87,.5,2.48,.1,5.91-3.82,11.76-7.74,17.85-11.78Zm-100.41-184.95c-.3,.27-.51,.37-.57,.52-.42,1.04-.81,2.09-1.21,3.14-2.46,6.48-6.14,12.18-11.93,16.05-4.35,2.92-9.08,5.29-13.76,7.69-5.34,2.74-10.12,6.14-14.15,10.59-9.68,10.67-13.48,23.48-13.49,37.58,0,8.6,2.66,15.98,10.42,20.39,.24-4.12,.23-8.53,.81-12.85,.58-4.24,1.76-8.4,2.68-12.59-.06,6.52-1.34,12.9,.33,19.4,3.43-9.39,3.01-19.83,8.02-28.95-.62,5.72-1.22,11.25-1.82,16.79l1.36,.29c2.53-9.4,4.3-19.07,9.06-27.71-1.16,6.38-2.32,12.76-3.54,19.48,3.62-1.34,3.96-4.12,4.74-6.72,1.54-5.15,3.22-10.25,4.85-15.37l.62,.22c-.9,5.26-1.81,10.51-2.74,15.97,3.03-1.05,4.74-2.7,5.33-5.78,.6-3.18,1.82-6.24,2.76-9.35l.45,.11c-.4,3.44-.8,6.88-1.2,10.4,4.25-.78,5.87-3.1,6.41-6.97,.74-5.28,2.18-10.46,3.32-15.69l.53,.1c-.7,6.2-1.41,12.41-2.13,18.74,5.33-1.56,5.3-1.56,5.56-6.49,.11-2.13,.39-4.25,.6-6.38l.29,.03c.22,3.32,.44,6.64,.67,10.06q7.43-2.25,7.12-7.98c2.01,3.76,3.86,7.54,6.01,11.15,2.16,3.65,4.61,7.13,6.93,10.69l.92-.42c-.88-5.93-1.76-11.87-2.65-17.8,2.69,7.31,4.87,14.76,7.31,22.12,.61,1.83,2.06,3.39,3.13,5.07l1.02-.5c-.36-5.5-.72-10.99-1.08-16.49l.76-.15c1.16,6.31,2.31,12.62,3.48,18.93,.28,1.5,.6,3,.91,4.49l1.09-.1,1.45-12.4h.78c.32,5.31,.55,10.63,1.01,15.93,.22,2.49,.89,4.93,1.36,7.4l1.25-.08c.47-5.47,.95-10.95,1.47-16.9,1.44,6.8,1.69,13.2,1.24,19.69-.31,4.47-.23,8.97-.32,13.46l.97,.11c.42-.69,.84-1.39,1.26-2.08,4.25-7.01,6.16-14.89,8.2-22.69,4.99-19.11-2.19-39.76-18.13-51-4.47-3.16-9.67-5.38-14.72-7.6-10.56-4.64-17.93-12.16-21.89-23.01-.31-.85-.72-1.65-1.12-2.55Zm185.83,233.27l.24,.5c-3.94,2.25-7.88,4.5-12.01,6.85,1.11,.91,2.09,1.72,3.23,2.65l-5.3,3.88c.83,.24,1.26,.36,.97,.28-2.98,2.42-6.19,5.02-9.4,7.62l.41,.59,6.37-1.77c-4.24,3.3-10.31,3.52-13.61,8.86,2.52-.63,4.71-1.17,6.91-1.72,.17,.3,.34,.6,.51,.9-10.45,2.04-17,9.71-25.02,16.12,1.82,.41,3.17,.89,4.54,.99,14.66,1.09,27.67-3.02,39-12.45,7.73-6.43,12.64-14.74,16.57-23.86,4.52-10.49,12.23-17.91,22.96-22.08,.66-.26,1.28-.64,2.39-1.2-1.46-.63-2.45-1.08-3.46-1.49-6.56-2.65-11.86-6.91-15.72-12.83-2.1-3.22-3.99-6.59-5.76-10.01-3.31-6.39-7.83-11.74-13.59-16.01-9.73-7.22-20.55-11.34-32.72-9.07-6.29,1.17-12.25,4.05-18.41,6.01-2.87,.91-4.6,2.67-5.29,5.7,9.35-.87,18.62-1,27.83,1-10.83-.08-21.6,.18-32.28,4.11,7.91,0,15.33-.15,22.74,.04,7.35,.19,14.56,1.46,21.58,3.79-17.71-1.91-35.13-1.26-52.01,4.91,4.49-.23,8.93-.98,13.4-1.37,4.5-.39,9.03-.57,13.54-.54,4.42,.03,8.86,.23,13.24,.78,4.45,.55,8.89,1.43,13.25,2.52,4.2,1.06,8.29,2.58,12.43,3.89-17.6-3.96-35.08-3.93-52.62-.3,13.54,1.2,27.12,1.92,39.73,5.7h-30.28c2.32,1.79,4.33,3.06,5.98,4.69,2.03,2.02,4.25,2.61,7.07,2.54,13.65-.36,27.23,.5,40.19,2.29h-41.72c1.18,1.25,2.13,1.97,2.71,2.91,2.33,3.77,5.45,4.33,9.63,3.39,4.2-.94,8.59-.99,12.9-1.43l.09,.62c-5.42,1.33-10.83,2.65-16.63,4.07,1.15,1.31,2.17,2.28,2.95,3.42,1.22,1.78,2.62,2.29,4.77,1.69,2.37-.67,4.85-.91,7.29-1.34l.12,.52c-2.87,1-5.73,2-9,3.14,1.66,1.83,3.1,3.3,4.4,4.88,1.03,1.25,2.01,1.21,3.41,.56,3.78-1.75,7.65-3.32,11.48-4.97Zm-186.48,202.87c1.79-3.65,3.29-7.39,5.36-10.79,4.59-7.54,11.67-12.42,19.11-16.78,6.34-3.72,11.88-8.3,16.26-14.21,8.91-12.03,12.5-25.51,10.91-40.38-.08-.76-.51-1.69-1.08-2.16-2.68-2.15-5.47-4.17-8.32-6.31-.24,3.99-.48,7.88-.72,11.77-.95-7.1-1.85-14.12-5.49-20.46,0,4.54,.53,9.02,.61,13.51,.09,4.54-.25,9.09-.4,13.64l-.41-.09c-.82-5.61-1.64-11.22-2.46-16.83l-1.18,.04c-1.18,12.67-.74,25.53-4.24,37.96v-28.57c-2.08,2.99-3.69,5.19-5.16,7.48-.42,.65-.52,1.57-.57,2.38-.22,4.32-.12,8.68-.62,12.97-.63,5.42-1.73,10.78-2.73,16.76v-27.44c-3.88,2.79-3.89,2.94-3.98,7.07-.09,4.19-.35,8.37-.54,12.55l-.47-.02c-.47-4.52-.94-9.05-1.43-13.74-3.67,1.95-6.53,3.94-5.43,8.51,.28,1.16,.04,2.45,.04,3.68h-.37c-.44-2.3-.87-4.6-1.34-7.05-6.03,3.62-5.32,1.86-4.87,8.36,.26,3.74,.52,7.48,.78,11.22-.39-.39-.56-.82-.67-1.26-.16-.63-.31-1.27-.42-1.92-.97-5.95-1.72-12.03-8.47-14.72,.52,2.86,1.07,5.85,1.72,9.42-3.51-5.92-2.61-13.56-9.91-17.13,.86,4.72,1.67,9.16,2.48,13.59l-.79,.19c-1.51-4.9-3.24-9.75-4.45-14.72-.61-2.52-1.95-4.05-4.44-5.87,1.39,7.42,2.66,14.2,3.93,20.99-3.62-7.09-5.89-14.56-7.27-22.35-.35-1.98-1.52-3.82-2.32-5.72l-.97,.37c.47,4.9,.95,9.8,1.48,15.3-2.88-6.19-4.07-12.21-4.96-18.34-.27-1.86-1.13-3.64-1.72-5.45l-1.21,.31c.32,5.08,.63,10.17,.97,15.55-2.24-6.51-3.38-12.92-3.72-19.53-.14-2.75-1.04-5.45-1.64-8.39-3.28,3.61-6.15,6.7-8.93,9.87-.58,.67-1.06,1.6-1.19,2.47-1.83,11.65-.39,22.8,4.78,33.5,5.28,10.91,13.53,18.84,23.89,24.83,7.78,4.5,14.47,10.19,18.79,18.26,1.35,2.52,2.5,5.14,3.73,7.68Zm91.62-112.26c-11.23-20.42-23.44-40.02-41.95-54.84,7.21,7.7,12.6,16.56,15.83,23.27-5.27-5.04-12.55-12.01-19.83-18.97l-.29,.36c6.64,9.74,13.28,19.49,19.92,29.23-.3,.24-.59,.48-.89,.72-9.05-9.9-18.1-19.8-27.57-30.15,8.53,21.03,21.54,37.71,40.11,49.98-6.93-2.59-13.2-6.2-18.71-10.9-5.57-4.76-11.07-9.68-16.06-15.03-4.84-5.19-8.99-11.01-13.44-16.55,2.93,6.34,6.14,12.5,10,18.23,3.82,5.69,8,11.2,12.57,16.3,4.54,5.08,9.75,9.55,14.69,14.31-10.39-4.79-19.01-11.9-26.74-20.46,0,4.8-.09,9.19,.06,13.58,.04,1.2,.49,2.58,1.21,3.53,7.44,9.78,17.24,16.39,28.51,20.99,9.54,3.9,18.61,8.52,25.58,16.88,1.65-2.81,3.26-5.44,4.78-8.13,5.03-8.94,8.59-18.42,9.38-28.71,1.11-14.32-2.55-27.56-9.71-39.92-8.95-15.44-22.24-26.04-37.85-34.03-1.05-.54-2.62-.07-3.95-.07l-.19,.98c10.64,7.18,20.18,15.43,26.69,26.67-8.93-9.81-19.29-17.66-31.29-23.36,16.28,9.93,28.08,23.81,36.37,40.82-10.25-13.73-21.87-26.02-36.38-35.37,19.22,16.27,29.53,38.26,39.16,60.63Zm25.74-37.24c10.63,7.74,19.81,16.73,26.4,28.13-8.82-9.46-18.48-17.8-30.18-23.97,6.31,5.92,12.63,11.41,18.42,17.4,6.77,7.01,12.75,16.63,13.69,20.73-11.13-14.3-23.93-26.23-28.58-26.37,3.86,4.38,7.78,8.44,11.23,12.88,3.46,4.45,6.44,9.27,9.63,13.93l-.65,.45c-5.35-6.99-11.56-13.09-18.92-18.15,10.9,13.15,20.03,27.31,26.36,43.18-7.29-12.93-14.6-25.83-25.54-36.47-.78,4.19-.98,7.71,2.41,10.78,2.45,2.22,4.2,5.2,6.26,7.85l-.42,.35c-3.07-2.88-6.13-5.77-9.25-8.71-2.04,5.67-1.97,5.6,1.99,9.39,5.11,4.88,10.1,9.89,15.12,14.86,.67,.66,1.23,1.43,1.85,2.15l-.52,.45c-6.81-6.01-13.62-12.02-20.73-18.3-.79,1.9-1.23,3.33-1.95,4.6-1.03,1.83-.46,2.7,1.29,3.67,3.3,1.83,6.42,3.99,9.62,6.01l-.24,.44c-4.21-1.69-8.42-3.39-12.81-5.16-.61,2.45-3.45,3.98-2.13,6.13-1.1,1.2-1.99,2.19-3.18,3.49,4.37,1.98,8.19,3.71,12.01,5.44-3.89-.6-7.63-1.66-11.4-2.61-.7-.18-1.87-.24-2.2,.16-1.14,1.39-2.01,3-3.01,4.57,1.17,.53,2,.91,3.44,1.56q-4.7-.24-6.92,3.34c-.93,1.51-1.84,3.03-2.76,4.56-10.9-7.78-23.83-10.8-35.7-16.37,2.06,2.78,4.28,5.32,6.8,7.52,11.89,10.36,25.68,15.55,41.51,14.04,5.36-.51,10.66-2.1,15.86-3.65,12.74-3.8,24.69-3.05,35.6,5.22,.23,.18,.56,.23,.23,.1-1.01-4.88-2.47-9.84-2.99-14.9-.71-7.01,1.65-13.55,4.51-19.85,3.94-8.66,5.84-17.62,4.47-27.15-2.51-17.48-11.96-30.05-27.27-38.43-.63-.34-1.67-.5-2.28-.22-2.34,1.08-4.59,2.36-6.94,3.61,2.82,2.67,5.5,5.2,8.18,7.74-3.5-1.71-6.62-3.89-9.93-5.75-1.09-.61-2.67-.36-4.02-.5,2.56,2.97,5.3,4.99,7.76,7.3,2.43,2.28,4.58,4.86,6.86,7.3l-.54,.5c-6.19-5.35-12.61-10.36-20.46-13.24Zm-94.14-140.54l.82,.34c.53-.68,1.35-1.28,1.53-2.04,.72-3.11,1.42-6.24,1.79-9.4,.62-5.33,.97-10.69,1.49-16.64,1.26,9.21,1.66,17.81,.48,26.46-.1,.75,.24,1.83,.77,2.33,1.17,1.08,2.61,1.87,4.42,3.11,1.09-8,2.48-15.68,3.11-23.43,1.35-16.5-2.87-31.51-13.22-44.58-5.94-7.5-12.61-14.5-14.86-24.16-4.33,2.76-8.45,5.32-12.51,7.99-11.21,7.37-20.44,16.54-26.34,28.79-6.45,13.38-8.22,27.51-6.47,42.07,.73,6.06,2.6,11.98,3.95,17.95,1.76-2.66,3.28-4.86,4.68-7.13,.39-.64,.65-1.5,.62-2.25-.25-8.35-.8-16.7-.77-25.05,.01-4.17,1.03-8.34,1.6-12.52l1.03,.06c0,4.98-.38,9.99,.09,14.92,.65,6.81,1.91,13.56,3.04,20.31,.14,.86,1.11,1.58,1.69,2.37l.64-.55c-2.17-19.16,.13-39.75,5.15-46.67-2.83,18.03-2.41,35.89,3.72,53.38-1.16-21.61,.22-42.77,9.73-62.68-5.28,19.63-5.28,39.29-.73,59.04,4.47-11.6,5.99-23.74,6.63-36.05l.79,.02c.55,11.89,1.11,23.78,1.67,35.97,5.39-15.75,5.9-31.84,5.84-48.08,1.3,5.8,2.49,11.59,2.92,17.44,.43,5.9,.39,11.87,.02,17.77-.36,5.76-1.38,11.48-2.11,17.21,6.38-13.27,7.09-27.42,6.92-41.73,3.31,11.66,3.49,23.48,1.88,35.42Zm-168.61,208.32c-.07-.41-.18-.61-.12-.75,5.53-14.01,11.7-27.68,20.55-40.01,1.56-2.18,2.3-4.95,3.42-7.45l-.67-.3c-9.32,9.35-18.11,19.11-23.83,31.23,1.21-6.32,3.49-12.23,7.38-17.2,5.91-7.55,12.29-14.73,18.44-22.08,1.25-1.49,2.38-3.07,3.57-4.61-11.59,8.64-22.08,18.22-30.15,30.18,6.64-16.73,19.42-28.52,32.34-40.28-3.9,2.28-7.71,4.67-11.21,7.44-3.54,2.8-6.88,5.87-10.11,9.03-3.15,3.07-6.05,6.4-9.06,9.62,5.35-10.86,13.79-19.12,22.59-27.14-8.21,2.58-13.67,9-20,14.19-.27-.28-.54-.55-.81-.83,4.97-5.06,9.95-10.12,14.92-15.18-.48,.24-1.78-.02-2.89-.64-2.81-1.56-5.31-.86-7.94,.52-5.35,2.81-9.72,6.78-13.67,11.24-8.08,9.13-12.52,19.73-12.98,31.99-.32,8.36,1.66,16.23,4.76,23.87,4.05,10,4.27,19.91-.3,29.81-.21,.46-.27,1-.49,1.83,.68-.29,1.02-.38,1.31-.57,11.76-7.62,24.03-7.63,36.65-2.49,6.4,2.61,13,4.26,19.93,4.67,16.29,.97,30.25-3.93,41.15-16.34,2.34-2.66,4.07-5.84,6.19-8.94-7.39,2.79-14.18,5.47-21.05,7.9-7.97,2.82-15.96,5.56-22.81,11.01-1.92-2.76-4.02-5.32-5.61-8.18-1.61-2.92-3.38-4.48-6.7-2.67-.02,.01-.17-.19-.26-.3,1.11-.69,2.2-1.37,3.31-2.06-2.65-4.32-5.18-8.45-7.75-12.65-1.2,.73-2.24,1.38-3.29,2.02,3.01-4.43,3.02-4.54,.23-8.66-4.21,3.58-8.41,7.16-12.61,10.73,2.71-3.95,5.59-7.7,8.92-10.99,2.77-2.74,3.07-5.37,1.12-8.64-3.73,4.7-7.44,9.37-11.14,14.04-.08-.76,.19-1.3,.52-1.81,2.9-4.5,5.79-9.02,8.74-13.49,1.37-2.08,1.54-4.17,.63-6.79-1.37,1.75-2.49,3.19-3.62,4.62,.73-3.45,4.31-5.83,3.37-10.45-8.82,11.14-14.5,23.49-20.97,35.58Zm108.12-81.2c-9.82,20.25-21.23,39.14-40.51,51.99,17.73-15.92,25.69-37.78,35.82-58.31-12,12.35-20.73,27.18-31.02,40.82,7.68-15.64,13.55-32.33,26.53-44.81-20.15,17.65-34.61,39.79-49.42,61.66,10.76-22.59,22.52-44.51,40.68-62.3-5.08,4.35-9.98,8.85-14.61,13.61-4.67,4.79-9.26,9.67-13.54,14.81-4.19,5.03-7.94,10.42-11.88,15.66,7.79-19.64,21.81-34.54,36.89-48.69-6.53,5.2-12.95,10.48-18.98,16.19-6.02,5.7-11.64,11.82-17.43,17.75l-.43-.3c5.2-6.67,10.41-13.34,15.28-19.58-4.13,2.1-8.78,4.44-13.39,6.84-.64,.33-1.15,.97-1.64,1.54-5.67,6.61-10.52,13.73-13.84,21.83-5.46,13.35-6.65,26.88-.59,40.25,3.39,7.47,7.82,14.46,11.97,21.99,5.83-8.35,14.11-12.24,22.98-15.6,18.37-6.94,30.23-19.5,32.45-39.78-5.11,6.32-10.74,12.05-17.53,16.53,12.93-15.1,18.54-23.53,18.69-28.55-1.87,2.69-3.6,5.37-5.53,7.9-2,2.62-4.1,5.17-6.33,7.58-2.17,2.34-4.51,4.55-6.91,6.66-2.37,2.07-4.93,3.94-7.41,5.9,14.56-14.62,25.07-31.4,29.68-51.58Zm-31.92-46.45c-19.14-2.35-38.08-1.58-56.81,3.17,17.94-8.65,37.05-10.2,56.58-9.39-15.15-4.15-30.5-4.29-45.98-2.31,7.78-2.6,15.81-4.1,23.97-4.12,8.12-.02,16.25,.67,24.74,1.06-2.17-1.01-4.08-2.19-6.16-2.83-5.29-1.61-10.61-3.15-15.99-4.41-8.12-1.9-16.38-2.63-24.67-1.55-15.78,2.04-28.43,9.8-38.62,21.79-4.82,5.68-9.99,10.95-16.59,14.42,16.15,17.34,34.88,28.91,59.51,28.09,15.7-.52,29.76-5.24,42.16-15.23-1.44-.94-2.53-1.79-3.75-2.38-.62-.3-1.61-.36-2.22-.08-9.15,4.16-18.79,6.52-28.71,7.79-4.61,.59-9.23,1.01-13.85,1.5,7.1-2.3,14.26-4.13,21.31-6.29,6.94-2.13,13.72-4.72,19.78-8.79-8.04,1.83-15.82,4.49-23.81,6.1-8.17,1.65-16.55,1.53-24.82,.08,21.38-2.05,46.84-9.47,49.6-14.13-10.46,1.19-21.31,2.91-32.22,3.53-10.91,.62-21.89,.14-32.83,.14,11.12-1.35,22.24-2.03,33.34-2.93,9.13-.74,29.53-5.49,32.56-7.39h-30.12c10.78-3.31,22.13-4.9,33.61-5.85Zm162.36-144.03c5.22,1.07,9.47-.91,13.71-3-1.04,.87-2.07,1.73-3.13,2.62,4.19,2.04,7.52,.07,10.96-1.53-.92,.82-1.83,1.65-3,2.7,10.21,2.88,19.29,7.3,28.36,13.33l1.56-.31c-.9,.97-2.97,2.17-2.97,3.37-.03,8.23,.37,16.47,.63,24.7l.75,.24c2.12-2.44,4.24-4.87,6.36-7.31-1.35,3.04-2.92,5.91-4.84,8.52-2.15,2.93-1.74,6.03-1.46,9.81,2.49-3.2,4.61-5.93,6.73-8.66-1.25,3.4-2.81,6.59-4.47,9.72-1.69,3.18-3.47,6.31-2.11,10.46,2.14-2.74,4.1-5.24,6.57-8.39-2.73,7.64-9.23,12.88-8.04,21.53,2.47-3.38,4.77-6.52,7.06-9.66l.63,.41c-4.17,7.34-8.33,14.67-12.79,22.51,1.11-.14,1.38-.13,1.62-.21,14.49-4.95,22.91-15.55,27.19-29.75,3.02-10.03,1.33-20.14-.2-30.21-1.88-12.44,.17-23.97,8.21-34.04,.5-.62,.87-1.33,1.59-2.45-6.87,1.87-13.42,2.79-19.62,.41-5.28-2.03-10.51-4.64-15.12-7.9-12.82-9.07-26.7-13.1-42.32-10.62-16.8,2.67-29.11,11.55-36.76,26.76-1.72,3.42-1.84,7.19-2.25,11.53,4.97-6.34,9.43-12.03,13.89-17.73l.5,.42c-2.6,4.19-5.2,8.39-7.81,12.58l1.03,.8c4.24-6.31,9.31-11.71,16.09-15.62-3.12,3.7-6.09,7.22-9.5,11.26,4.61-.28,6.6-3.34,9.32-5.19,2.78-1.9,5.58-3.76,8.38-5.64l.32,.48c-2.22,2.11-4.44,4.22-6.66,6.34l.53,.88,17.98-9.08,.18,.36-7.12,5.55Zm31.13,170.19c-12.69,4.11-25.37,2.59-38.19,.14,7.22,3.31,14.44,6.62,22.2,10.18-14.46-2.28-27.49-7.3-40.51-12.4,.16,.59,.43,.86,.76,1.01,12.11,5.49,23.13,12.57,32.37,22.24,.47,.49,1.25,.93,1.91,.98,14.66,1.01,28.32-1.83,40.06-11.16,9.15-7.27,16.41-16.91,27.91-21.6-3.66-3.65-7.01-7.07-10.45-10.41-6.85-6.66-14.31-12.54-22.98-16.67-15.38-7.32-31.52-8.46-48.22-6.21-7.43,1-13.3,4.71-19.75,8.72,17.92-1.83,35.32-2.59,51.01,.52-10.85,.46-23.27,.99-35.69,1.52l-.05,1.27c15.7,.77,31.47,1.14,46.05,8.07-18.27-4.62-36.85-4.15-54.49-3.78,9.96,2.35,20.76,4.91,31.56,7.46l-.17,.53c-12.36-.94-24.71-1.88-37.07-2.83l-.12,.91c2.99,.99,5.95,2.06,8.97,2.94,12.17,3.55,24.6,5.22,37.29,5.12,8.78-.07,17.56-.01,26.35-.01-5.87,1.16-11.75,1.7-17.65,2.14-5.92,.45-11.84,.94-17.77,1.14-5.93,.2-11.89,.3-17.81,0-5.79-.3-11.54-1.16-17.31-1.78,16.36,7.94,33.41,12.77,51.76,11.96Zm-153.67,33.07c-.9,3.03-1.81,6.15-2.74,9.26-6.1,20.55-3.24,39.75,9.63,56.93,6,8.02,13.18,15.15,19.91,22.77,.39-.28,1.03-.69,1.61-1.15,13.43-10.79,22.06-24.65,26.76-41.17,4.41-15.49,5.81-30.99,1.55-46.73-1.27-4.69-1.4-4.81-6.01-4.27,.17,12.66-.78,25.25-4.49,37.49,1.29-11.64,.84-23.17-1.35-34.53-.76,7.35-1.19,14.78-2.37,22.08-1.18,7.34-3.09,14.57-4.69,21.85l-1-.18c3.02-15.27,3.1-30.61,1.81-45.23-2.12,11.16-4.36,23-6.6,34.84l-.52-.13v-38.59c-8.23,22.57-5.21,45.54-6.32,68.17-.54-21.31-4.97-42.47-2.04-63.92-6.11,15.36-7.2,31.33-6.2,47.6-4.55-14.1-4.58-28.45-3.07-43.09-1.09,1.11-1.93,2.32-2.21,3.66-2.25,10.69-3.99,21.45-3.56,32.45,.03,.73,0,1.46,0,2.19-3.09-12.34-2.95-24.77-1.39-37.08-2.28-1.08-4.43-2.11-6.74-3.2Zm-9.53-53.7c-1.22-1.85-3-3.94-4.06-6.34-1.27-2.88-.26-4.29,2.85-4.48,2.33-.14,4.69,.06,7.02,.23,1.68,.12,4.65-1.85,4.87-3.39,.18-1.3-3.23-7.1-4.65-7.65-2.77-1.06-5.59-2-8.33-2.97-7.62,11.95-6.29,22.71,2.3,24.59Zm56.75-56.68c-9.33,3.92-13.37,9.47-12.32,16.41,4.16-.17,8.28-.39,12.4-.48,1.29-.03,2.33,.09,2.78-1.57,.25-.92,1.08-1.78,1.84-2.44,1.82-1.57,1.71-3.14,.38-4.92-1.68-2.25-3.31-4.55-5.1-7Zm-13.04-7.47c-10.07,3.88-14.76,10.9-12.29,17.22,4.12-.36,8.03-.7,11.72-1.01,1.98-2.78,3.97-5.58,6.11-8.59-1.7-2.34-3.56-4.91-5.54-7.62Zm30.15,15.88c-10.38,2.2-14.98,7.24-14.17,14.82,2.23-.39,4.47-.96,6.74-1.12,1.95-.14,3.94,.23,5.91,.28,4.96,.12,7.12-3,5.06-7.4-1.03-2.2-2.3-4.29-3.54-6.58Zm-35.55,24.78c1.93-.47,3.22-.97,4.53-1.05,2.24-.14,4.5-.01,6.76,0,1.81,.02,5.49-4.17,5.17-5.89-.46-2.46-.93-4.92-1.46-7.68-2.31,.33-4.81,.54-7.25,1.05-4.12,.86-6.72,3.65-8.16,7.43-.81,2.13-1.5,4.51,.41,6.13Zm-7.63-20.43c-1.5-7.67-7.63-9.61-14-11.17-4.64,12.6-4.71,16.26-.33,19.4-1.34-4.72-.69-5.59,4.28-5.72,.66-.02,1.33-.09,1.98,0,3.07,.39,5.77-.38,8.07-2.51Zm-35.34,43.1c-.43-.31-.62-.49-.84-.61-.25-.13-.53-.3-.79-.28-8.09,.76-15.51,3.04-20.63,9.88-2.08,2.78-1.25,5.88,2.15,6.59,3.74,.78,7.76,.7,11.6,.33,2.59-.25,5.07-1.67,7.6-2.57l-.3-.88c-1.2,.09-2.42,.32-3.61,.25-2.51-.14-5.07-.18-7.5-.75-2.46-.58-2.77-1.77-.94-3.5,1.89-1.79,4.04-3.35,6.24-4.75,2.18-1.38,4.56-2.43,7.02-3.71Zm19.97,18.1q.14-5.92-8.92-14.8c-9.64,4.13-12.95,14.33-7.6,20.42,0-.94-.03-1.88,0-2.82,.11-2.99,1.46-4.74,4.36-4.9,4.08-.22,8.31-.95,12.15,2.1Zm-18.93-45.46c-.03-.06-.23-.67-.59-1.14-4.7-6.04-10.58-9.79-18.53-9.36-5.57,.3-8.29,4.69-5.74,9.65,3.67,7.12,10.14,10.09,17.09,11.35-3-2.44-6.46-4.91-9.49-7.84-1.68-1.62-3.46-4.09-2.07-6.52,1.47-2.57,4.51-1.83,6.69-1.14,4.38,1.39,8.57,3.35,12.63,5Zm5.09,2.71c-.53-.99-.82-1.46-1.05-1.96-1.7-3.81-1.09-4.81,3.16-4.95,2.26-.08,4.52,.06,6.78,.02,2.06-.03,3.54-2.28,2.81-3.99-1.21-2.81-2.29-5.67-3.56-8.83-6.29-1.58-8.54,.94-11.82,7.57-1.92,3.89-.67,10.23,3.67,12.14Zm28.43-36.14c-.73-6.79-3.02-12.55-7.97-17.04-1.84-1.67-4.06-2.59-6.47-1.58-2.52,1.06-3.42,3.37-3.48,5.96-.15,6.28,2.2,11.71,5.9,16.63,.43,.58,1.15,.94,1.74,1.4-1.88-4.69-3.04-9.26-2.55-14.16,.34-3.4,1.54-4.08,4.26-2.15,1.51,1.07,2.93,2.39,4.04,3.86,1.62,2.15,2.92,4.53,4.52,7.07Zm63.08,41.11v.39c1.86-.14,3.74-.18,5.6-.45,4.89-.69,9.61-1.96,13.49-5.23,4.03-3.38,3.61-7.63-1.35-9.32-3.63-1.24-7.7-1.68-11.56-1.61-3.82,.07-7.58,1.34-10.55,4.14,4.86-1.39,9.75-2.29,14.7-.84,1.52,.45,2.82,1.66,4.22,2.52-.91,1.34-1.69,2.8-2.78,3.98-.87,.95-2.04,1.69-3.2,2.28-2.82,1.45-5.7,2.76-8.56,4.12Zm-97-25.78c-2.36-4.66-3.29-9.53-2.69-14.69,.35-3.04,1.03-3.76,3.95-2.85,4.01,1.24,7.9,2.9,11.35,4.2-2.74-3.99-6.51-7.93-11.96-9.79-5.37-1.83-9.8,1.15-9.39,6.45,.52,6.7,3.73,12.18,8.74,16.69Zm16.3,30.82c1.07-4.54,1.08-4.75,5.77-4.47,3.12,.19,5.14-.64,6.32-3.61,.44-1.09,1.37-1.99,2.52-3.58-3.79-2.23-7.6-4.48-11.6-6.84-2.78,6.26-7.55,11.6-3.02,18.5Zm26.94-3.79c-1.6-3.23-4.57-4.26-7.8-4.68-1.39-.18-3.32-.37-4.21,.38-4.15,3.51-6.12,12.95-1.89,16.39,.31-5.05,.76-5.69,5.84-5.49,3.4,.14,5.71-.52,6.49-4.19,.18-.84,.98-1.55,1.57-2.41Zm-18.53,46.35c-3.52,3.26-6.18,7.05-7.1,11.8-.36,1.86-.34,3.94,.1,5.77,.76,3.11,3.24,4.15,6.29,3.31,4.88-1.35,11.42-9.99,10.96-17.37-.68,1.18-1.11,2.22-1.78,3.07-1.98,2.48-3.95,4.98-6.15,7.26-.74,.76-2.15,.87-3.26,1.28-.34-1.09-1.08-2.23-.96-3.26,.46-3.86,1.2-7.69,1.89-11.86Zm17.99-9.12c3.4-3.18,7.26-3.21,10.98-2.81,3.67,.4,7.27,1.49,10.76,2.25-1.23-5.69-5.27-9.6-10.83-12.14-.62-.28-1.72-.2-2.27,.18-4.24,2.98-7.7,6.57-8.65,12.51Zm-15.02-23.06c-.48-.94-.96-2.05-1.58-3.08-1.81-3.02-4.7-5.26-7.96-4.78-1.83,.27-3.53,3.22-4.73,5.28-.9,1.53-1.12,3.57-1.25,5.41-.18,2.62,1.02,4.75,3.17,6.67-.9-6.05-.44-6.55,5.55-6.4,.28,0,.57-.02,.84,.03,2.76,.56,4.76-.39,5.96-3.14Zm18.08-33.37c-1.52-.71-3.16-1.86-4.97-2.24-4.57-.95-8.2,.89-11.11,4.43-2.29,2.78-2.36,3.58,.31,5.98,.76,.68,1.94,1.1,2.97,1.2,2.02,.18,4.06,.05,5.59,.05,2.35-3.07,4.53-5.92,7.21-9.42Zm46.99,17.26c.8-6.74-3.06-10.85-7.82-14.49-7.09,3.13-9.92,6.7-9.87,12.49,6.3-2.93,13.46-2.15,17.69,1.99Zm-37.01,4.99c2.53-2.61,5.47-2.55,8.36-2.39,2.24,.12,4.46,.66,6.71,.79,.72,.04,1.98-.44,2.15-.95,1.11-3.42-5.4-10.76-8.99-10.25-.45,.06-.89,.27-1.31,.46-4.6,2.07-7.28,6.61-6.92,12.35Zm-15.23,11.76c4.07-2.87,8.53-1.64,12.7-1.58,.9-1.34,1.57-2.71,2.58-3.76,1.27-1.31,.85-2.22-.15-3.34-2.61-2.93-5.94-4.15-9.77-4.16-.47,0-1.21,.27-1.38,.62-1.8,3.82-5.1,7.15-3.99,12.22Zm48.27-3.17c.27-5.73-2.09-10.35-6.64-12.68-1.09-.56-2.81-.74-3.91-.29-4.34,1.8-7.01,6.61-6.66,11.35,5.69-2.8,13.12-2.17,17.2,1.62Zm-32.76-51.63c.43-1.3,.81-2.63,1.31-3.9,1.51-3.84,3.56-7.23,7.53-9.05,3.47-1.59,4.92-1,5.33,2.81,.33,3.09,.07,6.24,.07,9.6,2.72-4.16,4.54-8.5,3.7-13.46-1.03-6.08-5.24-7.61-10.2-3.83-5.81,4.43-8.17,10.5-7.74,17.83Zm31.81,66.42c3.7,4.72,12.89,7.26,18.02,5.11,3.4-1.43,4.44-4.06,2.86-7.28-2.73-5.57-12.23-10.4-18.88-9.29,1.62,.55,2.83,.95,4.04,1.38,4.16,1.47,7.34,4.05,9.36,8.05,.89,1.77,.53,3.03-1.37,3.39-2.18,.41-4.47,.81-6.64,.57-2.44-.26-4.81-1.23-7.38-1.93Zm-33.14-7.29c5.15-3.5,10.44-2.26,15.75-.47,.92-3.8-.79-7.83-4.88-10.34-1.19-.73-3.3-.92-4.58-.38-4.38,1.86-6.65,6.25-6.29,11.19Zm-14.61,17.27c-.2-4.77-2.52-8.57-6.7-10.51-1.02-.47-2.44-.72-3.48-.4-4.17,1.28-7.74,6.96-7.42,11.26,5.74-3.07,11.53-3.18,17.6-.34Zm26.98-7.81c6.27-2.48,12.13-1.99,18.01,.88,.1-5.13-2.69-8.49-6.61-11.05-.83-.55-2.37-.75-3.25-.37-4.48,1.97-7.34,5.35-8.15,10.54Zm18.55-55.41c3.75-2.7,7.07-5.94,8.26-10.77,1.16-4.7-1.6-7.78-6.41-7.34-5.05,.47-12.83,8.36-13.36,13.96,1.15-1.44,1.9-2.82,3.04-3.71,2.4-1.88,4.88-3.74,7.58-5.13,1.07-.56,3.24-.38,4.09,.39,.83,.75,1.17,2.85,.76,4.02-1.03,2.96-2.6,5.74-3.95,8.59Zm-31.29,76.08c1.46,3.74,4,8.55,9.16,11.38,2.06,1.13,4.37,1.52,6.34-.19,2.01-1.74,1.88-4.1,.91-6.24-2.13-4.7-5.09-8.83-8.54-11.76,1.32,3.06,2.96,6.56,4.29,10.18,.38,1.04-.17,2.42-.29,3.64-1.25-.2-2.54-.3-3.75-.65-.68-.2-1.28-.77-1.86-1.24-2.44-1.98-4.87-3.99-6.26-5.13Zm15.68-7.31c-.22,.21-.45,.42-.67,.63,2.68,2.63,5.14,5.57,8.13,7.78,1.75,1.29,4.33,1.88,6.57,2,4.02,.22,6.43-2.78,5.41-6.66-1.09-4.14-4.22-6.78-7.84-9.62,1.13,3.23,2.21,5.79,2.9,8.44,.77,3-.03,3.91-3.02,3.51-1.73-.23-3.53-.73-5.03-1.58-2.27-1.28-4.31-2.98-6.45-4.5Zm-42.97-18.83c5.27-2.98,10.32-2.48,15.15,1.19,.6-5.97-5.7-10.44-9.28-10.2-3.58,.24-6.44,4.74-5.86,9.01Z"/></svg>