<?xml version="1.0" encoding="UTF-8"?><svg id="a" xmlns="http://www.w3.org/2000/svg" viewBox="0 0 800 600.7"><path d="M372.19,470.13c-13.51,22.77-31.14,39.56-55.91,47.83-9.41,3.14-19.08,4.16-28.63,.48-11.07-4.26-17.1-12.62-18.47-24.25-.45-3.85-.07-7.79-.07-12.12-5.02,0-9.83,.33-14.59-.06-15.15-1.25-28.53-6.69-38.85-18.17-12.69-14.12-14.53-30.41-8.75-47.98,4.82-14.65,13.86-26.46,25-36.82,.89-.83,1.81-1.62,2.98-2.66-3.84-1.18-7.45-2.12-10.95-3.39-14.48-5.26-26.65-13.69-35.38-26.57-18.78-27.7-8.07-63.11,23.2-76.99,11.88-5.27,24.49-6.83,37.3-7.35,1.78-.07,3.56-.01,6.24-.01-1.57-1.43-2.59-2.34-3.58-3.26-13.38-12.45-23.72-26.87-27.98-44.92-3.95-16.7-2.47-32.58,9.21-46.17,8.83-10.28,20.53-15.24,33.77-16.72,22.44-2.51,41.68,5.87,59.71,18.01,4.69,3.16,9.08,6.75,13.87,10.34,1.08-11.84,3.62-23.11,8.2-33.85,5.48-12.85,12.82-24.4,24.2-32.88,18.45-13.75,43.98-12.22,61.87,3.63,14.48,12.83,22.07,29.31,24.95,48.15,.7,4.6,.95,9.27,1.44,14.22,7.25-8.29,15.39-15.24,24.56-20.88,22.88-14.09,46.86-16.95,71.76-5.97,29.91,13.19,41.71,43.25,29.12,73.37-5.51,13.18-12.57,23.31-27.01,38.64,3.6,.8,7.02,1.42,10.36,2.32,16.1,4.35,30.11,12.09,40.23,25.72,18,24.25,12.18,57.74-12.79,74.82-11.48,7.85-24.25,11.74-37.95,13.04-.53,.05-1.05,.14-1.3,.17,4.88,6.35,10.18,12.44,14.56,19.12,8.92,13.63,14.4,28.51,14.24,45.08-.19,19.86-12.94,33.15-32.71,34.77-16.89,1.38-31.97-3.89-46.48-11.65-10.79-5.77-20.71-12.81-30.08-21.71,1.44,5.66,2.94,10.63,3.95,15.69,3.54,17.77,3.03,35.24-5.17,51.81-8.3,16.76-20.94,28.39-40.22,30.24-21.07,2.02-37.08-7.37-48.74-24.44-8.11-11.87-11.48-25.57-13.85-39.53-.48-2.83-.79-5.7-1.25-9.09Zm62.16-173.24q3.79,4,6.43,2.25c20.4-13.67,42.32-24.05,65.98-30.74,1.78-.5,3.64-1.35,5-2.55,6.22-5.48,12.48-10.94,18.36-16.78,14.28-14.19,26.08-30.11,32.78-49.35,2.88-8.28,4.74-16.77,4.38-25.63-.09-2.25-.65-3.59-3.29-3.36-6.35,.55-12.81,.4-19.05,1.52-18.51,3.31-33.45,13.4-46.84,26.03-17.48,16.48-31.44,35.83-44.6,55.77-8.42,12.75-16.6,25.66-24.99,38.66,1.44,.96,2.53,1.68,3.58,2.38,25.59-27.95,51.65-54.97,81.38-78.12-26.37,26.64-52.75,53.29-79.11,79.92Zm-142.63-83.18c30.87,23.96,57.66,52.07,82.51,82.19l5.84-4.1c-.23-.67-.41-1.3-.67-1.9-11.6-26.04-26.45-50.02-45.29-71.47-12.24-13.93-26.08-25.82-43.28-33.37-13.56-5.95-27.67-8.86-42.47-7.79-3.67,.27-7.29,1.39-11.07,2.14,5.69,18.22,15.39,33.08,28.02,46.13,14.09,14.57,30,26.96,46.57,38.49,18.45,12.84,37.13,25.36,55.62,37.96,.55-.28,.91-.37,1.12-.59,1.08-1.12,2.12-2.27,3.29-3.54-25.37-29.42-52.85-56.72-80.2-84.16Zm-101.32,94.84c1.05,1.52,1.78,2.64,2.58,3.71,.74,.98,1.51,1.95,2.36,2.83,10.14,10.56,22.37,17.75,36.21,22.34,24.97,8.28,50.35,6.72,75.77,2.91,10.83-1.62,21.56-3.87,32.36-5.72,5.92-1.02,11.87-1.81,17.81-2.7-18.35-1.82-36.66-3.09-54.99-3.88-21.45-.93-48.55-4.04-53.55-6.26,35.61,1.88,72.14,3.8,108.85,5.74,.47-2.63,.94-5.22,1.47-8.17-6.75-2.55-13.36-5.25-20.1-7.54-22.74-7.71-46.07-12.67-69.98-14.97-18.84-1.81-37.58-1.84-56.09,2.83-7.79,1.97-15.37,4.46-22.7,8.88Zm368.79,14.21c-36.45,1.65-72.9,3.3-109.16,4.93v6.85c7.55,1.26,14.92,2.49,22.29,3.71,26.44,4.37,52.95,7.95,79.85,5.85,12.89-1,25.49-3.4,37.15-9.36,7.54-3.86,14.13-8.88,19.33-15.91-.86-.58-1.47-1.06-2.14-1.42-17.99-9.63-37.12-15.25-57.52-16.5-29.48-1.81-58.6,.26-87.13,8.29-5.18,1.46-10.19,3.49-15.12,5.2,.94,3.56,1.7,6.44,2.53,9.63,36.52-1.11,73.09-4.08,109.92-1.28Zm-168.82-140.27l1.03-.05c2.33,34.46,4.67,68.93,7.01,103.46,2.22-.34,4.99,.68,6.05-3.45,9.2-35.76,14.76-71.88,11.36-108.93-1.37-14.95-5.08-29.31-13-42.22-3.4-5.55-7.62-10.6-11.96-16.56-2.24,4.57-4.06,8.02-5.66,11.57-13.57,30.11-17.44,61.41-10.28,93.7,2.19,9.86,6.33,19.27,9.37,28.95,3.22,10.25,6.18,20.58,9.41,31.39-.36-32.99-4.8-65.33-3.33-97.86Zm50.6,177.52c25.78,19.72,51.44,39.33,77.09,58.95l-.5,.68c-27.92-16.74-53.19-37.2-79.02-57.21-1.28,1.44-2.35,2.66-4.06,4.59,9.46,11.16,18.33,22.6,28.22,33.07,25.53,27.05,55.73,45.81,93.54,50.05,5.83,.65,11.74,.65,17.64,.95,0-1.04,.07-1.3-.01-1.47-.54-1.1-1.12-2.19-1.7-3.27-11.17-20.84-27.36-36.99-46.88-49.99-24.84-16.55-51.59-29.5-78.83-41.5-.67-.3-1.41-.43-2.08-.63-1.25,2.11-2.37,4.01-3.42,5.78Zm-33.75,17.08h-8.05c-.15,8.76-.51,17.37-.41,25.98,.24,21.42,1.98,42.72,5.63,63.84,3.02,17.47,7.52,34.49,16.17,50.12,2.88,5.2,6.3,10.11,9.77,15.62,1.48-2.1,2.51-3.41,3.38-4.81,12.52-20.06,15.55-42.11,12.1-64.93-4.39-28.99-13.54-56.62-26.95-82.78q-2.65-5.16-8.28-3.01c3.46,15.57,7.13,31.1,10.33,46.73,3.23,15.75,6.02,31.6,5.83,45.84-6.24-29.59-12.86-60.98-19.53-92.6Zm-46.18-27.13c-.76,.18-1.21,.24-1.62,.39-29.21,11.14-57.15,24.91-83.87,41.11-16.05,9.74-31.18,20.72-43.17,35.45-5.37,6.6-9.94,13.7-13.23,21.84,1.65,.38,3.02,.83,4.43,.99,20.94,2.39,41.04-.62,60.2-9.49,1.34-.62,2.67-1.73,3.46-2.96,14.49-22.52,32.54-41.9,52.36-59.73,2.27-2.04,4.56-4.05,6.84-6.08-25.75,17.76-50.81,36.46-78.1,51.79,15.64-11.82,31.35-23.53,47.21-35.03,15.85-11.48,31.85-22.74,47.83-34.12-.84-1.48-1.54-2.72-2.35-4.16Zm32.62-235.92c3.41,3.62,6.81,6.85,9.79,10.44,12.32,14.84,16.83,32.59,18.35,51.27,1.89,23.31-.93,46.33-5.62,69.09-2.8,13.63-6.61,27.06-9.99,40.69,.4,.05,1.09,0,1.7,.22,3.16,1.14,4.94,0,6.13-3.07,.92-2.38,2.39-4.55,3.62-6.81,11.14-20.45,21.25-41.35,27.49-63.9,5.27-19.05,7.33-38.28,1.63-57.6-5.06-17.17-14.42-31.01-31.67-38.05-6.78-2.76-13.88-3.9-21.42-2.28Zm-14.17,256.44c-14.43,27.06-26.97,54.77-43.12,80.54-.3-.15-.59-.3-.89-.46,13.62-27.3,27.25-54.61,41.01-82.2-.41-.35-1.21-1.06-2.28-1.98-3.28,3.69-6.47,7.13-9.49,10.7-17.84,21.12-32.59,44.33-46.04,68.39-8.83,15.81-17.37,31.8-22.2,49.4-1.18,4.28-1.65,8.76-2.59,13.97,2.22-1.21,3.39-1.83,4.54-2.47,24.33-13.48,42.4-33.03,55.48-57.37,13.01-24.21,21.38-50.25,30.22-76.24-1.07-.6-2.02-1.15-3-1.66-.48-.25-1.01-.4-1.65-.64Zm184.09-203.59c-.06-.26-.04-.55-.17-.66-.69-.57-1.37-1.17-2.13-1.62-21.62-12.8-43.55-12.51-65.48-1.05-15.09,7.89-25.88,20.47-35.59,34.08-.63,.88-1.06,1.98-1.27,3.05-4.53,22.77-13.07,44.06-23.8,64.53-4.19,8-8.65,15.87-12.98,23.79,1.63,1.94,2.67,1.31,3.8-.52,4.67-7.51,9.33-15.02,14.17-22.42,14.52-22.2,28.55-44.77,46.71-64.33,20.71-22.3,44.68-37.48,76.74-34.86ZM215.68,445.79c.57-1.11,.89-1.76,1.24-2.4,3.17-5.77,5.91-11.84,9.61-17.24,9.21-13.43,21.74-23.43,35.26-32.21,25.26-16.39,52.46-28.88,80.46-39.75,5.91-2.29,11.83-4.54,17.91-6.87-.64-1.92-1.18-3.55-1.91-5.76-15.16,3.14-30.13,5.84-44.88,9.41-22.4,5.42-43.81,13.44-62.89,26.74-13.7,9.56-25.45,20.94-32.16,36.62-4.26,9.95-5.98,20.23-2.65,31.46Zm393.49-132.28c-.39-1.38-.71-2.89-1.23-4.32-5.31-14.91-16.47-23.97-30.58-29.66-18.96-7.65-38.53-7.19-58.13-3.03-22.38,4.75-43.09,13.92-63.07,24.84-4.18,2.28-8.22,4.83-12.45,7.32,.79,1.53,1.39,2.68,1.96,3.78,5.75-2.07,11.17-4.16,16.67-5.98,21.4-7.11,43.48-10.4,65.93-11.3,18.34-.73,36.58,.3,54,6.67,9.08,3.32,17.78,7.68,26.9,11.69Zm-190.6,61.41c1.86,3.41,3.56,6.43,5.16,9.51,15,28.94,25.8,59.2,27.99,92.01,1.22,18.19-3.3,35.06-13.28,50.36-1.56,2.4-3.53,4.53-5.58,7.12,9.19-.85,16.86-4.21,23.15-10.29,15.77-15.24,19.6-34.3,15.9-54.99-3.77-21.12-11.8-40.58-24.52-58.16-8.64-11.94-16.13-24.71-24.21-37.23-1.27,.46-2.81,1.02-4.61,1.67Zm-33.6-85.27c-5.04-19.93-10.62-39.22-19.3-57.44-13.68-28.72-34.19-50.72-63.78-63.37-14.86-6.36-30.29-8.72-46.14-3.73-6.73,2.12-12.74,5.49-17.23,10.83,6.43-.92,12.78-2.44,19.18-2.64,16.5-.52,31.81,4.18,46.09,12.22,18.27,10.28,31.99,25.38,44.02,42.21,14,19.56,24.78,40.86,34.17,63.12,.94-.38,1.83-.74,2.98-1.21Zm-192.83,12.47c3.35-1.47,5.97-2.7,8.64-3.79,23.67-9.61,48.2-9.85,73.01-6.46,22,3.01,43.3,8.75,64.05,16.6,7.36,2.79,14.66,5.74,22.14,8.68,.75-1.98,1.41-3.72,2.29-6.04-10.2-5.54-20.11-11.41-30.42-16.45-28.6-13.97-58.27-23.48-90.76-19.93-11.21,1.23-22.03,3.76-31.87,9.5-7.16,4.18-13.23,9.5-17.08,17.87Zm253.7,49.5c.89,.41,1.56,.76,2.27,1.03,24.74,9.29,48.62,20.41,71.43,33.78,15.96,9.35,30.61,20.28,42.02,35.09,6.14,7.98,11.07,16.65,15.13,25.98,.43-1.32,.64-2.6,.65-3.88,.09-14.24-4.76-26.95-12.29-38.75-10.96-17.18-26.85-28.54-44.88-37.26-20.74-10.03-42.71-16.26-65.13-21.13-6.64-1.44-6.62-1.56-9.21,5.13Zm-75.82,11.27c-3.8,3.57-7.39,7.09-11.13,10.45-17.34,15.61-34.3,31.6-48.44,50.28-11.67,15.41-21.9,31.63-26.83,50.62-2.28,8.79-3.07,17.64,.24,26.39,1.44,3.8,3.57,7.08,7.66,9.38-.81-11.94,2.08-22.74,6.33-33.25,12.09-29.92,29.49-56.7,49.04-82.13,7.89-10.26,16.67-19.83,25.15-29.84-.6-.56-1.31-1.23-2.03-1.9ZM234.52,183.72c-3.47,9.3-3.36,18.09-1.36,26.92,4.11,18.11,15.04,31.66,29.03,43.16,7.75,6.38,15.76,12.1,26.2,13.11,1.86,.18,3.68,.9,5.47,1.53,12.05,4.25,24.08,8.54,36.12,12.81-1.04-.29-2.01-.97-2.99-1.62-19.39-12.7-38.57-25.7-55.87-41.22-14.67-13.16-26.84-28.18-33.87-46.88-.89-2.38-1.67-4.8-2.72-7.82Zm261.95,162.47c.19,.32,.22,.48,.3,.51,16.32,5.59,32.04,12.42,46.52,21.94,.96,.63,2.34,.86,3.52,.85,9.3-.1,18.59-.48,27.56-3.26,16.14-5,28.45-14.34,34.21-30.84,1.45-4.16,2.23-8.45,1.46-13.46-6.74,9.95-15.26,16.74-25.86,20.97-20.35,8.12-41.52,8.05-62.83,6.25-8.22-.7-16.4-1.92-24.88-2.94Zm-306.45-33.42c-.19,1.05-.37,1.62-.39,2.19-.45,12.78,4.2,23.61,12.79,32.83,11.32,12.15,26.07,17.18,41.91,19.79,.97,.16,2.23-.28,3.1-.85,11-7.16,22.83-12.62,35.08-17.24,1.94-.73,3.87-1.48,5.81-2.22-.82-.4-1.49-.39-2.15-.34-17.4,1.37-34.71,.74-51.65-3.66-18.21-4.73-33.41-14.24-44.49-30.52Zm205.36,79.87c-2.71,11.91-5.46,24.19-8.33,36.45-1.29,5.53-3.78,10.96-4.05,16.52-.81,16.65,1.42,33.04,6.59,48.95,3.97,12.19,9.53,23.42,20.02,31.49,4.74,3.65,10.01,6.09,16.58,7.36-8.26-9.86-14.22-20.28-18.61-31.62-5.68-14.7-8.94-30-9.99-45.64-1.16-17.3-1.54-34.65-2.19-51.98-.15-4.01-.02-8.03-.02-11.53Zm37.85-24.98l-.74,.45c.86,1.62,1.63,3.3,2.6,4.84,3.12,4.91,6.28,9.8,9.49,14.65,11.95,18.06,24.43,35.72,40.94,50.04,16.66,14.45,35.09,25.52,57.39,28.63,8.86,1.24,17.51,.22,25.16-4.81,2.73-1.79,4.88-4.47,7.71-7.13-9.66,0-18.34,.8-26.82-.15-25.96-2.89-48.54-13.86-68.62-30.34-17.71-14.53-31.58-32.29-43.78-51.48-1.03-1.62-2.23-3.14-3.35-4.71Zm136.4-194.9c.97,8.34,.48,16.43-1.47,24.47-4.61,19.01-14.53,35.02-27.91,48.98-6.31,6.58-13.09,12.72-19.07,18.49,6.39-.62,13.5-1.26,20.59-2.05,1.11-.12,2.31-.73,3.18-1.45,9.19-7.67,17.01-16.54,23.16-26.83,7.73-12.93,13.06-26.5,10.59-42-1.17-7.36-3.94-14.04-9.07-19.61ZM298.6,511.91c2.52-.19,4.99-.13,7.37-.58,18.18-3.47,32.43-13.57,44.44-27.08,11.37-12.78,18.56-27.95,22.9-44.32,5.55-20.92,10.36-42.04,15.45-63.08,.17-.71-.04-1.52-.08-2.28-1.29,1.73-1.91,3.47-2.51,5.23-7.66,22.4-14.81,44.99-25.01,66.41-8.91,18.72-20.57,35.53-37.09,48.36-8,6.21-16.75,11.45-25.47,17.34ZM385.68,116.56l-1.01-1c-4.16,3.66-8.88,6.85-12.38,11.06-15.87,19.08-20.53,41.48-18.45,65.69,.05,.63,.23,1.36,.59,1.85,3.98,5.35,8.01,10.66,12.36,16.43-2.32-16.62-2.34-32.7,1.12-48.74,3.47-16.08,9.68-31.03,17.77-45.29Zm-105.17,331.25c-19.96,7.18-40.39,10.2-61.72,4.01,.51,.85,.79,1.45,1.18,1.95,12.43,16.28,32.72,20.19,49.64,17.6,.82-.13,1.8-1.18,2.15-2.03,2.97-7.09,5.81-14.23,8.76-21.52Zm101.89-115.43c-1.84-1.25-3.02-2.67-4.17-2.64-.93,.02-2.68,1.97-2.52,2.74,.24,1.12,1.78,2.53,2.93,2.7,.9,.13,2.04-1.44,3.76-2.8Zm13.37-18.91c1.36-1.77,2.85-2.87,2.9-4.04,.04-.93-1.66-1.95-2.59-2.92-1.04,1-2.64,1.87-2.93,3.06-.21,.84,1.35,2.12,2.62,3.9Zm10.95,27.29c-1.89-1.36-3.09-2.86-3.93-2.68-1.17,.25-2.08,1.75-3.1,2.71,.93,.91,1.84,2.51,2.79,2.53,1.13,.03,2.29-1.3,4.24-2.57Zm.69,7.48c-1.48,1.9-2.98,2.99-2.88,3.9,.13,1.16,1.54,2.19,2.4,3.27,.96-.88,2.59-1.68,2.71-2.65,.13-1.11-1.1-2.38-2.23-4.52Zm-4.52,10.82c-1.82-1.34-2.89-2.74-3.9-2.69-1.08,.05-2.09,1.46-3.13,2.27,.96,1,1.79,2.56,2.92,2.82,.89,.21,2.15-1.18,4.11-2.41Zm16.26-31.85c1.25-1.94,2.59-3.11,2.54-4.22-.04-.87-2.01-2.5-2.72-2.31-1.16,.31-2.52,1.71-2.8,2.88-.17,.74,1.49,1.91,2.98,3.65Zm-27.3-6.6c-1.72-1.24-2.94-2.76-3.79-2.58-1.18,.26-2.07,1.8-3.08,2.79,1.07,.92,2.06,2.42,3.23,2.57,.89,.12,2.01-1.46,3.65-2.79Zm42.55,16.56c-1.37,1.86-2.76,2.97-2.86,4.18-.07,.85,1.63,1.85,2.54,2.78,1-.98,2.57-1.84,2.81-2.98,.19-.91-1.27-2.15-2.49-3.97Zm-21.38-25.34c1.13-1.8,2.48-3.01,2.33-3.98-.16-1.04-1.75-1.85-2.71-2.76-.95,1.05-2.47,2.01-2.64,3.17-.12,.84,1.56,1.94,3.02,3.57Zm4.17,36.08c1.2-1.91,2.52-3.1,2.41-4.12-.11-.95-1.79-2.42-2.73-2.38-1.02,.04-2.85,1.69-2.75,2.42,.17,1.21,1.59,2.25,3.06,4.09Zm-18.79-17.96c1.44-1.65,3-2.67,2.96-3.6-.05-1.07-1.55-2.06-2.41-3.09-1.09,.93-2.68,1.68-3.09,2.85-.25,.72,1.31,2.07,2.54,3.84Zm30.31,22.36c-1.99-1.26-3.18-2.6-4.09-2.43-1.05,.19-2.56,1.71-2.56,2.67,0,.95,1.59,2.67,2.5,2.67,1.09,0,2.18-1.44,4.16-2.91Zm9.26-26.35c-1.81-1.23-2.98-2.64-3.87-2.48-1.07,.19-1.89,1.73-2.82,2.68,1.01,.98,1.9,2.47,3.08,2.74,.74,.17,1.9-1.48,3.61-2.94Zm-11.88,4.57c-1.44,1.93-2.93,3.09-2.75,3.86,.27,1.15,1.72,2.01,2.67,3,.87-.96,2.26-1.82,2.46-2.9,.16-.86-1.13-1.99-2.38-3.96Zm-10.83,1.36c-1.91-1.22-3.22-2.66-4.01-2.41-1.14,.36-1.91,1.93-2.83,2.98,1.03,.81,2.04,2.22,3.11,2.26,.95,.04,1.97-1.42,3.73-2.83Zm-5.09-14.48c-1.82-1.3-2.99-2.77-3.89-2.62-1.18,.19-2.15,1.67-3.22,2.59,1.06,.89,2.03,2.32,3.2,2.49,.94,.14,2.1-1.25,3.91-2.45Zm-19.83,22.45c1.37-1.89,2.63-2.96,2.85-4.22,.11-.65-1.82-2.43-2.49-2.28-1.19,.29-2.69,1.51-2.98,2.62-.21,.8,1.33,2.06,2.62,3.87Zm-2.24,12.71c1.26-1.9,2.59-3.05,2.59-4.21,0-.78-1.89-2.21-2.88-2.17-.93,.04-2.48,1.61-2.51,2.55-.03,1,1.4,2.04,2.79,3.83Zm42-39.99c-1.92-1.37-3.1-2.82-3.91-2.63-1.14,.26-2.01,1.73-3,2.69,.94,.86,1.82,2.28,2.85,2.4,.96,.11,2.07-1.18,4.06-2.45Zm-15.7,50.25c1.29-1.9,2.66-3.03,2.57-4.04-.08-.97-1.67-2.51-2.6-2.52-1,0-2.83,1.53-2.8,2.34,.04,1.17,1.43,2.29,2.82,4.22Zm-32.24-46.57c-2.04-1.17-3.3-2.46-4.21-2.26-1.02,.23-1.74,1.82-2.59,2.82,.96,.81,1.92,2.26,2.89,2.27,1,.01,2.01-1.38,3.9-2.83Z"/></svg>