<?xml version="1.0" encoding="UTF-8"?><svg id="a" xmlns="http://www.w3.org/2000/svg" viewBox="0 0 800 600.7"><path d="M250.16,194.96c-7.55-11.37-14.98-23.79-19.54-37.68-2.85-8.66-4.14-17.46-1.95-26.53,3.27-13.5,13.86-22.87,27.6-24.77,16.58-2.3,30.61,3.78,43.59,13.06,17.7,12.65,30.65,29.6,42.23,47.71,.64,1.01,1.28,2.02,1.96,3,.11,.16,.41,.17,.33,.14-.28-9.83-1.01-19.78-.75-29.71,.51-19.47,2.38-38.83,10.76-56.79,2.45-5.25,5.68-10.38,9.52-14.7,11.52-12.96,28.73-14.92,43.26-5.39,12.07,7.91,18.52,19.77,22.85,33.06,4.48,13.74,5.96,27.93,5.4,42.25-.53,13.51-1.98,26.98-2.97,39.86,3.06-4.1,6.56-9,10.28-13.73,13.17-16.7,28.01-31.64,46.15-43.01,9.15-5.73,18.87-9.97,29.94-9.96,17.95,.01,32.53,12.89,35.29,30.7,2.43,15.69-2.12,29.74-9.94,42.86-4.77,8-10.59,15.36-15.62,22.57,6.47-1.3,13.72-2.95,21.04-4.18,12.85-2.17,25.8-3.18,38.61-.12,28.08,6.71,38.49,35.98,21.2,59.37-9.04,12.24-21.82,19.27-35.64,24.58-12.91,4.96-26.4,7.74-40.08,9.59-1.4,.19-2.78,.53-4.32,.83,8.99,3.14,17.85,6.01,26.54,9.3,14.29,5.42,27.87,12.27,39.73,22.06,7.7,6.36,14.23,13.67,16.15,23.96,2.34,12.58-2.35,22.38-12.49,29.63-11.59,8.3-24.87,9.52-38.53,8.24-21.52-2.02-41.19-10.11-61.59-19.31,2.69,3.15,4.81,5.58,6.87,8.07,14.05,17.02,26.37,35.11,33.87,56.05,4.25,11.87,5.85,23.88,1.36,36.2-6.14,16.82-23.02,23.19-37.18,21.45-16.53-2.03-29.4-10.9-40.91-22.22-10-9.84-17.82-21.33-25.08-33.24-.5-.82-.98-1.65-1.49-2.46-.1-.16-.34-.23-.91-.58,.31,4.37,.83,8.47,.86,12.58,.08,13.19,.9,26.46-.29,39.55-1.62,17.84-7.21,34.62-20.66,47.42-10.65,10.13-23.2,14.48-37.58,8.64-9.13-3.71-15.29-10.94-20.2-19.29-6.79-11.55-10.04-24.26-12.14-37.33-2.34-14.52-2.64-29.17-2.14-43.83,.22-6.32,.95-12.63,1.49-19.35-4.52,6.16-8.61,12.14-13.12,17.79-12.28,15.4-26.12,29.14-43.21,39.26-9.63,5.7-19.95,9.11-31.21,7.35-14.79-2.31-24.97-12.82-27.92-28.13-2.91-15.08,.75-29.01,7.69-42.29,7.25-13.88,17.22-25.67,28.36-36.54,.93-.9,2.15-1.5,3.24-2.24-.25-.26-.5-.53-.75-.79-7.77,2.24-15.5,4.62-23.32,6.68-14.46,3.81-29.18,6.19-44.13,4.62-6.08-.64-12.39-2.16-17.87-4.79-14.8-7.13-19.43-22.76-11.91-37.83,5.23-10.48,13.85-17.63,23.55-23.68,16.18-10.09,34.18-15.45,52.46-20,8.09-2.01,16.28-3.62,24.54-5.43-8.77-2.32-17.49-4.34-26.04-6.94-22.73-6.91-44.25-16.49-62.91-31.42-6.68-5.34-13.13-11.48-18.04-18.42-13.91-19.64-7.02-42.23,15.1-51.87,12.81-5.58,26.19-6.11,39.52-3.06,10.65,2.44,21,6.15,31.09,9.17Zm124.2,161.24c-.55,1.49-1.06,2.8-1.53,4.13-7.35,21.12-12.24,42.76-14.37,65.05-1.98,20.65-2.34,41.23,1.62,61.69,2.26,11.69,5.38,23.14,12.48,32.99,3.65,5.06,8.13,9.17,14.72,10.05,8.18,1.09,14.43-2.61,19.78-8.22,8.49-8.9,12.64-19.98,14.98-31.74,4.24-21.33,3.11-42.79,.57-64.18-2.55-21.43-7.46-42.4-13.84-63.02-2.21-7.15-.33-6.7-8.59-5.09-.1,.02-.17,.16-.49,.47,8.11,48.73,13.53,97.66-.56,147.08-.06-1.02-.16-1.5-.11-1.95,1.04-10.25,2.78-20.49,2.99-30.76,.37-17.76,.24-35.55-.55-53.29-.58-13.03-2.5-26.01-3.91-39-.7-6.43-1.56-12.85-2.37-19.26-.23-1.8-.73-3.37-3.33-2.34-.81,16.12-1.62,32.32-2.44,48.52h-.72c-.56-16.17-1.12-32.34-1.68-48.73h-3c-.45,3.33-.93,6.52-1.29,9.72-1.33,11.68-2.79,23.34-3.89,35.04-1.09,11.59-2.21,23.2-2.58,34.83-.52,16.44-.57,32.9-.4,49.35,.07,6.52,1.24,13.03,1.96,19.93-.44-1.27-.91-2.2-1.09-3.17-1.71-9.3-3.88-18.54-4.93-27.91-2.53-22.54-1.52-45.12,.76-67.61,1.73-17,4.18-33.93,6.35-51.22-1.13-.33-2.68-.78-4.54-1.32Zm-38.44-89.44c-7.08-5.82-13.75-11.5-20.62-16.91-21.25-16.76-43.83-31.36-68.92-41.8-14.41-5.99-29.25-9.97-45.05-9.03-7.53,.45-14.67,2.24-20.97,6.59-4.78,3.31-7.94,7.65-8.06,13.71-.16,8.32,4.13,14.65,9.55,20.27,14.02,14.54,31.36,24.03,49.81,31.48,21.83,8.82,44.52,14.75,67.86,17.96,9.57,1.31,19.23,1.93,29.17,2.89l.39-5.41c-1.32-.39-2.22-.69-3.15-.94-17.75-4.83-35.59-9.33-53.22-14.57-24.25-7.21-47.73-16.4-69.41-29.68-3.61-2.21-7.05-4.69-10.56-7.05,21.48,11.63,44.47,19.36,67.49,26.83,23.02,7.47,46.35,13.98,69.58,20.92,.65-1.77,1-2.65,1.29-3.54,.1-.33,.05-.7,.08-1.35-42.21-23.16-83.23-48.97-131.29-62.16,1.49,0,2.11-.13,2.65,.02,13.03,3.47,26.26,6.33,39.03,10.6,25,8.35,47.76,21.5,70.52,34.55,6.94,3.98,13.84,8.01,20.93,12.12,1.01-1.93,1.89-3.6,2.9-5.51Zm71.32-30.19c7.44-26.3,13.72-52.4,15.05-79.5,.78-16.02,.72-31.93-3.14-47.58-2.82-11.43-7.44-22-16.26-30.27-8.15-7.64-18.37-8.54-26.41-2.14-5.22,4.16-8.28,9.85-10.66,15.97-5.67,14.6-8.03,29.85-8.13,45.4-.16,24.96,.29,49.9,8.87,73.85,2.88,8.04,5.58,16.16,8.38,24.28,1.62-.43,2.86-.76,4.27-1.14-4.3-23.18-7.38-46.39-8.43-69.88-1.04-23.55,.29-46.81,6.06-69.71-.47,7.27-1.73,14.54-1.54,21.77,.61,22.79,1.3,45.6,2.88,68.35,1.07,15.51,3.75,30.9,5.55,46.36,.33,2.87,1.68,2.58,3.45,2.03,.39-13.52,.78-26.87,1.17-40.22l.6-.02c.96,13.37,1.92,26.73,2.88,40.05,3.28,.26,3.32,.27,3.55-2.02,1.43-14.44,3.25-28.85,4.17-43.32,1.67-26.39,2.18-52.8-1.23-79.12-.47-3.62-1.01-7.22-1.51-10.83,6.57,22.12,9.78,44.8,9.07,67.74-.71,22.85-2.99,45.64-4.61,68.78,1.42,.28,3.5,.69,5.94,1.16Zm24.9,12.16c1.54,2.45,2.81,2.57,4.86,.59,6.12-5.94,12.51-11.6,18.68-17.48,20.78-19.84,40.93-40.27,58.44-63.14,1.24-1.62,2.43-3.27,3.62-4.93,1.17-1.63,2.3-3.29,3.44-4.94-9.59,19.13-21.7,36.5-36.63,51.7-14.94,15.23-30.43,29.92-45.76,44.94,1.22,1.36,2.78,3.11,4.62,5.17,10.43-7.25,20.9-14.24,31.04-21.67,18.36-13.45,35.65-28.12,49.18-46.67,8.72-11.96,15.62-24.71,16.27-39.98,.83-19.45-12.94-29.96-31.5-24.03-8.45,2.7-15.79,7.44-22.81,12.69-20.5,15.34-36.11,35-49.6,56.51-8.18,13.04-14.64,26.89-19.73,41.61,1.94,1.01,3.78,1.98,5.74,3,.64-1.02,1.13-1.82,1.64-2.61,8.58-13.43,16.76-27.14,25.84-40.22,13.42-19.32,29.32-36.48,47.77-51.17,3.43-2.73,7.13-5.11,10.71-7.65-32.79,30.53-58.42,66.41-81.68,104.05,2.49,2.61,3.38,.59,4.68-.83,9.12-9.97,18.3-19.88,27.46-29.81l.7,.62c-8.93,11.35-17.86,22.69-26.97,34.26Zm4.25,90.79c9.21,10.32,18.26,20.25,27.09,30.4,16.64,19.12,32.6,38.77,44.64,61.25,3.4,6.35,6.37,12.94,9.54,19.42-24.04-39.41-55.11-73.06-85.18-107.61-1.84,1.5-3.28,2.67-5.06,4.11,10.29,19.09,20.29,38.18,30.8,56.99,10.55,18.88,22.74,36.68,37.13,52.9-33.97-29.08-52.95-68.29-72.25-107.28-2.62,1.32-4.92,2.49-7.29,3.68,.21,.93,.3,1.77,.58,2.53,6.33,16.91,12.09,34.07,19.19,50.66,8.45,19.72,19.59,37.98,35.02,53.17,9.33,9.19,19.78,16.88,33.25,18.75,11.4,1.58,21.1-2.13,23.81-13.24,1.24-5.1,1.4-10.78,.63-15.99-1.96-13.24-8.16-24.95-15.11-36.19-14.91-24.1-33.64-44.89-55.34-63.03-5.85-4.89-11.95-9.48-18.01-14.27-1.36,1.49-2.4,2.62-3.45,3.76Zm-93.66-2.87c-19.25,11.21-37.36,23.94-54.05,38.67-13.94,12.3-26.46,25.87-35.77,42.07-6.68,11.63-11.05,23.94-8.95,37.72,1.82,11.92,8.72,18.57,19.75,18.18,4.33-.16,8.82-1.22,12.86-2.83,10.63-4.25,19.46-11.37,27.63-19.19,22.87-21.87,39.49-48.07,52.29-76.82,3.1-6.95,5.95-14.01,8.96-21.12-1.54-.85-2.76-1.53-3.94-2.18-9.22,14.13-18.19,28.16-27.46,41.99-14.07,21-29.17,41.17-48.67,57.58-3.62,3.05-7.42,5.88-11.14,8.81,32.86-33.03,56.71-72.56,82.52-110.84-1.64-1.19-3.06-2.21-4.58-3.31-33.02,30.1-66.94,59.18-91.65,97.07,3.26-6.5,6.77-12.84,10.59-18.98,15.82-25.38,37.22-45.74,59.17-65.59,5.85-5.29,11.77-10.51,17.57-15.68-.25-.56-.29-.82-.44-.98-1.45-1.43-2.93-2.83-4.72-4.56Zm23.4-97.05c-10.68-26.76-22.9-52.25-40.16-75.09-10.19-13.49-21.28-26.04-35.85-35-9.55-5.87-19.64-9.93-31.26-8.42-10.42,1.36-16.25,7.78-16.51,18.3-.17,6.85,1.52,13.3,4.08,19.55,6.36,15.56,15.55,29.43,25.72,42.69,3.65,4.76,7.69,8.96,12.76,12.47,13.39,9.28,26.46,19.04,39.43,28.93,6.05,4.62,11.56,9.96,17.39,15.04,.69-1.01,1.35-1.98,1.82-2.66-36.4-30.38-68.78-63.76-89.49-106.91,2.62,3.31,4.76,7,7.22,10.46,14.42,20.31,30.71,39.08,48.1,56.86,11.58,11.84,23.87,22.98,35.8,34.47,1.68,1.62,2.91,1.83,3.85-.33-7.94-10.4-15.78-20.67-23.62-30.94l.83-.68c8.89,9.56,17.78,19.12,26.86,28.89,.54-.5,1.26-1.17,2.08-1.93-23.66-37.96-48-75.02-81.21-105.26,38.02,26.26,62.71,63.71,85.75,102.69,2.21-1.08,4.11-2.01,6.42-3.13Zm81.83,29.4l.57,.74c3.62-1.77,7.21-3.59,10.85-5.3,32.33-15.19,64.81-29.95,100.54-35.45,3.43-.53,6.9-.84,10.36-1.13,3.4-.29,6.81-.43,9.42-.59-45.29,8.42-87.17,28.21-129.65,46.93,.78,1.56,1.4,2.81,2.14,4.28,21.26-3.84,42.38-7.46,63.42-11.5,21.08-4.05,41.79-9.57,61.9-17.22-38.69,21.25-81.58,26.98-124.51,33.36,.36,2.61,.69,4.93,1,7.17,.41,.16,.63,.31,.85,.31,29.62,1.2,59.02-.46,87.95-7.31,14.74-3.49,29.1-8.14,41.75-16.83,7.74-5.32,14.23-11.77,17.25-21.03,3.47-10.64,.16-19.97-10.02-24.66-5.39-2.48-11.62-3.87-17.58-4.27-18.31-1.24-36.04,2.56-53.28,8.35-8.11,2.73-16.41,5.67-23.62,10.13-11.81,7.3-22.77,15.98-34.17,23.97-4.97,3.49-10.12,6.71-15.19,10.06Zm2.65,47.66c39.19,16.97,78.01,33.53,118.95,44.44-42.76-5.75-82.21-21.73-121.04-39.85-.7,1.47-1.14,2.43-1.61,3.39-.51,1.04-1.03,2.06-1.55,3.09,22.16,14.48,44.58,28.05,69.19,37.58,14.9,5.77,30.02,10.56,46.13,11.54,9.51,.57,18.71-.54,27.26-4.91,9.8-5.01,12.45-14.09,6.12-23.06-3.32-4.71-7.7-8.96-12.35-12.39-16.73-12.31-36.11-18.96-55.72-24.98-16.45-5.05-33.43-7.28-50.43-9.21-7.11-.81-14.29-.95-21.54-1.41-.22,2.21-.4,3.97-.57,5.71,43.26,8.85,86.13,18.47,124.62,41.21-40.93-15.45-82.81-27.53-125.89-36.17-.55,1.78-1.03,3.35-1.55,5.03Zm-121.77-14.29c-1.47,0-2.65-.06-3.83,.02-1.2,.08-2.38,.37-3.57,.42-20.42,.92-40.54,4.02-60.35,8.87-19.55,4.79-38.77,10.64-56.08,21.39-7.5,4.66-14.42,10.01-19.19,17.62-6.46,10.31-2.98,19.36,8.63,22.89,8.6,2.62,17.48,2.41,26.06,1.02,12.96-2.11,25.82-5.04,38.52-8.39,11.45-3.02,22.81-6.7,32.82-13.31,14-9.24,27.82-18.74,41.7-28.16,.6-.41,.99-1.13,1.48-1.7l-.66-.77c-2,.95-4,1.9-5.99,2.87-34.93,17.04-70.84,31.29-109.33,38.11-2.24,.4-4.5,.65-6.76,.93-2.19,.27-4.38,.49-6.2,.69,43.14-12.46,85.58-27.49,126.56-47.04-.59-1.41-1.12-2.67-1.8-4.3-20.49,5.39-40.83,10.3-60.91,16.14-19.94,5.8-39.61,12.53-59.22,18.79,37.51-19.11,77.54-31.23,119.2-39.14-.38-2.45-.7-4.54-1.07-6.93Z"/></svg>