<?xml version="1.0" encoding="UTF-8"?><svg id="a" xmlns="http://www.w3.org/2000/svg" viewBox="0 0 800 600.7"><path d="M197.92,265.74c-3.94-3.96-7.83-7.46-11.26-11.38-12.62-14.43-22.32-30.52-27.07-49.3-.41-1.62-.75-3.26-.97-4.91-1.02-7.68,1.1-11.76,8.12-15.08,9.28-4.38,19.25-6.21,29.34-7.37,19.21-2.21,37.73,.89,55.74,7.6,.28,.1,.59,.13,1.09,.23-2.16-5.38-4.5-10.49-6.29-15.79-7.56-22.45-9.51-45.25-3.73-68.43,.48-1.93,1.23-3.81,2-5.65,2.05-4.85,5.79-7.17,11.03-7.14,13.28,.06,25.7,3.86,37.71,9.08,21.62,9.4,38.91,24.08,52.1,43.6,.17,.25,.45,.44,.76,.72,1.23-6.76,2.07-13.48,3.69-20,6.29-25.41,18.6-47.34,38.36-64.82,1.25-1.1,2.65-2.04,4.01-3,4.67-3.28,9.3-3.07,13.97,.11,8.7,5.93,15.57,13.66,21.8,22.01,13.89,18.6,21.28,39.66,23.53,62.64,.05,.53,.11,1.05,.22,2.06,3.03-3.76,5.67-7.28,8.55-10.58,18.8-21.57,42.16-35.4,70.3-40.83,4.56-.88,9.31-.9,13.98-1.02,4.99-.13,8.87,2.31,10.34,6.97,2.1,6.64,4.23,13.43,4.96,20.31,2.43,22.8-1.55,44.61-11.78,65.2-.54,1.09-1.14,2.14-1.81,3.39,5.57-1.48,10.96-3.09,16.42-4.34,20.75-4.75,41.33-4.1,61.67,2.34,1.69,.54,3.34,1.22,4.96,1.95,9.46,4.29,11.72,8.7,9.5,18.88-5.05,23.16-16.95,42.4-33.88,58.72-1.35,1.3-2.76,2.55-4.3,3.98,6.1,1.91,11.97,3.5,17.66,5.58,17.52,6.4,33.07,15.99,46.04,29.48,9.9,10.3,9.96,15.67,.45,26.28-17.02,18.98-38.06,30.85-63.58,35.63,3.16,3.49,6.29,6.73,9.17,10.18,11.48,13.74,20.52,28.82,25.03,46.33,.39,1.51,.66,3.05,.93,4.58,.99,5.68-1.38,9.67-6.2,12.54-7.38,4.39-15.46,6.75-23.78,8.42-21.74,4.38-42.94,2.55-63.78-5.99,2.22,6.11,4.56,11.83,6.38,17.71,5.95,19.23,7.07,38.74,2.31,58.38-1.46,6.02-4.1,12.12-11.15,12.63-6.34,.46-13-.1-19.19-1.56-28.71-6.77-52.09-21.96-69.85-45.63-.32-.42-.7-.8-1.46-1.67-.49,4.89-.77,9.26-1.38,13.59-4,28.55-16.17,53.02-36.72,73.29-.48,.47-.97,.92-1.48,1.36-9.3,7.87-14.06,8-23.41,.1-21.44-18.11-34.3-41.22-39.52-68.67-.98-5.13-1.48-10.36-2.25-15.94-1.95,2.29-3.69,4.51-5.61,6.56-18.88,20.12-41.64,33.26-68.98,37.99-3.82,.66-7.76,.72-11.66,.89-5.72,.24-9.99-2.58-11.61-7.78-2.04-6.53-3.72-13.33-4.31-20.13-1.76-20.37,1.76-39.94,10.42-58.53,.13-.28,.12-.63,.21-1.11-5.19,1.39-10.22,3-15.36,4.08-21.05,4.46-41.85,3.61-62.26-3.54-2.4-.84-4.75-1.91-6.96-3.17-7.21-4.12-8.86-8.02-6.88-16.12,4.4-17.98,13.11-33.75,24.88-47.89,3.03-3.64,6.35-7.05,9.8-10.86-16.18-2.73-30.6-8.81-43.85-17.7-9.21-6.19-17.77-13.14-24.33-22.23-4.96-6.87-5.08-10.58,.22-17.12,11.47-14.15,26.07-24.32,42.62-31.53,7.49-3.26,15.58-5.16,23.39-7.67,.82-.26,1.64-.52,2.94-.93Zm135.3,41.61c.05,35.72,29.71,65.29,65.44,65.25,36.47-.04,66.82-29.41,66.52-64.98-.3-34.83-26.78-65.66-66.59-66.07-36.3-.38-65.42,29.16-65.37,65.8Zm64.75,243.63c1.34-1.83,2.29-3.02,3.12-4.29,17.41-26.81,23.14-56.54,20.28-87.83-2.11-23.15-5.97-46.14-9.08-69.19-.12-.86-.5-1.68-.98-3.26-1.25,17.11-5.11,32.64-12.54,47.92-7.12-15.08-10.51-30.3-12.09-46.01-1.5,7.15-2.78,14.26-4.1,21.36-3.87,20.7-7.49,41.42-7.93,62.56-.5,23.62,4.15,46.03,15.67,66.8,2.19,3.95,4.87,7.63,7.65,11.94Zm82.23-267.37l.38,.98c18.78-5.75,37.75-10.94,56.28-17.4,26.93-9.38,50.75-23.89,69.03-46.31,4.79-5.88,8.91-12.3,13.34-18.47l-.74-.99c-3.63-.33-7.26-.85-10.9-.96-21.8-.63-42.37,4.48-62.02,13.61-23.67,10.99-44.77,26.1-65.84,41.26-1.45,1.04-2.85,2.14-4.27,3.22-1.32,1.01-2.64,2.03-3.96,3.05,15.12-6.35,30.43-11.16,47.59-11.7-10.94,14.36-24.43,24.59-38.9,33.71Zm59.4-175.21c-5.48,2.35-10.46,4.2-15.18,6.56-23.42,11.67-41.05,29.64-55.17,51.31-12,18.43-21.49,38.2-30.75,58.09-1.2,2.57-2.3,5.19-3.45,7.78,11.2-13.22,23.09-25.43,39.06-34.22-3.58,17.76-10.89,32.97-19.89,47.56,.5-.09,.83-.31,1.1-.58,14.21-14.66,28.7-29.06,42.55-44.06,14.15-15.32,25.8-32.41,33.44-52,4.92-12.63,8.08-25.63,8.29-40.44Zm-232.72,189.29c-1.5-.36-2.29-.65-3.1-.73-11.3-1.2-22.61-2.26-33.9-3.57-16.64-1.94-33.32-3.22-50.08-2.52-21.32,.89-41.57,5.97-60.41,16.14-3.85,2.08-7.46,4.6-11.47,7.09,1.13,.91,1.7,1.43,2.33,1.85,1.76,1.18,3.49,2.4,5.32,3.46,14.61,8.49,30.27,13.79,47.09,15.83,15.84,1.93,31.63,2.01,47.22-1.49,13.88-3.11,27.6-6.95,41.39-10.42,3.87-.98,7.78-1.81,11.67-2.71-14.35-1.39-28.23-3.72-41.82-9.12,6.94-5.21,20.77-9.35,45.76-13.81Zm342.96,16.07c-3.94-2.46-7.32-4.8-10.91-6.77-26.96-14.8-56.1-17.99-86.16-15.74-12.33,.92-24.63,2.34-36.92,3.65-7.62,.81-15.23,1.84-22.84,2.77,15.02,2.04,29.25,6.29,43.16,13.73-13.56,5.67-27.25,7.88-41.18,9.27,1.05,.48,2.1,.79,3.16,1.01,10.54,2.26,21.13,4.33,31.62,6.82,8,1.9,15.75,5.1,23.82,6.37,17.66,2.77,35.37,2.11,52.84-1.91,15.42-3.55,29.9-9.38,43.41-19.21Zm-307.55,55.58c-.32,.3-.68,.57-.96,.9-14.67,17.65-29.86,34.91-43.86,53.08-13.03,16.91-23.09,35.67-28.75,56.5-2.43,8.93-3.97,17.98-4.02,27.76,1.57-.54,2.81-.89,4-1.38,26.79-10.87,47.06-29.25,62.08-53.74,11.1-18.08,19.12-37.64,27.44-57.05,2.3-5.37,4.5-10.78,6.74-16.17-11.3,13.9-23.43,26.68-39.28,36.83,2.38-17.39,8.97-32.2,16.61-46.73ZM260.65,108.94c.45,5.74,.55,10.76,1.27,15.7,2.97,20.31,11.08,38.57,22.6,55.41,10.75,15.72,23.75,29.52,36.83,43.25,6.96,7.32,13.94,14.62,20.91,21.93-8.28-14.69-15.07-29.85-18.27-47.23,16.07,8.87,27.81,21.46,38.73,35.09-.14-1.13-.44-2.16-.9-3.12-7.78-15.99-15.23-32.15-23.44-47.91-12.53-24.03-28.73-45.08-51.73-60.19-7.9-5.2-16.16-9.69-26-12.94Zm-80.76,92.79c.13,.76,.1,1.01,.21,1.18,.67,1.16,1.35,2.3,2.06,3.44,16.58,26.63,40.09,45.02,68.38,57.88,15,6.82,30.92,10.48,46.73,14.58,6.32,1.64,12.65,3.24,18.98,4.85-14.77-8.94-28.14-19.29-39.3-33.72,18.08,.68,34.04,5.26,49.35,12.63-.27-.51-.62-.86-1.02-1.14-12.73-8.82-25.27-17.93-38.23-26.39-22.57-14.71-46.01-27.62-73.04-32.32-11.27-1.96-22.57-2.46-34.11-1Zm276.11,167.53c7.83,14.73,14.08,29.87,16.29,47.3-15.44-9.83-26.71-22.84-37.67-36.28,.67,2.55,1.52,4.93,2.58,7.22,9.1,19.68,17.58,39.67,27.53,58.91,13.67,26.46,34.44,46.06,61.55,58.72,1.87,.87,3.83,1.55,5.85,2.35,0-3.97,.31-7.56-.05-11.08-2.12-20.74-9.3-39.72-20.17-57.41-11.97-19.48-26.72-36.79-41.76-53.88-4.68-5.32-9.43-10.57-14.15-15.86Zm-56.31-295.12c-1.3,1.76-2.47,3.21-3.5,4.75-16.17,24.39-22.18,51.45-19.57,80.24,1.71,18.82,5.1,37.48,7.78,56.2,.49,3.41,1.22,6.79,1.84,10.18,1.8-16.12,5.16-31.57,12.87-46.65,7.52,15.9,10.87,31.95,12.16,48.78,.23-.47,.37-.65,.41-.84,4.45-23.17,8.99-46.31,10.35-69.96,1.15-20.1-1.35-39.56-8.92-58.27-3.46-8.55-7.65-16.73-13.43-24.44Zm70.17,278.5l-.56,.71c13.46,10.81,26.69,21.93,40.45,32.35,23.3,17.65,48.29,31.88,78.02,35.52,8.95,1.1,17.91,1.38,27.28,.03-.64-1.22-1.1-2.19-1.63-3.12-14.96-26.37-37.17-44.89-64.32-57.32-20.58-9.42-41.83-17.39-62.78-25.99-.55-.23-1.19-.26-2.61-.55,13.86,9.72,25.52,20.46,35.08,34.41-17.96-2.17-33.74-8.16-48.91-16.04Zm-155.32-19.05c-1.44,.37-1.96,.44-2.42,.63-17.34,7.2-34.83,14.06-51.97,21.71-23.09,10.31-44.41,23.43-60.78,43.21-5.71,6.9-10.66,14.42-16.51,22.41,2.62,.3,3.91,.51,5.21,.6,26.15,1.71,50.3-4.79,72.95-17.63,15.79-8.95,29.91-20.19,43.75-31.8,7.65-6.42,15.16-12.99,22.74-19.5-15.5,7.22-31.14,13.48-49.07,15.65,9.52-14.71,21.79-25.35,36.1-35.28Zm80.48,219.49c-1.89-2.86-3.88-5.66-5.65-8.6-16.64-27.64-21.07-57.72-16.68-89.16,2.92-20.91,7.18-41.62,10.85-62.43,.98-5.55,1.99-11.1,3-16.74-1.51-.29-2.56-.49-4.26-.82-5.81,15.5-11.89,30.78-17.28,46.3-7.13,20.53-12.25,41.43-9.63,63.53,2.12,17.87,7.21,34.6,17.66,49.44,5.65,8.02,12.39,14.83,22,18.48Zm6.77,.09c7.7-3.5,13.66-9.07,18.56-15.74,18.21-24.77,23.9-52.68,19.26-82.64-4.15-26.85-13.57-52.25-23.29-77.49-.31-.82-1.63-1.25-2.47-1.86-.45,.95-1.38,1.97-1.27,2.85,.76,5.96,1.78,11.88,2.66,17.82,3.12,21.24,6.55,42.45,9.23,63.75,2.04,16.26,.82,32.49-3.12,48.46-3.95,16.03-10.44,30.93-19.56,44.84Zm-73.87-255.71c.14-.55,.28-1.1,.42-1.65-21.03-6.35-41.97-13.03-63.12-18.96-18.16-5.09-36.74-7.19-55.57-4.06-19.4,3.23-37.45,9.73-52.61,22.77-5.06,4.35-9.43,9.26-12.15,15.95,.75-.32,1.06-.41,1.32-.57,.66-.41,1.3-.85,1.95-1.28,27-17.48,56.7-24.06,88.53-21.67,12.22,.92,24.4,2.25,36.59,3.56,12.84,1.38,25.65,2.99,38.48,4.42,5.38,.6,10.77,.99,16.16,1.48Zm-66.28-193.1c.36,.59,.39,.73,.48,.77,.5,.25,.99,.5,1.51,.71,28.4,11.53,50.49,30.55,66.77,56.4,10.89,17.28,19.15,35.91,27.67,54.39,3.72,8.07,7.22,16.25,10.93,24.32,.35,.75,1.55,1.11,2.36,1.65,.34-.87,.75-1.72,1-2.62,.11-.39-.08-.88-.19-1.31-3.81-14.97-7.39-30.01-11.49-44.91-6.91-25.15-18.27-47.78-38.14-65.44-11.62-10.33-24.38-18.67-39.57-22.74-6.9-1.85-13.92-2.51-21.34-1.23Zm69.01,219.29c-1.31-.38-1.54-.53-1.73-.49-20.51,4.01-41.17,7.43-61.49,12.24-17.91,4.24-35.07,10.87-49.93,22.3-15.64,12.03-28.42,26.33-35.66,45-2.22,5.73-3.48,11.65-2.65,18.53,.86-1.25,1.38-1.93,1.81-2.65,9.32-15.7,21.12-29.23,35.35-40.67,13.94-11.2,29.64-19.3,46.06-26.04,19.01-7.8,38.16-15.29,57.21-22.99,3.46-1.4,6.76-3.2,11.01-5.23Zm321.55-13.23c-.81-1.43-1.54-2.92-2.45-4.29-5.75-8.64-13.5-15.08-22.49-20.04-27.74-15.3-57.18-18.65-87.59-10.78-19.98,5.17-39.56,11.92-59.31,18-3.31,1.02-6.55,2.25-9.82,3.38l.18,.85c4.59-.25,9.2-.27,13.76-.79,25.22-2.88,50.39-6.15,75.63-8.74,14.8-1.52,29.63-.69,44.22,2.55,17.07,3.79,33.07,10.18,47.86,19.85Zm-183.83,13.13c-.1,.4-.21,.81-.31,1.21,5.25,2.33,10.43,4.84,15.77,6.95,21.69,8.56,43.63,16.54,65.11,25.61,24.4,10.3,44.75,26.17,60.3,47.83,3.47,4.83,6.54,9.93,9.8,14.91,.44-3.4,.6-6.76-.08-9.94-3.19-14.96-11.41-27.21-21.55-38.26-15.57-16.96-34.98-27.58-56.88-34.1-18.82-5.6-38.09-8.91-57.42-12.02-4.91-.79-9.83-1.45-14.75-2.17Zm71.34-219.05c-8.23-1.87-15.37-1.29-22.41,.52-20.46,5.25-36.89,16.97-50.7,32.52-10.43,11.74-19.09,24.61-23.31,40.07-3.13,11.48-6.65,22.86-9.92,34.3-2.59,9.09-5.1,18.2-7.5,27.34-.27,1.01,.37,2.26,.59,3.39,.8-.71,1.62-1.41,2.39-2.16,.22-.22,.26-.6,.41-.9,11.13-22.78,21.88-45.76,33.52-68.28,9.1-17.61,21.82-32.55,37.42-44.94,11.68-9.28,24.59-16.36,39.53-21.86Zm-190.14,252.69c-1.9-2.63-3.36-.57-4.56,.28-20.52,14.53-39.89,30.41-57.19,48.75-15.5,16.43-25.93,35.54-31.26,57.41-3.3,13.55-3.74,27.12,1.67,40.36,.53,1.3,1.32,2.49,2,3.74,1.21-14.99,4.67-29.05,9.86-42.76,8.67-22.87,22.86-42.21,38.54-60.58,13.47-15.77,27.16-31.34,40.94-47.21ZM178.73,197.76c1.1-.05,2.21-.17,3.31-.14,9.89,.33,19.89-.13,29.65,1.22,21.81,3.01,41.84,11.43,60.08,23.55,21.88,14.54,43.32,29.76,64.87,44.79,2.03,1.42,2.79,.87,4.11-1.47-13.86-13.77-27.44-27.81-41.63-41.18-10.64-10.03-22.42-18.72-35.75-25.03-20.79-9.85-42.39-14.83-65.45-10.46-7,1.33-13.59,3.81-19.19,8.72Zm440.87-.84c-.98-.67-2.24-1.69-3.64-2.47-9.79-5.51-20.55-7.27-31.53-7.31-21.67-.09-41.76,5.96-60.28,17.04-18.64,11.15-34.07,26.18-49,41.73-6.31,6.58-12.39,13.39-18.41,19.92,1.1,2.36,2.19,2.68,3.78,1.19,1.05-.98,2.29-1.77,3.45-2.64,21.99-16.34,43.93-32.79,67.6-46.69,21.67-12.72,44.9-20.4,70.25-20.77,5.96-.09,11.91-.01,17.79-.01Zm-204.13,42.49c.47-1.01,.84-1.69,1.11-2.41,5.48-14.79,11.33-29.46,16.32-44.42,6.55-19.66,10.9-39.74,7.69-60.71-2.9-18.93-9.91-35.98-23.04-50.18-4.06-4.39-8.67-8.16-14.51-10.31,.5,1.47,1.22,2.77,2.01,4.02,13.73,21.59,20.81,45.15,20.66,70.76-.13,21.39-4.58,42.23-8.3,63.16-1.72,9.7-3.79,19.34-5.72,29.1,1.39,.36,2.45,.64,3.79,.98Zm116.19,272.28c-1.81-.86-2.98-1.42-4.16-1.96-28.23-12.83-50.34-32.49-64.64-60.05-8.43-16.25-15.47-33.23-22.9-49.98-3.87-8.72-7.2-17.67-10.89-26.48-.32-.76-1.44-1.18-2.19-1.76-.33,.94-.94,1.89-.91,2.82,.05,1.42,.5,2.83,.87,4.23,4.9,18.46,10.06,36.86,14.63,55.4,2.92,11.81,5.53,23.61,13.28,33.46,2.62,3.33,4.94,6.89,7.64,10.15,12.53,15.17,27.49,26.97,46.62,32.7,7.13,2.14,14.43,3.36,22.64,1.47Zm4.79-3.37c4.32-7.06,6.09-13.9,6.58-21.07,1.6-23.25-6.54-43.72-18.42-63.01-6.12-9.93-13.99-18.47-22.41-26.5-15.61-14.87-32.35-28.35-49.96-40.75-.71-.5-1.85-.4-2.79-.57,.22,.95,.13,2.16,.69,2.8,15.32,17.56,30.84,34.96,46.04,52.62,12.12,14.08,22.48,29.34,29.68,46.61,6.53,15.67,9.93,31.98,10.59,49.87ZM396.82,71.52l-.99-1.04c-4.21,3.34-8.6,6.47-12.59,10.05-20.84,18.71-33.07,67.18-22.24,94.32,7.97,19.97,13.77,40.81,20.49,61.29,.7,2.14,1.62,3.34,4.29,2.05-.55-3.99-1-8.05-1.67-12.08-3.35-20.29-7.02-40.54-10.04-60.88-2.5-16.79-1.7-33.54,2.54-50.07,4.04-15.8,10.63-30.4,20.22-43.63Zm-130.95,440.22c1.2,.34,1.83,.59,2.49,.68,.88,.13,1.78,.16,2.67,.2,8.38,.4,16.4-1.26,24.15-4.34,22.97-9.12,39.01-26.09,52.07-46.34,.81-1.26,1.07-2.9,1.43-4.4,.89-3.67,1.47-7.43,2.55-11.04,5.24-17.45,10.63-34.85,15.9-52.29,1.96-6.49,3.8-13.01,5.53-19.56,.23-.89-.53-2.05-.83-3.08-.75,.65-1.73,1.17-2.19,1.98-.87,1.54-1.42,3.25-2.12,4.89-9.4,21.74-18.25,43.74-28.36,65.14-12.54,26.55-31.8,47.18-58.13,60.78-4.82,2.49-9.76,4.76-15.15,7.38Zm-9.17-401.95c-5.74,10.86-6.75,22.5-5.45,34.36,1.95,17.77,9.14,33.61,18.83,48.41,1.01,1.54,2.42,2.98,3.96,3.98,13,8.38,24.48,18.62,35.93,28.93,11.35,10.22,23.04,20.07,34.63,30.04,1.07,.92,2.47,1.46,3.72,2.18l.84-1.01c-3.56-4.21-6.93-8.61-10.73-12.59-13.26-13.88-26.91-27.41-39.99-41.46-24.33-26.16-40.22-56.23-41.73-92.83Zm195.63,146.82c11.75-10.81,23.19-21.41,34.73-31.91,11.06-10.06,22.13-20.2,35.1-27.75,5.26-3.06,8.93-6.93,11.88-12.08,9.78-17.1,16.6-35,15.7-55.1-.32-7.28-2.14-14.19-6.03-21.2-.21,1.48-.39,2.32-.44,3.16-1.14,21.03-7.97,40.26-18.33,58.41-9.55,16.74-22.44,30.78-35.92,44.32-10.71,10.76-21.61,21.32-32.37,32.04-2.61,2.6-6.03,4.96-4.32,10.13Zm165.12,168.75c-1.35,0-1.78-.03-2.2,0-26.2,1.78-50.88-3.36-74.17-15.64-20.1-10.6-37.22-25.21-54.48-39.66-9.06-7.59-18.14-15.15-27.26-22.66-.5-.41-1.45-.28-2.19-.4,.2,.73,.29,1.51,.64,2.16,.31,.56,.89,.99,1.39,1.44,9.93,8.98,19.78,18.06,29.83,26.89,15.18,13.34,30.48,26.54,42.31,43.17,.8,1.13,2.06,2.08,3.31,2.72,19.06,9.71,38.91,15.37,60.54,11.51,7.84-1.4,15.19-4.03,22.28-9.53Zm-435.13,.18l-.32,.78c1.59,1.07,3.11,2.25,4.77,3.19,7.72,4.37,16.16,6.19,24.9,6.72,18.04,1.09,34.8-3.75,50.9-11.4,.96-.45,1.92-1.2,2.51-2.07,10.92-16.17,25.46-28.88,39.76-41.83,11.32-10.25,22.58-20.58,33.84-30.91,.94-.86,1.58-2.04,2.36-3.07l-.81-.77c-.88,.55-1.83,1.02-2.63,1.67-6.13,5-12.23,10.05-18.34,15.07-15.15,12.45-29.8,25.59-45.57,37.2-24.58,18.08-52.5,26.84-83.2,25.98-2.72-.08-5.44-.36-8.16-.55Zm441.37-221.46l-1.25-.18c-18.53,31.01-45.3,51.82-77.62,63.13,8.75-.91,19.05-3.12,29.24-2.7,9.45,.39,16.25-2.56,22.72-8.9,11.23-11,20.79-22.98,24.89-38.47,1.11-4.18,1.37-8.58,2.02-12.88Zm-448.33-.77c-.04,.39-.11,.78-.13,1.17-.36,7.76,1.84,14.96,4.98,21.92,6.88,15.24,18.19,26.8,31.1,36.97,.91,.71,2.44,.85,3.69,.87,6.24,.1,12.49-.11,18.71,.16,4.36,.2,8.69,1.01,13.03,1.55-14.86-6.44-28.3-15-40.42-25.64-12.18-10.7-22.22-23.18-30.96-37Zm477.88,114.19l-.64-.6c-26.21,17.02-54.87,24.54-85.65,22.53,7.3,4.58,14.8,9.32,22.35,13.98,.59,.36,1.52,.45,2.22,.31,6.32-1.26,12.75-2.17,18.91-4,15.7-4.67,29.6-12.31,39.37-26.02,1.36-1.91,2.3-4.12,3.44-6.19Zm-508.18-.25l-1.04,1.07c2.75,3.67,5.16,7.66,8.31,10.95,13.41,14.02,30.5,20.7,49.21,23.88,2.56,.44,5.78,1.31,7.75,.23,7.54-4.13,14.69-8.97,22.43-13.82-31.43,2-60.44-4.79-86.66-22.31Z"/><path d="M391.8,303c-7.21-3.61-14.41-7.26-21.64-10.83-7.08-3.5-14.2-6.92-21.29-10.4-1.05-.52-2.02-1.18-3.03-1.78l.42-.83c15.66,7.45,31.32,14.89,47.79,22.73-13.12-12.25-25.62-23.93-38.12-35.61l.92-.98c12.63,11.81,25.25,23.63,38.14,35.68-8.26-15.17-16.38-30.07-24.5-44.98l1.1-.6,24.1,44.23,.58-.21c-2.86-16.37-5.71-32.75-8.57-49.12l1.25-.21c2.87,16.34,5.73,32.67,8.6,49.01l.52,.23c3.03-16.71,6.05-33.43,9.08-50.14l.96,.17c-1.34,8.43-2.56,16.87-4.05,25.27-1.49,8.41-3.25,16.78-4.58,25.34,9.5-14.64,16.56-30.65,24.88-45.95l1.27,.68c-8.06,15.35-16.11,30.7-24.17,46.04l.26,.4c12.51-12.38,25.01-24.77,37.52-37.15l.57,.54c-3.92,4.26-7.76,8.61-11.8,12.77-4.2,4.32-8.52,8.53-12.91,12.66-4.29,4.04-8.74,7.92-13.12,11.87l.42,.79,48.11-25.14,.56,1.05c-15.76,8.32-31.52,16.63-47.28,24.95l.08,.38c17.3-3.26,34.61-6.51,51.91-9.77l.23,1.18c-17.88,3.4-35.76,6.79-54.5,10.35,18.85,2.02,36.93,3.96,55.02,5.9-.04,.38-.08,.76-.12,1.15-17.47-1.83-34.94-3.66-52.41-5.49l-.12,.32c16.15,6.89,32.29,13.79,48.44,20.68l-.54,1.29c-16.08-6.87-32.17-13.75-48.25-20.62l-.36,.5c12.74,10.82,25.49,21.64,38.23,32.46l-.88,1.03c-13.17-11.21-26.34-22.41-39.51-33.62l-.57,.31,28.01,43.21c-11.38-13.4-20.26-28.46-29.35-43.87,3.1,17.74,6.13,35.06,9.16,52.37l-1.12,.2c-3.04-16.97-6.08-33.95-9.12-50.92l-.71,.03c-2.46,16.98-4.91,33.95-7.37,50.93l-1.23-.18c2.49-17.09,4.97-34.17,7.46-51.26l-.47-.17c-7.71,15.54-15.42,31.09-23.13,46.63l-1.24-.62c7.84-15.77,15.68-31.54,23.52-47.31l-.43-.34c-12.21,12.71-24.42,25.42-36.63,38.13l-.97-.92c12.04-12.51,24.07-25.03,36.66-38.11-15.92,8.53-31.16,16.7-46.41,24.87l-.62-1.17c15.48-8.31,30.96-16.63,46.92-25.2-17.68,3.29-34.75,6.47-51.81,9.65l-.23-1.13c4.65-.91,9.29-1.84,13.95-2.72,11.9-2.24,23.8-4.44,35.69-6.72,.51-.1,.88-.9,1.32-1.38l-.49-.55Z"/><path d="M391.8,303l.49,.55c-8.18-.71-16.37-1.28-24.53-2.17-8.28-.9-16.53-2.09-24.8-3.18-.8-.11-1.58-.36-2.37-.55l.16-.96c17.01,2.1,34.03,4.2,51.04,6.3Z"/></svg>