<?xml version="1.0" encoding="UTF-8"?><svg id="a" xmlns="http://www.w3.org/2000/svg" viewBox="0 0 800 600.7"><path d="M547.92,361.97c3.45,10.64,7.76,20.73,9.92,31.26,4.59,22.31,.24,43.67-9.77,63.92-.68,1.38-2.73,2.38-4.35,2.97-29.77,10.79-58.51,9.7-85.81-7.61-.6-.38-1.27-.65-1.92-.95-.11-.05-.28,.02-.75,.07-3.78,12.88-9.61,24.87-18.1,35.56-11.59,14.59-26.27,25.15-42.8,33.32-1.23,.61-3.35,.32-4.69-.32-29.37-14.02-50.49-35.47-60.17-67.15-.12-.39-.45-.72-.85-1.33-9.45,6.12-19.56,10.72-30.55,13.12-20.25,4.41-39.95,2.32-59.08-5.47-1.19-.48-2.48-1.59-2.99-2.73-12.85-28.56-15.29-57.41-2.11-86.62,1.06-2.35,2.3-4.61,3.66-7.31-2.36-.83-4.59-1.64-6.82-2.41-32.13-11.02-52.96-33.73-66.25-64.18-.51-1.17-.65-2.93-.15-4.05,10.82-24.41,26.17-44.95,50.66-57.15,7.25-3.61,15.07-6.08,22.11-8.87-3.03-8.67-6.81-17.49-9.17-26.67-5.97-23.18-2.38-45.56,7.34-67.12,.65-1.44,2.48-2.76,4.06-3.31,30.43-10.73,59.95-10.26,87.96,7.54,.35,.22,.81,.26,1.24,.39,9.9-32.03,30.67-54.34,60.86-68.18,1.48-.68,3.73-1.03,5.08-.39,26.37,12.34,46.37,31.05,57.47,58.43,1.33,3.27,2.32,6.69,3.57,10.33,9.34-6.3,19.48-10.38,30.33-12.91,20.56-4.78,40.49-2.27,59.98,5.03,1.59,.59,3.03,2.57,3.78,4.24,13.17,29.5,13.49,58.88-1.19,88.03-.64,1.28-1.27,2.57-1.87,3.87-.11,.23-.01,.55-.01,1.07,4,1.23,8.14,2.24,12.09,3.77,29.62,11.5,49.03,33.17,61.28,61.89,.39,.93,.52,2.28,.15,3.17-12.8,30.75-33.48,53.54-65.59,64.73-2.42,.84-4.9,1.5-6.57,2Zm-197.74-64.42c-1.23-.15-2.35-.4-3.47-.4-13.94,.03-27.89-.06-41.83,.25-5.57,.12-11.25,.59-16.65,1.87-25.35,6.02-39.63,23.26-46.68,47.36-2.92,9.99-.79,15.18,7.8,20.95,20.23,13.61,49.28,12.53,67.86-3.38,9.25-7.91,17.4-17.11,25.99-25.78,5.72-5.78,11.35-11.64,17.04-17.49-2.07-2.69-3.86-5.03-5.64-7.35-33.57,22.65-55.6,26.76-67.18,24.57,17.49-19.07,40.48-26.41,64.54-31.49l-1.78-9.12Zm73.83,23.32c11.42,12.01,22.91,24.09,34.4,36.17,14.02,14.75,30.81,22.12,51.43,19.46,10.8-1.39,20.45-5.39,28.84-12.4,4.17-3.48,5.64-7.92,4.48-13.1-.9-4.04-1.82-8.16-3.4-11.96-10.25-24.76-27.68-40.22-55.47-41.32-13.93-.55-27.89-.48-41.84-.53-8.58-.03-8.58,.1-10.4,8.19-.06,.25,.02,.52,.06,1.13,23.89,5.19,46.86,12.54,64.9,32.4-26.96,1.19-47.03-12.84-67.78-25.13-1.81,2.46-3.49,4.75-5.21,7.09Zm9.78-30.06c.88,.09,1.58,.23,2.28,.23,16.54-.02,33.08,.3,49.6-.27,6.47-.22,13.24-1.54,19.25-3.93,22.01-8.74,33.08-26.49,37.96-48.72,1.27-5.77-1.51-10.25-6.07-13.78-22.31-17.28-53.74-16.12-74.18,3.33-12.81,12.18-24.98,25.03-37.43,37.59-.58,.58-1.03,1.28-1.57,1.97,1.97,2.46,3.81,4.75,5.24,6.54,10.84-5.79,21.15-11.77,31.86-16.88,10.84-5.18,22.38-7.8,35.5-6.8-18.2,18.79-40.9,25.53-64.35,30.91,.64,3.3,1.24,6.35,1.92,9.84Zm-72.98-25.11c-13.15-12.76-26.1-25.8-39.58-38.28-12.15-11.24-26.76-16.49-43.42-15.01-11.98,1.06-22.98,4.89-32.17,12.94-3.83,3.35-5.18,7.63-4.27,12.8,1.59,9.04,4.84,17.42,9.74,25.1,9.14,14.33,21.49,25.18,38.77,26.54,19.72,1.56,39.63,.82,59.45,1.06,.24,0,.48-.27,.75-.44,.64-3.14,1.28-6.3,1.96-9.65-23.63-5.21-46.71-11.14-64.26-30.74,13.03-.96,24.61,1.47,35.42,6.61,10.81,5.14,21.16,11.26,31.71,16.95,1.67-2.24,3.36-4.51,5.89-7.89Zm5.15,60.81c-8.2,7.51-16.36,14.38-23.77,21.98-7,7.17-14.02,14.57-19.6,22.83-13.38,19.83-12.17,47.17,1.84,66.42,3.5,4.81,7.87,7.53,13.91,6.75,26.41-3.41,49.31-28.17,50.16-54.63,.48-14.94,.29-29.9,.39-44.85,.02-3.26,0-6.52,0-9.74-2.03-.27-3.45-.45-4.86-.65-1.35-.19-2.69-.41-4.15-.63-4.54,23.19-11.91,44.49-29.57,61.71-1.74-25.07,11.15-44.46,21.99-64.7-2.62-1.85-5.05-3.57-6.34-4.48Zm67.96,69.29c-17.9-17.47-24.51-39.32-29.49-62.06-3.17,.5-5.97,.94-8.9,1.4-.08,1.27-.2,2.4-.2,3.53,0,15.68-.12,31.37,.06,47.04,.35,29.01,19.91,52.39,48.47,58.39,6.82,1.43,12.05-.44,16.13-6.12,15.82-21.99,15.52-49.64-1.64-70.68-8.53-10.46-18.13-20.04-27.3-29.97-3.76-4.08-7.66-8.03-11.45-12-2.73,1.91-5.14,3.59-7.17,5.01,5.35,10.59,10.91,20.64,15.57,31.09,4.7,10.55,6.85,21.77,5.91,34.35Zm-22.73-138.48c2.85,1.9,5.32,3.56,8.07,5.39,12.47-12.96,25.34-25.36,37.07-38.75,18.03-20.6,19.98-47.39,6.15-69.92-5.83-9.49-10.46-11.55-21.21-8.92-22.39,5.49-43.58,24.62-45.12,49.52-.98,15.77-.6,31.61-.81,47.43-.05,3.57,0,7.14,0,10.68,3.07,.55,5.72,1.02,8.07,1.43,3.7-11.41,6.92-22.69,11.02-33.64,4.1-10.95,10.45-20.62,19.56-29.43,1.33,25.84-10.68,45.85-22.79,66.2Zm-22.37-4.66c.12-.99,.31-1.83,.31-2.67-.01-15.09,.11-30.19-.16-45.28-.1-5.42-.49-11-1.88-16.21-6.29-23.58-22.25-37.46-45.41-43.42-9.91-2.55-13.56-.79-19.17,7.7-14.12,21.38-12.32,51.35,4.82,70.46,9.97,11.12,20.77,21.5,31.11,32.29,2.17,2.26,3.99,4.85,5.94,7.25,3.61-2.44,6.06-4.09,8.45-5.7-11.42-20.31-24.09-39.96-22.77-65.57,18.63,17.35,25.75,39.33,30.57,62.41,3.03-.47,5.55-.85,8.18-1.26Zm2.83,69.53c15.75,.06,28.72-12.39,28.78-27.63,.07-15.34-12.75-28.29-28.19-28.47-16.06-.19-28.86,12.18-28.87,27.93-.02,15.45,12.7,28.12,28.28,28.17Z"/></svg>