<?xml version="1.0" encoding="UTF-8"?><svg id="a" xmlns="http://www.w3.org/2000/svg" viewBox="0 0 800 600.7"><path d="M296.3,377.11c-6.2,1.84-11.48,3.67-16.9,4.98-21.03,5.09-42.02,5.98-62.73-1.58-15.95-5.83-28.52-16.2-38.9-29.44-1.46-1.86-1.5-3.7-.59-5.75,12.67-28.31,32.8-47.79,64.07-54.08,16.87-3.39,33.84-3.24,50.86-1.43,4.62,.49,9.24,1.04,14.09,1.06-2.23-1.33-4.48-2.62-6.68-3.99-30.86-19.18-50.26-46.53-57.93-82.01-2.77-12.83-2.49-25.88-.79-38.87,.52-3.99,1.61-4.74,6.18-4.97,27.64-1.4,51.45,7.85,72.12,25.88,8.76,7.65,16.59,16.15,23.95,26.07,0-1.69,.01-2.81,0-3.92-.25-17.33,1.2-34.43,7.06-50.91,8.31-23.34,24.27-39.58,46.46-50.08,2.76-1.3,4.92-1.1,7.48,.62,21.7,14.53,37.38,33.49,43.46,59.36,3.71,15.76,3.06,31.63,.01,47.45-.71,3.7-1.51,7.39-2.45,11.96,3.93-5.3,7.15-10.07,10.78-14.5,15.96-19.45,35.03-34.44,59.79-41.17,14.06-3.82,28.29-3.75,42.61-2.22,2.78,.3,4.35,1.73,5.05,4.62,7.92,32.59,2.16,61.99-20.75,87.11-7.34,8.05-15.59,15.27-23.21,22.67,4.58,.44,9.92,.74,15.2,1.49,24.65,3.51,47.35,11.38,65.29,29.67,11.47,11.69,17.34,26.09,20.86,41.85,1.48,6.61-.69,10.34-5.71,14.19-12.95,9.95-27.04,17.13-43.22,19.86-17.36,2.93-34.31,1.22-50.86-4.7-.49-.17-.98-.35-2.15-.77,4.12,4.43,7.87,8.24,11.36,12.26,14.18,16.32,23.69,34.9,26.36,56.55,2.21,17.95,.09,35.45-6.35,52.41-1.2,3.16-3.31,3.76-6.33,3.65-26.4-.92-48.26-11.67-66.55-30.36-8.86-9.04-16.29-19.14-22.75-29.99-.26-.44-.56-.85-1.12-1.68-.32,5.84-.46,11.19-.92,16.52-2.46,28.76-14.49,52.94-35,73.09-2.58,2.53-4.96,3.01-8.39,1.65-26.49-10.51-42.42-29.86-48.45-57.52-2.31-10.57-2.66-21.28-1.45-32.03,.07-.64,0-1.29,0-2.64-2.13,2.97-3.89,5.48-5.72,7.95-12.68,17.09-28.82,29.06-50.11,32.85-16.31,2.9-32.37,1.25-48.07-4.07-2.11-.71-3.23-1.94-3.48-4.14-2.85-25.35,2.12-48.89,16.04-70.44,7.29-11.3,16.21-21.17,26.01-30.29,.6-.56,1.22-1.1,2.44-2.2Zm138.49-25.93c1.42,.95,2.8,1.96,4.25,2.85,3.89,2.37,7.79,2.32,9.85-.06,1.83-2.11,.98-5.98-1.4-9.54-5.31-7.96-13.26-10.38-22.32-11.19,4.8,4.39,9.47,8.67,14.15,12.95l-.36,.56c-4.76-2.7-9.51-5.41-14.27-8.11,.43,1.39,1.24,2.23,1.98,3.13,2.12,2.55,4.2,5.11,6.3,7.67-3.37-3.07-6.73-6.13-9.35-8.52,2.58,3.53,5.8,7.93,9.02,12.34l-.48,.31c-4.57-3.86-9.15-7.73-13.72-11.59,1.7,4.86,3.97,9.24,5.81,13.78,2.1,5.17,6.04,7.84,11.21,8.77,1.49,.27,3.7-.22,4.64-1.24,.76-.82,.64-3.23-.01-4.44-1.47-2.72-3.5-5.13-5.31-7.67Zm-47.7-225.23c-.44-.07-.59-.13-.64-.09-1.41,1.18-2.84,2.33-4.2,3.56-10.99,9.95-20.48,21.07-24.95,35.49-8.35,26.92-7.16,53.66,2.87,79.93,3.25,8.51,8.1,16.21,13.8,22.35-2.71-8.82-6.37-18.09-8.29-27.72-1.94-9.71-2.55-19.75-3-29.67-.47-10.23,2.24-25.69,4.21-28.84-3.51,27.6,3.37,70.99,13.58,83.05-5.23-13.64-7.67-27.1-7.81-40.94-.14-13.81,1.75-27.29,7.17-40.12-.59,4.71-1.57,9.36-2.13,14.06-.55,4.62-.82,9.29-.94,13.95-.13,4.77-.14,9.56,.16,14.32,.31,4.75,.88,9.5,1.69,14.18,.79,4.57,1.8,9.12,3.13,13.56,1.32,4.38,3.17,8.6,4.79,12.9-2.85-16.15-3.84-42.07-1.14-51.78,.45,5.92,.75,11.22,1.28,16.49,.53,5.28,1.1,10.57,1.98,15.79,.85,5.06,2.12,10.04,3.13,14.69,1.57-22.91,3.15-46.02,4.74-69.13l1.53,.07v70.42c6.2-13.33,7.91-27.6,10.45-41.67,.86,13.43,.57,26.76-2.76,39.88,8.08-24.83,9.07-50.5,9.42-76.32,.88,4.77,1.61,9.56,1.87,14.37,1.33,23.81,.05,47.37-7.26,70.32,13.96-27.28,17.01-56.78,17.68-86.78,4.14,27.7,1.42,54.62-9.69,81.43,14.01-18.43,22.31-52.85,18.93-76.92-2.99-21.28-13.97-38.48-27.74-54.3,3.37,14.42,5.67,28.89,4.87,43.72-2.21-16.68-6.37-32.87-11.47-49.23-1.46,12.34-2.87,24.16-4.27,35.98l-1.42-.11v-36.24l-.79-.08c-4.28,14.6-8.57,29.2-12.85,43.8,.05-13.89,3.48-27.15,7.69-40.26l-1.13-.41c-5.09,10.43-10.18,20.86-15.56,31.87,2.41-12.93,6.56-24.56,13.06-35.57Zm215.43,209.28c-9.78-15.82-22.8-27.7-40.5-34.02-9.32-3.32-18.92-5.3-28.77-6.22-17.58-1.63-34.86-.45-51.62,5.46-4.14,1.46-8.1,3.41-12.15,5.14l.3,.83c11.28-2.99,22.77-4.23,34.39-4.29,11.74-.07,23.38,.76,34.88,3.38,12.62,2.87,28.19,8.42,32.72,12.17-31.74-10.56-63.34-13.53-95.59-6.33,24.54-3.01,48.41-.9,71.28,9.05-27.1-5.73-54.24-8.93-82.45-1.6,27.36,12.23,55.72,17.86,84.08,23.49-30.71,.42-59.64-7.94-88.36-17.56,23.99,14.93,50.78,21.77,77.96,27.56-27.57-.01-53.3-7.52-78.05-19.14,13,9.69,27.33,16.71,42.37,22.36,14.94,5.61,30.2,9.99,46.08,11.95-25.21,1.09-48.4-6.52-71.03-16.68,13.23,10.07,27.32,18.33,42.89,24.11,17.41,6.46,34.85,6.9,52.57,1.72,8.29-2.42,16.19-5.73,23.66-10.14-11.03,.68-21.99,1.01-33.29-1.1,11.57-1.05,22.66-2.06,33.75-3.07l-.07-.5c-9.09-2.09-18.18-4.19-27.27-6.28,.08-.32,.15-.64,.23-.97l33.43,2.04,.05-.47c-9.27-3.77-18.53-7.55-27.8-11.32l.35-1c9.94,2.51,19.89,5.02,29.83,7.52l.22-.27c-8.27-5.51-16.53-11.02-24.8-16.52,.15-.3,.3-.61,.45-.91,7.3,3.33,14.59,6.66,22.77,10.39-7.28-6.81-13.9-13-20.52-19.19l.42-.58c5.83,3.64,11.67,7.28,17.59,10.98Zm-87.63-92.27c-15.45,23.06-35.11,41.34-61.09,53.46,28.71-5.65,50.08-22.28,70.1-41.22-7.52,12.03-17.68,21.45-28.77,30.17,3.85-.45,8.17-.3,11.02-2.28,13.29-9.23,24.6-20.56,33.4-34.27,10.42-16.22,13.82-34.21,13.57-53.17-2.22,3.93-4.1,8.01-6.22,11.96-2.15,4.01-4.38,7.98-6.84,11.8-2.47,3.82-5.15,7.51-7.96,11.09-2.73,3.47-5.73,6.72-8.62,10.07,11.33-17.82,20.89-36.39,29.16-55.7-7.43,11.18-16.77,20.52-27.14,28.94,7.17-9.68,14.35-19.35,21.52-29.03l-.5-.49c-9.26,6.56-18.52,13.12-27.79,19.68-.29-.35-.59-.71-.88-1.06,7.33-6.61,14.66-13.23,21.99-19.85l-.09-.48c-11.05,5.17-22.11,10.33-32.98,15.41,9.13-8.57,19.94-14.88,31.94-19.41-5.15,.37-10.2,.96-15.19,1.9-16.47,3.1-31.33,9.63-44.07,20.76-15.58,13.61-27.53,29.99-36.95,48.27-3.39,6.58-6.19,13.47-9.25,20.22l.71,.38c16.48-27.25,36.71-50.89,64.41-67.32-22.25,19.06-41.73,40.46-56.15,65.48,7.5-7.88,15.1-16.35,23.22-24.28,8.13-7.93,17.56-14.17,27.83-19.11-6.29,5.97-13.01,11.44-19.28,17.36-6.38,6.03-12.55,12.32-18.42,18.85-5.69,6.34-10.56,13.35-14.72,20.78l.85,.87c25.43-18.12,50.85-36.25,76.28-54.37,.26,.35,.51,.7,.77,1.04-23.06,18.64-46.12,37.28-69.56,56.22,12.97-5.39,23.67-13.68,34.53-21.7l.62,.79c-9.52,8.22-19.04,16.44-27.92,24.11,21.85-11.34,41.13-27.38,58.45-45.92Zm-287.39,79.9c-10.55,5.13-21.1,10.25-32.41,15.74,7.82-1.26,14.72-2.38,21.62-3.49l.16,.91c-7.82,2.91-15.65,5.82-23.47,8.73l.13,.63h27.91l.12,.94c-8.78,1.56-17.56,3.11-26.34,4.67l-.21,.64c11.79,2.05,23.58,4.11,34.98,6.09-10.52,1.57-21.36,.3-32.72-2.05,36.36,27.35,85.06,23.84,116.64,4.25-4.7,1.27-9.04,2.56-13.43,3.59-4.42,1.03-8.87,1.96-13.36,2.63-4.39,.66-8.82,1.11-13.25,1.32-4.55,.22-9.12,.2-13.67,0-4.36-.18-8.7-.72-13.05-1.1l.06-.84c13.71,.65,27.31-.12,40.74-3.06,13.38-2.93,26.31-7.09,38.4-13.73-18.14,5.45-36.52,7.92-55.44,5.2,23.94-1.08,46.95-6.07,68.77-16.08-31.08,9.24-62.47,13.47-94.63,6.62,30.67,1.72,60.51-2.36,89.54-12.2l-.07-1.05h-63.49l-.04-.87c19.48-4.5,39.13-7.7,59.24-7.64-24.93-7.83-50.04-4.19-75.17-1.11,25.52-8.56,51.56-11.17,78.22-7.16-29.64-8.95-59.64-7.77-89.77-3.55,28.61-9.44,57.61-10.69,87.06-4.16-.81-.55-1.64-.9-2.49-1.19-19.97-6.77-40.49-8.9-61.49-7.85-21.29,1.07-40.34,7.47-56.1,22.25-3.59,3.36-6.96,6.96-10.42,10.45l.51,.68c8.64-3.89,17.34-7.56,26.91-8.22Zm228,45.43c22.49,18.71,39.67,41.19,49.4,67.65-7.87-11.1-16.03-23.43-25.04-35.09-9.27-12.01-27.03-26.62-33.98-28.73,9.79,11.37,18.84,23,26.51,35.61-9.28-8.88-18.56-17.75-26.38-25.24,13.9,20.09,28.95,41.85,44,63.6-20.49-18.67-36.78-40.81-52.96-63.08,9.27,26.05,24.5,48.53,41.92,69.72-11.58-8.87-20.54-20.08-29.36-31.55,.71,3.86,1.01,7.97,2.83,11.24,9,16.22,19.87,31.05,34.16,43.12,14.12,11.93,30.36,19.28,49.45,22.76-17.19-11.26-32.02-23.83-44.44-39.05,7.2,5.48,14.14,11.29,21.47,16.57,7.39,5.32,15.16,10.1,22.76,15.12l.19-.47c-6.45-8.41-12.89-16.83-19.87-25.94,6.53,5.84,12.33,11.03,17.86,15.98-4.22-10.92-8.67-22.42-13.12-33.91l.84-.45c3.28,5.81,6.79,11.5,9.78,17.45,2.93,5.84,5.34,11.94,8.34,18.76-.28-5.47-.21-10.05-.8-14.55-1.44-11.04-2.26-22.28-5-33.02-5.59-21.9-19.12-38.87-36.22-53.11-4.42-3.68-9.37-6.7-14.08-10.03l-.69,.8c17.23,14.61,31.08,31.61,38.71,53.73-5-7.87-9.23-15.61-14.52-22.54-5.24-6.87-11.39-13.08-17.44-19.28-6.39-6.55-17.71-14.48-21.22-15.23,14.09,12.06,26.59,24.95,33.33,42.33-12.16-17.98-27.32-32.69-46.4-43.19Zm-76.21,116.12l-.83,.36c-1.59-5.92-3.53-11.76-4.67-17.77-1.15-6.05-1.76-12.23-2.11-18.38-.35-6.04-.08-12.11-.08-18.17-5.72,17.05-6.44,34.12-1.38,51.43,4.81,16.42,19.88,34.09,30.84,40.19-3.2-7.83-6.52-15.95-9.84-24.07l.83-.34c4.91,8.7,9.82,17.4,14.59,25.85-1.44-11.14-2.88-22.28-4.32-33.42l1.04-.15c2.82,10.89,5.64,21.78,8.46,32.67l.77-.16c.57-13.24,1.13-26.49,1.7-39.73,2.51,10.41,3.22,21,2.9,31.71l.82,.03c2.76-11.22,5.52-22.44,8.28-33.67l.82,.09c-1.33,10.7-2.65,21.41-3.92,31.64,15.12-21.57,24.61-48.11,19.47-80.05-2.74-17.01-7.81-33.1-19.39-46.48,4.87,13.17,7.36,26.84,9.33,40.65,1.64,11.44,1.64,36.41-.83,41.54-1.18-24.38-2.62-48.79-11.42-72.01,.37,3.42,1.05,6.79,1.53,10.19,.5,3.54,.95,7.09,1.16,10.66,.19,3.35,.04,6.71,.04,9.98-2.01-9.03-4.02-18.06-6.03-27.09-.38,.07-.76,.15-1.14,.22,5.14,22.67,8.65,45.45,5,68.72-1.71-27.57-2.78-55.25-16.21-80.45,1.29,20.85,.33,41.57-2.52,62.3l-6.79-63.37c-.28,0-.57,0-.85,0-2.67,7.34-3.96,14.99-4.59,22.75-1.63,19.93,1.01,39.63,3.59,59.31,.7,5.35,1.52,10.68,2.28,16.02-9.93-30.88-12.76-62.37-8.08-94.51-3.92,9-5.18,18.55-5.47,28.14-.3,9.75-.15,19.56,.68,29.27,.8,9.43,2.71,18.76,4.13,28.14-7.38-18.1-9.81-37.05-9.86-56.42-4.29,21.62-2.51,43.04,2.06,64.38Zm-27.98-118c-22.08,16.98-39.01,38.68-55.66,60.63,12.6-25.7,30.5-47.29,51.42-66.63-4.34,2.3-8.55,4.71-12.44,7.56-17.79,13.05-33.44,28.24-46.15,46.36,8.98-20.56,24.03-36.12,41.28-49.91-19.74,9.67-35.77,23.55-47.99,41.74-11.3,16.81-22.15,48.84-20.44,60.13,2.66-4.61,5.15-9.29,8-13.74,2.86-4.46,5.88-8.85,9.19-12.99,3.24-4.05,6.93-7.73,10.43-11.58l.68,.57c-9.57,12.42-17.53,25.77-23.82,40.75,7.29-7.86,14.13-15.24,20.97-22.62l.88,.77c-6.11,8.15-12.23,16.3-18.34,24.46l.49,.49c9.31-6.96,18.63-13.92,27.94-20.89l1.24,1.33c-5.85,5.81-11.7,11.61-17.22,17.08,5.08-2.62,10.93-5.35,16.48-8.6,5.64-3.3,10.97-7.12,17.18-11.2-10.86,12.58-23.82,20.72-38.12,27,67.63-6.61,92.17-59.19,91.99-102.65-7.22,28.62-20.22,54.08-41.01,75.31,14.45-21.39,26.5-43.87,32.11-69.33-8.95,23.37-21.78,44.03-41.28,60.15,16.45-19.32,29.36-40.54,35.43-65.48-9.6,19.92-21.4,38.21-38.84,53.45,7.06-10.49,13.83-20.12,20.13-30.05,6.37-10.04,11.81-20.61,15.47-32.12Zm-48.3-162.89c-13.47-10.97-41.83-29.16-47.27-29.88,8.7,7.99,16.81,16.31,23.12,26.21l-26.17-21.34-.33,.42c7.93,10.42,15.85,20.84,23.78,31.25l-.69,.6c-6.83-7.47-13.66-14.94-21.06-23.02,4.69,9.44,9.08,18.26,13.46,27.09l-.97,.61c-5.74-8.47-11.47-16.94-16.95-25.03,.24,45.44,44.7,96.74,87.78,100.44-14.65-4.5-27.37-12.17-38.16-23.01-10.68-10.73-19.36-22.82-25.44-36.71,.7,.43,1.18,1,1.63,1.6,9.58,12.38,19.74,24.23,31.41,34.72,7.54,6.78,15.53,12.9,25.22,16.29,3.79,1.32,7.75,2.15,11.64,3.2-22.66-11.93-37.18-31.3-50.35-51.99,1.1,.58,1.9,1.47,2.74,2.31,10.97,10.96,21.68,22.21,33.05,32.75,5,4.63,11.25,7.96,17.14,11.54,2.17,1.32,4.93,2.1,7.44,.35-5.45-3-10.97-5.72-16.14-8.97-6.06-3.8-11.54-9.55-12.81-12.58,13.99,9.69,23.58,13.93,32.5,14.22-15.79-18.8-34.94-33.68-52.68-50.04,20.46,10.71,37.95,25.15,53.46,42.1-10.85-23.54-31.28-37.78-50.99-52.78,15.45,6.76,28.94,16.32,40.92,28.34-.87-2.47-1.92-4.82-3.48-6.75-7.52-9.34-16.12-17.59-25.54-24.99-1.44-1.13-2.81-2.35-4.22-3.53,11.15,4.97,20.15,12.78,28.91,20.91-17.64-27.74-42.08-46.05-74.35-53.52,12.76,7.91,24.25,17.25,33.39,29.2Zm112.87,156.37l-1.03,.27c-2.06-6.07-4.12-12.13-6.07-17.9-1.53,6.46-1.06,13.29,.71,20.07,1.2,4.59,3.14,8.93,7.35,11.42,1.59,.94,4.34,1.15,5.98,.41,1.28-.58,1.77-3.1,2.39-4.84,.27-.75,.12-1.76-.11-2.57-2.41-8.34-6.37-15.87-12.25-22.55,1.01,5.23,2.03,10.46,3.04,15.69Zm-17.29-51.75c.75-9.34,1.42-17.7,2.09-26.06l1.38,.06v19.21c1.86-6.24,3.67-12.4,4.45-18.68,.48-3.84-.35-7.93-1.07-11.81-.41-2.23-2.39-4.11-4.73-3.55-1.82,.44-3.92,1.94-4.8,3.56-1.08,1.97-1.59,4.63-1.34,6.88,1.1,9.84,2.56,19.64,4.01,30.39Zm11.48,.93c5.42-6.3,9.51-12.63,12.25-19.74,.65-1.67,.87-3.57,.96-5.38,.15-3.07-1.52-4.78-4.53-5.3-4.08-.71-9.06,1.78-10.44,5.97-2.17,6.57-2.25,13.41-1.3,20.37,2.61-5.44,5.22-10.87,7.83-16.31-.2,3.45-.98,6.68-1.83,9.88-.88,3.3-1.83,6.57-2.94,10.51Zm-16.23-5.23c0-2.11,.17-3.83-.03-5.51-.55-4.47-.67-9.12-2.06-13.33-1.62-4.95-5.71-6.21-10.5-4.25-4.47,1.83-5.75,5-4.04,10.04,1.65,4.85,9.33,14.85,13.94,18-1.84-6.77-3.62-13.32-5.58-20.52,1.26,1.73,2.33,2.85,2.99,4.17,1.77,3.56,3.36,7.21,5.28,11.41Zm-16.27,11.89c-2.73-2.5-5.24-5.01-7.98-7.25-4.31-3.51-9.02-6.36-14.71-6.95-2.43-.25-4.88-.07-6.18,2.5-1.36,2.68-.2,5.16,1.77,6.67,2.95,2.26,6.16,4.52,9.63,5.68,6.7,2.23,13.65,3.7,20.5,5.48l.39-.9c-6.94-3.23-13.87-6.45-20.81-9.68l.22-.61c5.69,1.68,11.38,3.36,17.16,5.06Zm41.78-4.67c4.36-1.75,8.2-2.95,11.7-4.78,5.38-2.81,9.33-7.06,10.65-13.21,.78-3.64-2.19-6.43-5.81-5.53-1.24,.31-2.43,.91-3.6,1.46-8.28,3.9-10.46,12.42-15.54,19.92,5.52-3.89,10.23-7.2,14.94-10.51l.45,.5c-4.11,3.91-8.22,7.81-12.79,12.16Zm5.6,6.93l.29,.7c5.17-.48,10.41-.59,15.49-1.58,3.3-.64,6.5-2.32,9.48-3.99,2.42-1.36,3.72-3.93,2.77-6.7-.9-2.61-3.49-3.01-5.96-3.04-7.39-.07-19.49,5.92-23.94,11.65,4.73-1.05,9.68-2.15,14.63-3.25l.19,.75c-4.31,1.82-8.62,3.64-12.94,5.46Zm.54,9.45c5.12,2.31,10.14,4.76,15.32,6.81,1.82,.72,4.05,.76,6.05,.58,3.41-.29,5.08-2.53,4.96-6.01-.18-4.99-3.43-8.28-9.37-8.87-6.98-.69-13.78,.56-20.41,2.74-.41,.13-.78,.38-1.14,.62-.04,.03,.07,.3,.13,.54,7.45-.21,14.82,.09,22.01,3.58h-17.55Zm-59.88,16.94l-.31-.77c3.76-2.9,7.52-5.8,11.47-8.84-8.65-2.05-15.36,1.68-21.95,5.4-1.36,.77-2.7,3.15-2.54,4.62,.17,1.47,2.05,3.6,3.5,3.9,2.93,.6,6.22,.72,9.11,.03,6.09-1.46,12.8-7.02,13.96-10.33-4.13,1.87-8.69,3.93-13.25,6Zm36.79,19.59l-.51,.02v-19.15c.4,5.13-1.95,11.69-5.09,18.04-1.94,3.92-2.19,7.85-.38,11.86,1.65,3.66,5.01,4.45,7.81,1.68,3.25-3.22,4.8-7.35,4.23-11.8-.69-5.34-2.08-10.6-3.22-16.15-.99,5.39-1.91,10.44-2.84,15.49Zm-26.23-38.28l.14-.81c-4.44-1.86-8.87-3.75-13.34-5.56-1.29-.52-2.67-.92-4.04-1.13-2.74-.41-5.64-.51-7.3,2.17-1.79,2.88-.55,5.64,1.29,8.08,.63,.84,1.54,1.53,2.45,2.08,5.27,3.24,17.57,2.47,22.08-.96-5.43-.84-11.31-1.76-17.2-2.67l.16-1.2h15.76Zm16.07,35.75l-.49-.4c.62-5.83,1.24-11.67,1.85-17.5l-1.13-.19c-3.43,6.14-6.89,12.26-10.26,18.43-.72,1.31-1.27,2.77-1.6,4.22-.75,3.29,1.1,5.48,4.49,5.5,4.02,.02,6.37-2.61,8.1-5.67,3.52-6.23,4.32-13.12,4.45-19.52-1.68,4.71-3.55,9.92-5.41,15.13Zm-13.42-55.42l.4-.66c-1.43-3.14-2.79-6.31-4.31-9.41-1.94-3.96-4.97-6.82-9.18-8.25-2.83-.96-5.15,.14-5.77,3.01-.39,1.79-.52,4.12,.31,5.62,4.04,7.32,10.57,11.67,18.27,14.4-1.88-1.94-4.02-3.58-5.88-5.5-1.82-1.88-3.35-4.04-5.56-6.76,4.46,2.88,8.09,5.22,11.72,7.56Zm4.41,35.06c-3.88,2.23-7.19,3.65-9.9,5.81-3.99,3.18-6.56,7.48-7.02,12.72-.26,2.97,1.26,4.27,4.15,3.68,4.57-.94,8.52-3.29,10.66-7.33,2.57-4.87,4.27-10.2,6.35-15.33l-.37-.09c-3.43,4.17-6.87,8.35-10.3,12.52l-.56-.41c2.18-3.61,4.36-7.22,6.99-11.56Z"/></svg>