<?xml version="1.0" encoding="UTF-8"?><svg id="a" xmlns="http://www.w3.org/2000/svg" viewBox="0 0 800 600.7"><path d="M582.83,367.04c14.68,12.69,26.8,26.99,36.21,43.49,8.29,14.54,14.04,29.9,14.12,46.9,.14,26.95-15.41,49.11-40.95,57.8-7.27,2.47-13.05,6.34-18.2,12.05-13.8,15.32-29.37,28.58-49.28,35.26-30.93,10.37-59.61,4.39-86.01-13.76-15.8-10.87-27.37-25.68-36.96-42.12-.45-.78-.89-1.56-1.61-2.8-1.05,1.69-1.94,3.09-2.8,4.5-15.91,26.26-37.68,45.65-66.86,55.87-22.28,7.8-44.67,8.31-66.66-1.54-11.14-4.99-20.46-12.49-28.2-21.79-3.89-4.67-8.33-7.42-14.32-8.28-16.85-2.42-29-11.98-38.03-25.89-12.04-18.55-16.31-39.09-15.25-60.96,1.13-23.13,8.61-43.89,22.98-62.09,3.03-3.83,6.45-7.35,9.43-10.71-9-3.92-18.34-7.4-27.14-11.93-18.77-9.65-34.73-22.73-43.56-42.39-11.41-25.39-10.18-50.53,4.52-74.48,3.29-5.35,4.15-10.68,3.08-16.63-3.47-19.23,4.18-33.87,19.1-45.27,16.16-12.35,34.62-18.55,54.86-19.34,28.98-1.13,55.55,6.97,80.39,21.45,.76,.44,1.54,.85,2.71,1.5-.72-5.46-1.38-10.48-2.06-15.5-1.64-12.19-1.29-24.4,.14-36.56,1.71-14.56,5.17-28.71,11.93-41.81,16.49-31.96,42.44-51.02,78.24-55.68,20.82-2.71,39.89,2.2,56.08,16.15,2.4,2.06,4.44,4.6,6.37,7.13,3.26,4.25,7.27,7.23,12.58,8.2,15.41,2.8,25.79,12.28,33.69,25.15,8.69,14.16,13.35,29.6,14.95,46.04,.44,4.5,.77,9.01,1.17,13.75,5.8-2.36,11.28-4.77,16.89-6.83,17.65-6.51,35.89-9.68,54.7-8.24,23.51,1.8,44.55,9.38,60.43,27.85,9.98,11.61,15.8,25.34,18.68,40.16,7.39,37.94,3.21,74.49-15.03,108.87-12.36,23.3-30.99,40.03-55.41,50.2-1.26,.52-2.5,1.11-3.74,1.67-.31,.14-.6,.3-1.22,.62Zm59.1-101.38c2.59-17.9,2.16-35.01-1.63-52.02-2.97-13.34-8.17-25.62-17.38-35.88-11.94-13.29-27.56-19.18-44.81-20.82-28.29-2.7-54.32,4.37-77.89,20.06-17.95,11.95-31.26,28.37-41.92,46.79-10.55,18.23-20.16,37.01-30.19,55.55-.68,1.25-1.44,2.45-2.22,3.78-2.07-1.33-3.74-2.53-5.53-3.51-2.17-1.2-2.73-2.51-1.54-4.93,10.54-21.46,20.52-43.2,31.56-64.39,9.89-19,22.68-35.87,41-47.87,1.02-.67,1.71-2.63,1.68-3.97-.26-13.16-1.89-26.14-5.91-38.73-5.91-18.5-16.03-33.56-34.82-40.99-9.12-3.61-17.31-8.47-24.83-14.73-9.13-7.6-19.47-12.85-31.68-12.76-26.39,.19-47.49,11.76-64.2,31.47-16.99,20.04-23.91,43.94-24.83,69.83-.51,14.46,1.41,28.68,4.51,42.75,.49,2.25,1.98,4.49,3.55,6.25,5.25,5.86,11.17,11.17,16.09,17.29,13.76,17.12,20.83,38.1,32.39,56.81-2.42,1.84-4.7,3.59-7.68,5.85-10.31-14.66-20.37-29.04-30.5-43.36-25.03-35.39-57.89-57.99-102.01-61.69-18.3-1.53-35.28,3-50.68,13.09-14.3,9.37-23.03,22.12-22.45,39.76,.37,11.51-1.69,22.32-6.04,32.98-4.43,10.85-5.78,22.28-3.35,33.9,4.05,19.33,14.95,34.29,30.23,46.25,11.88,9.3,25.93,14,40.17,18.23,2.31,.69,4.02,.5,6.02-.84,10.91-7.31,22.71-12.82,35.8-14.49,11.18-1.43,22.5-1.71,33.73-2.72,10.66-.96,21.35-1.87,31.93-3.43,6.11-.9,12.04-3.06,18.2-4.69l2.48,7.87c-13.17,6.27-26.37,11.85-40.7,13.92-13.08,1.89-26.27,3.04-39.36,4.92-15.28,2.2-29.79,7.2-41.06,17.91-29.37,27.9-39.14,61.8-27.87,100.96,5.42,18.81,16.57,33.17,36.08,39.38,6.72,2.14,12.11,5.98,17.09,10.89,4.36,4.3,9.05,8.48,14.22,11.7,17.95,11.17,37.53,11.91,57.46,7.23,27.07-6.34,47.98-22.02,64.35-44.1,14.27-19.25,21.5-40.68,18.63-64.75-1.58-13.22-4.61-26.25-6.4-39.45-1.27-9.33-1.55-18.8-2.29-28.46,3.67-.17,6.58-.3,9.58-.43,.53,4.23,.6,8.16,1.56,11.87,2.77,10.67,5.54,21.36,8.95,31.84,7.68,23.64,8.99,47.09-.56,70.55-.42,1.02-.07,2.68,.5,3.73,8.62,15.66,19.3,29.7,33.73,40.45,26.34,19.64,55.1,25.5,86.36,13.64,15.49-5.88,26.96-17.28,37.45-29.65,3.4-4,7.33-7.09,12.17-9.17,3.45-1.48,6.9-3.05,10.08-5.03,14.29-8.9,23.71-21.14,25.64-38.35,1.6-14.2-2.11-27.37-7.99-40.05-9.24-19.94-24.15-34.94-41.84-47.48-2.31-1.64-4.47-2.75-7.5-2.32-11.06,1.57-22.13,.85-33.1-.84-30.75-4.76-59.92-15.05-88.89-25.93-.72-.27-1.73-1.45-1.61-2.01,.55-2.71,1.44-5.36,2.23-8.14,3.63,1.07,6.79,1.98,9.94,2.93,25.7,7.78,51.26,16.1,78.24,18.44,22.65,1.96,44.38-1.13,64.59-12.04,33.49-18.08,49.23-51.23,40.86-86.52-3.78-15.96-12.57-28-29.55-31.45-7.18-1.46-14.74-.99-22.11-1.51-4.85-.34-9.75-.58-14.53-1.41-7.72-1.33-15.3-3.58-23.06-4.58-16.62-2.15-32.21,.93-46.26,10.53-13.82,9.44-25.13,21.49-35.88,34.14-.75,.88-1.58,1.68-2.38,2.51-.32-1.25-.09-2.09,.34-2.8,10.24-17.16,22.27-32.89,37.33-46.12,9.7-8.53,21.02-13.69,33.98-14.47,13.73-.83,26.98,1.61,39.74,6.89,2.88,1.19,6.11,1.74,9.23,2.09,5.32,.6,10.75,.42,16.02,1.27,23.14,3.77,38.64,16.79,46.05,39.1,1.38,4.16,2.1,8.54,3.29,13.5Z"/><path d="M386.47,365.29c-24.14,.06-42.56-18.76-42.64-43.55-.08-25.16,18.69-45.13,42.53-45.25,23.8-.12,43.14,19.95,43.1,44.74-.04,24.29-19.28,44-42.99,44.06Zm9.48-27.38l-.74-.2c0-.91,0-1.83,0-2.74-.03-3.8,1.48-5,5.03-3.96,1.09,.32,2.13,.83,3.23,1.1,4.74,1.18,8.95-.95,10.53-5.27,2.04-5.58-1.47-11.07-7.85-12.24-8.06-1.48-8.08-1.53-4.25-8.68,2.6-4.84,.56-10.71-4.48-12.9-5.04-2.19-9.13-.17-11.12,5.53-.56,1.61-.83,3.33-1.53,4.87-.48,1.05-1.31,2.2-2.29,2.64-.45,.2-1.67-1.14-2.45-1.88-1.81-1.71-3.34-3.8-5.38-5.15-3.24-2.15-7.43-1-9.99,2.29-2.45,3.15-2.44,7.21,.41,9.9,1.79,1.69,4.13,2.79,6.1,4.31,1.06,.82,1.87,1.96,2.79,2.96-1.06,.71-2.06,1.56-3.2,2.11-2.55,1.22-5.34,2.01-7.72,3.47-2.73,1.67-3.71,5.35-2.57,8.2,1.19,2.99,3.68,4.19,6.64,3.47,3.04-.75,6.02-1.91,8.85-3.26,4.19-2,6.19-.76,6.23,3.87,.02,2.92-.04,6.05,.95,8.71,1.92,5.14,7.31,5.71,10.25,1.07,1.48-2.34,1.75-5.46,2.57-8.22Z"/><path d="M471.03,370.12c4.58,.46,9.2,.68,13.74,1.41,22.18,3.57,43.41,10.19,63.18,20.95,12.01,6.54,21.77,15.33,26.51,28.73,4.54,12.85,2.35,24.96-4.02,36.49-2.52,4.56-5.45,9.06-8.97,12.85-4.77,5.14-6.81,11.07-7.87,17.76-1.98,12.47-7.26,23.31-17.51,31.08-9.92,7.51-21.22,8.85-33.15,6.3-25.15-5.38-45.59-17.9-59.94-39.63-.66-1-1.21-2.07-1.51-3.3,4.42,3.85,8.65,7.95,13.29,11.51,16.05,12.3,34.07,19.82,54.43,20.32,19.2,.47,30.4-9.76,32.79-28.91,.48-3.84,.62-7.77,1.54-11.51,.77-3.13,2-6.35,3.81-8.99,5.06-7.36,10.03-14.72,12.32-23.47,3.58-13.69,0-25.68-9.21-36.13-9.13-10.36-21.24-16.06-33.91-20.36-14.29-4.85-28.9-8.76-43.37-13.09-.82-.24-1.63-.53-2.44-.8,.09-.4,.19-.81,.28-1.21Z"/><path d="M197.95,435.25c1.82,9.05,3.06,17.88,5.48,26.36,1.88,6.6,4.82,13.01,8.05,19.09,4.8,9.03,12.94,13.17,23.04,13.43,5.25,.14,10.51,.13,15.75,0,7.22-.19,12.3,2.09,14.89,9.63,1.59,4.62,4.61,8.91,7.65,12.83,9.38,12.14,21.85,15.67,36.55,12.22,17.96-4.22,33.55-13.3,48.48-23.71,4.1-2.86,8.08-5.89,12.69-8.51-.3,.7-.43,1.54-.91,2.08-16.83,19.01-36.51,34.11-60.89,41.96-19.24,6.2-34.94,.57-47.34-15.68-1.66-2.17-3.46-4.34-4.57-6.8-3.51-7.76-9.96-9.97-17.76-10.35-5.11-.25-10.29-.56-15.27-1.62-10.62-2.26-17.7-9.06-21.74-18.94-6.63-16.25-8.05-33.07-4.84-50.3,.1-.52,.43-1,.74-1.7Z"/><path d="M249.56,191.72c-8.56,0-16.56-.57-24.43,.17-6.84,.64-13.85,1.93-20.24,4.37-17.66,6.74-25.98,23.66-21.93,42.8,1.88,8.89,5.13,17.2,9.96,24.92,4.92,7.87,4.57,10.63-1.72,17.48-2.39,2.61-4.84,5.19-6.95,8.02-7.62,10.23-7.18,21.24-2.58,32.43,2.32,5.66,5.09,11.14,7.66,16.7-.11,.04-.38,.17-.4,.13-5.66-7.84-12.06-15.26-16.74-23.64-5.38-9.64-3.53-19.9,1.14-29.58,1.83-3.79,3.91-7.47,5.87-11.2,2.53-4.81,2.46-9.38-.38-14.23-6-10.23-9.77-21.17-10.72-33.17-1.66-20.91,10.35-35.32,26.89-41.44,17.84-6.6,35.15-4.23,51.96,3.84,.61,.29,1.18,.69,1.74,1.08,.17,.12,.24,.36,.86,1.33Z"/><path d="M477.27,152.1c-3.08-9.84-5.49-19.93-9.38-29.42-6.38-15.55-18.59-23.68-35.48-23.47-6.96,.09-13.95,1.67-20.82,3.05-4.67,.94-6.59,.68-9.38-3.15-2.82-3.86-5.42-7.9-8.47-11.58-6.48-7.82-15.02-10.17-24.63-7.82-5.92,1.45-11.61,3.88-17.39,5.89-1.02,.35-2,.8-3.18,.9,7.37-6.39,14.04-13.73,23.59-16.95,9.84-3.32,18.41-.26,25.94,6.15,3.81,3.25,7.23,6.96,10.72,10.58,3.52,3.65,7.3,4.69,12.33,2.95,9.61-3.31,19.6-4.74,29.59-2.06,14.33,3.85,23.19,13.6,27.21,27.6,3.27,11.38,3.14,22.97,.29,34.48-.26,1.07-.7,2.09-.96,2.85Z"/><path d="M311.3,474.55c1.26-4.57,2.4-9.17,3.78-13.7,9.92-32.35,24.43-62.5,43.56-90.42,.58-.84,1.12-1.92,1.95-2.33,1.17-.57,2.85-1.17,3.84-.72,.98,.44,2.12,2.32,1.92,3.31-1.03,5.11-2.25,10.21-3.79,15.19-9.19,29.79-24.63,56.22-43.68,80.68-2.21,2.84-4.51,5.61-6.77,8.42-.27-.14-.55-.29-.82-.43Z"/><path d="M391.76,146.45c.86,3.78,1.77,7.55,2.56,11.34,4.72,22.62,7.72,45.45,6.88,68.58-.42,11.48-1.99,22.92-3.25,34.35-.23,2.06-1.29,4.14-2.41,5.93-.62,.99-2.16,1.9-3.29,1.91-.75,0-2.02-1.56-2.19-2.58-1.13-6.49-2.74-13.01-2.85-19.55-.36-21.01-.51-42.03,.01-63.03,.3-12.27,2.04-24.5,3.14-36.75l1.4-.2Z"/><path d="M243.58,257.08c8.11,1.56,16.3,2.79,24.32,4.74,25,6.06,47.7,17.08,68.2,32.61,1.81,1.37,3.67,2.83,4.98,4.63,.75,1.03,.96,3.08,.42,4.21-.43,.91-2.5,1.78-3.56,1.52-4.51-1.11-8.99-2.44-13.34-4.07-27.92-10.43-54.38-23.72-78.97-40.64-.83-.57-1.58-1.24-2.37-1.87l.31-1.14Z"/><path d="M500.95,432.71c-7.35-4.91-14.83-9.64-22.03-14.75-20.35-14.44-38.46-31.2-52.78-51.8-1.23-1.77-2.28-3.68-3.33-5.57-1.27-2.27-1.2-4.75,1-6.06,1.12-.66,3.65-.24,4.79,.66,7.46,5.82,15.03,11.55,21.97,17.96,18.68,17.25,35.2,36.47,50.25,56.95,.38,.52,.57,1.18,.85,1.77l-.72,.84Z"/><path d="M269.51,445.63c21.7-33.66,48.75-62.93,75.29-93.4,2.32,2.43,4.39,4.6,6.8,7.12-20.82,35.14-50.83,61.28-82.09,86.27Z"/><path d="M432.22,151.77c.21,1.46,.55,2.92,.62,4.38,.78,17.73,.41,35.47-3.01,52.89-2.85,14.48-6.75,28.76-10.66,43-1.27,4.64-3.98,8.91-6.15,13.29-.54,1.1-1.41,2.14-2.37,2.89-.93,.73-2.57,1.75-3.18,1.39-.95-.55-1.8-2.16-1.78-3.31,.08-3.86,.09-7.83,.98-11.55,4.86-20.46,10.04-40.84,14.97-61.29,3.2-13.26,6.18-26.57,9.28-39.86,.14-.62,.41-1.21,.62-1.82l.68-.03Z"/><path d="M342.34,162.76c.53,.79,1.14,1.54,1.57,2.38,14.67,28.39,27.41,57.56,35.11,88.71,1.06,4.28,1.38,8.75,1.78,13.16,.1,1.15-.71,3.33-1.27,3.39-1.26,.13-3.13-.39-3.86-1.33-2.41-3.13-5.18-6.3-6.45-9.93-5.34-15.35-10.57-30.76-15.11-46.36-4.45-15.28-8.03-30.82-11.96-46.25-.29-1.14-.36-2.34-.53-3.51l.71-.26Z"/><path d="M533.59,276.63c-.7,.5-1.35,1.09-2.1,1.49-24.62,13.11-50.07,24.25-76.98,31.81-3.82,1.07-7.8,1.55-11.7,2.34-2.75,.56-4.53-.17-5.37-3.14-.77-2.74-.69-4.57,2.28-6.06,15.22-7.63,31.3-12.92,47.67-17.23,13.83-3.64,27.89-6.41,41.86-9.52,1.31-.29,2.7-.26,4.05-.37l.28,.67Z"/><path d="M251.14,294.37c4.33,.54,8.69,.88,12.97,1.65,22.94,4.1,45.68,9.05,67.45,17.63,4.92,1.94,6.24,5.83,3.21,10.08-.52,.72-2.47,.91-3.59,.64-10.71-2.52-21.53-4.7-32.03-7.92-15.32-4.71-30.21-10.64-44.29-18.44-1.37-.76-2.68-1.64-4.01-2.46l.28-1.19Z"/><path d="M457.53,450.23c-2.92-3.1-6.07-6.03-8.73-9.34-16.05-19.91-29.16-41.54-37.92-65.66-.62-1.7-1.27-3.46-1.44-5.24-.11-1.16,.29-2.76,1.08-3.53,3.78-3.7,5.55-3.6,7.93,1.07,6.93,13.58,13.63,27.28,20.33,40.97,6,12.27,11.88,24.59,17.81,36.89,.66,1.37,1.27,2.76,1.91,4.14l-.97,.7Z"/><path d="M534.27,322.27c-4.11,.56-8.21,1.29-12.35,1.66-18.06,1.6-36.11,3.48-54.2,4.46-8.11,.44-16.32-.96-24.48-1.58-.88-.07-1.98-.29-2.54-.86-1.35-1.38-2.45-3.01-3.65-4.55,1.4-.87,2.72-2.27,4.22-2.54,16.17-2.81,32.49-2.7,48.8-1.98,10.58,.47,21.14,1.52,31.69,2.46,4.2,.37,8.37,1.16,12.55,1.75l-.05,1.18Z"/><path d="M517.35,246.67c-.6,.66-.9,1.14-1.34,1.43-20.73,13.63-41.38,27.4-62.29,40.76-5.21,3.33-11.2,5.49-16.98,7.83-1.65,.67-3.8,.06-5.73,.04,.69-2.04,.76-4.8,2.16-6,5.53-4.7,11.17-9.43,17.34-13.2,19.94-12.17,40.69-22.77,62.87-30.34,.75-.26,1.51-.48,2.29-.63,.4-.08,.84,.04,1.66,.1Z"/><path d="M376.04,320.06c.08-7.14,4.8-11.87,11.78-11.79,6.48,.07,11.6,5.53,11.54,12.28-.05,6.26-5.34,11.49-11.6,11.49-6.77,0-11.8-5.15-11.72-11.99Zm11.48,4.1c2.77-.11,4.22-1.73,4.19-4.11-.03-2.51-1.85-3.87-4.35-3.78-2.34,.08-3.87,1.3-3.75,3.87,.12,2.53,1.39,3.99,3.91,4.03Z"/></svg>