<?xml version="1.0" encoding="UTF-8"?><svg id="a" xmlns="http://www.w3.org/2000/svg" viewBox="0 0 800 600.7"><path d="M453.68,419.39c1.29,9.1,2.81,18.45,3.89,27.85,1.51,13.13,1.41,26.27,.06,39.44-1.24,12.13-3.62,23.93-8.49,35.15-4.73,10.91-10.88,20.89-20.1,28.6-13.88,11.6-27.12,11.94-41.72,1.07-11.84-8.81-19.19-20.92-24.61-34.37-4.89-12.15-7.48-24.85-7.75-37.87-.28-13.44,.23-26.89,.5-40.34,.05-2.4,.57-4.8,.98-8-1.4,2.32-2.37,4.02-3.44,5.68-14.37,22.35-31.81,41.73-54.84,55.48-12.34,7.37-25.58,12.28-40.2,11.99-9.96-.2-19.02-2.99-25.38-11.36-4.52-5.96-6.56-12.92-7.34-20.24-2.6-24.26,5.82-45.33,19.38-64.68,10.78-15.38,23.8-28.78,38.24-40.78,.36-.3,.78-.52,1.54-1.02-7.85,.89-15.06,1.81-22.3,2.5-13.09,1.25-26.14,.58-39.13-1.25-13.75-1.93-26.93-5.74-39.21-12.35-10.59-5.7-19.87-12.92-26.45-23.19-8.67-13.51-7.98-26.54,2.04-39.04,11.11-13.87,25.97-21.82,42.64-26.85,12.76-3.85,25.94-4.64,39.08-4.13,11.43,.44,22.8,2.26,34.2,3.46,.43,.05,.86,0,1.04,0-6.39-5.81-13.18-11.38-19.27-17.62-15.31-15.7-28.24-33.05-34.86-54.34-3.88-12.48-5.33-25.15-2.02-38.04,3.35-13.05,12.01-20.23,25.05-22.3,17.88-2.84,34.17,2.06,49.54,10.78,13.4,7.61,24.53,18.04,34.66,29.47,6.61,7.46,12.54,15.54,18.78,23.33,.22,.27,.5,.48,.88,.83-.61-5.84-1.42-11.45-1.76-17.08-1.49-25.18-.22-50.01,10.32-73.5,4.73-10.53,11.16-19.86,20.28-27.09,17.2-13.62,33.6-12.19,48.46,4.07,11.07,12.11,17.78,26.52,20.84,42.4,1.87,9.74,2.47,19.82,2.71,29.76,.32,13.35-.87,26.66-3.55,40.59,1.18-1.74,1.98-2.87,2.73-4.04,14.09-21.7,31.1-40.62,52.81-54.96,12.44-8.21,25.93-13.95,40.89-15.56,8.82-.95,17.52-.25,25.8,3.32,9.78,4.22,14.52,12.16,16.22,22.24,2.73,16.22-1.29,31.27-8.28,45.71-8,16.53-19.82,30.24-32.61,43.14-6.23,6.29-12.87,12.16-19.16,18.07,5.31-1.27,10.84-2.83,16.47-3.91,23.46-4.52,46.86-5.67,69.86,2.51,11.12,3.95,21.21,9.71,29.26,18.53,11.02,12.08,12.31,24.82,3.98,38.96-8.37,14.22-21.03,23.47-35.6,30.51-10.88,5.25-22.53,7.72-34.35,9.42-16.05,2.32-32.2,2.49-49.3,1.5,1.55,.94,2.41,1.49,3.29,1.99,21.21,12.26,39.6,27.7,53.75,47.87,7.8,11.13,13.25,23.3,15.4,36.8,.98,6.13,.99,12.27-.59,18.35-2.76,10.65-10.27,16.49-20.18,19.86-14.99,5.09-29.96,3.87-44.87-.36-17.38-4.92-32.17-14.56-46.13-25.62-11.45-9.08-21.92-19.22-31.22-30.52-.35-.42-.79-.76-.87-.82Zm-105.95-119.15c-1.21-.49-2.12-.93-3.08-1.24-17.49-5.72-34.21-13.11-50.08-22.45-1.26-.74-2.71-1.35-4.13-1.56-12.71-1.89-25.39-4.14-38.17-5.38-15.6-1.51-31.2-.5-46.4,3.54-15.24,4.05-28.9,11.03-39.21,23.41-3.6,4.33-6.8,8.99-7.24,14.85-.58,7.78,3.06,14.07,7.65,19.86,8.19,10.34,19.14,16.84,31.26,21.4,25.61,9.62,52.08,10.56,78.88,7.06,15.66-2.04,30.83-6.24,45.66-11.57,9.09-3.27,18.03-6.96,27.21-10.53-5-12.43-6.14-24.63-2.35-37.4Zm104.08-8.51c.77-.48,1.42-.83,2.01-1.26,14.81-10.47,30.31-19.73,47.01-26.9,1.6-.69,3.12-1.71,4.47-2.83,7.7-6.36,15.59-12.53,22.95-19.27,15.35-14.06,29.35-29.35,39.22-47.88,7.31-13.72,11.8-28.17,9.57-44.03-1.57-11.15-7.03-16.91-18.06-19.04-12.16-2.34-23.77-.09-35.04,4.35-21.04,8.29-37.55,22.73-52.33,39.35-22.86,25.69-36.78,56.08-46.27,88.77-.48,1.67-.3,2.43,1.3,3.25,11.06,5.66,19.37,14.1,25.18,25.5Zm-102.92,4.35c5.87-13.83,14.88-23.76,27.68-30.17-.12-.38-.19-.64-.28-.88-10.87-28.47-24.75-55.23-44.62-78.6-11.43-13.44-23.81-25.83-39.11-34.9-13.78-8.17-28.48-13.06-44.76-10.86-10.98,1.48-16.99,5.39-19.9,16.85-2.79,10.95-1.52,21.66,1.63,32.26,5.95,19.97,17.68,36.47,31.64,51.5,15.4,16.59,33.48,29.72,53.81,39.61,11.08,5.39,22.5,10.11,33.9,15.19Zm32.41,71.22c-.27,.8-.51,1.4-.68,2.02-3.67,13.58-7.87,26.98-13.67,39.83-.57,1.26-1.11,2.61-1.29,3.97-1.04,7.86-2.29,15.7-2.88,23.6-1.18,16.04-1.33,32.11,.41,48.15,1.58,14.52,5.43,28.33,12.74,41.04,5.68,9.89,12.99,18.18,23.5,23.3,6.66,3.24,12.87,2.76,19.06-1.17,10.32-6.55,17.08-16.02,22.11-26.85,7.73-16.63,10.18-34.41,10.66-52.5,.47-17.81-1.89-35.37-5.75-52.73-1.04-4.68-2.18-9.51-4.35-13.72-4.63-9.02-10.01-17.65-14.99-26.5-1.54-2.73-2.8-5.63-4.18-8.43-13.63,5.05-27.02,5.01-40.7,0Zm74.06-36.6c10.81,2.54,21.34,4.88,31.79,7.51,4.67,1.18,9.12,3.7,13.82,4.25,11.76,1.38,23.6,2.34,35.43,2.82,13.83,.57,27.59-.9,41.22-3.29,13.12-2.3,25.69-6.3,37.08-13.39,10.64-6.62,19.63-14.83,24.84-26.58,3.31-7.46,2.7-14.44-2.04-21.13-6.14-8.66-14.55-14.35-24.13-18.45-19.01-8.12-38.9-8.95-59.08-6.66-22.62,2.56-44.2,8.88-64.33,19.5-11.61,6.12-22.78,13.08-34.08,19.76-.78,.46-1.69,1.99-1.47,2.66,3.72,11.03,3.89,22.12,.95,33Zm-28.61,34.54c15.52,31.56,36.39,58.61,64.19,80.06,14.2,10.95,29.31,20.23,47.05,24.36,12.85,2.99,25.67,3.53,38.24-1.35,9.37-3.64,13.51-9.86,13.71-19.93,.23-11.4-3.01-21.91-8.19-31.86-11.62-22.31-29.44-38.81-50.1-52.46-16.89-11.16-35.69-17.98-55.14-23.07-7.53-1.97-15.15-3.57-22.76-5.34-5.56,13.33-14.34,23.14-26.99,29.61Zm-7.19-102.08c4.14-12.09,8.11-23.78,12.16-35.45,1.16-3.33,3.03-6.48,3.76-9.89,3.79-17.69,6.81-35.5,7.2-53.67,.39-17.96-1.16-35.59-8.18-52.37-4.86-11.63-11.43-22-22.01-29.36-6.78-4.72-13.82-5.49-21.34-1.77-9.82,4.86-16.81,12.6-22.27,21.82-10.26,17.32-13.57,36.52-14.56,56.23-.75,15.05,.22,30.05,2.81,44.91,.75,4.28,1.39,8.73,3.12,12.65,5.05,11.5,10.71,22.72,15.94,34.15,1.96,4.28,3.36,8.82,5.09,13.42,12.91-4.59,25.79-4.9,38.28-.67Zm-67.47,78.71c-.37,.07-.57,.06-.72,.13-15.23,7.53-31.02,13.59-47.38,18.21-1.49,.42-3.06,1.03-4.27,1.96-18.59,14.23-35.16,30.48-48.58,49.73-10.46,15.01-17.57,31.37-18.22,49.98-.3,8.59,.78,16.96,5.19,24.58,2.19,3.79,5.35,6.4,9.56,7.71,10.26,3.2,20.28,1.78,30.18-1.56,16.83-5.67,30.69-15.97,43.24-28.2,21.07-20.52,36.26-44.9,46.63-72.32,3.31-8.75,6.15-17.68,9.21-26.54-10.91-5.67-18.98-13.61-24.84-23.68Zm5.93-26.34c-.06,23.73,19.35,42.69,43.73,42.71,23.82,.02,42.84-18.82,43.01-42.45,.17-23.84-19.48-42.29-42.25-42.63-25.02-.37-44.43,18.37-44.49,42.37Z"/><path d="M300.78,324.91c-12.46,1.62-24.88,3.51-37.37,4.76-9.65,.97-19.38,1.56-29.07,1.57-23,.04-45.47-3.25-66.87-12.2-1.36-.57-2.7-1.2-3.98-2.07,22.19,6.6,44.79,10.4,67.93,11.17,23.2,.77,46.23-.77,69.18-4.11l.18,.88Z"/><path d="M294.71,306.6c-20.33-4.17-40.87-6.22-61.62-5.75-20.75,.47-41.16,3.53-61.18,8.92,40.57-13.86,81.54-14.06,122.79-3.17Z"/><path d="M484.73,240.93c33.13-28.88,62.1-61.27,83.83-99.74-17.91,41.64-48.97,72.28-83.83,99.74Z"/><path d="M467.3,231.4c13.81-31.6,68.4-85.11,92.73-90.98-39.08,22.04-68.38,54.02-92.73,90.98Z"/><path d="M324.28,253.88c-38.79-26.44-71.96-57.77-89.43-102.72,21.58,41.41,52.34,74.82,89.43,102.72Z"/><path d="M332.71,235.27c-24.68-34.03-54.12-62.98-90.27-84.81,38.17,19.67,67.28,48.99,90.27,84.81Z"/><path d="M412.08,408.7c1.84,8.31,3.83,16.59,5.49,24.93,3.96,20.01,6.1,40.2,5.14,60.63-.87,18.44-4.46,36.35-11.02,53.69,11.49-46.41,9.7-92.79-.32-139.17l.72-.09Z"/><path d="M394.01,415.88c-4.11,40.71-1.16,80.86,9.38,120.39-12.96-39.34-15.95-79.48-9.38-120.39Z"/><path d="M637.58,287.8c-46.53-8.78-91.48-2.14-135.9,11.73,1.28-.5,2.55-1.02,3.83-1.5,1.31-.49,2.62-.95,3.94-1.4,16.57-5.71,33.41-10.38,50.74-13.19,25.27-4.09,50.34-3.96,75.05,3.6,.78,.24,1.56,.5,2.34,.76Z"/><path d="M513.61,315.86c19.75,.24,39.46-1.11,59-4.31,19.49-3.19,38.51-8.26,57.07-15.42-6.58,5.14-37.21,14.18-56.56,17.37-19.73,3.26-39.55,3.39-59.5,2.36Z"/><path d="M478.21,369.73c42.94,19.18,80.85,44.62,105.83,85.98-28.59-36.89-64.15-65.18-105.83-85.98Z"/><path d="M472.34,387.75c14.66,15.09,30.43,28.87,47.76,40.87,17.29,11.97,35.84,21.51,55.22,29.48-41.29-13.2-74.93-37.69-102.98-70.35Z"/><path d="M390.77,217.7c-1.47-8.13-3.13-16.23-4.35-24.39-2.12-14.13-3.64-28.33-3.42-42.64,.35-22.72,4.13-44.81,12.76-65.94,.42-1.02,.88-2.03,1.64-3.01-13.83,44.8-13.84,90.19-5.86,135.93l-.76,.05Z"/><path d="M409.43,207.95c5.17-39.24,4.46-78.25-4.35-116.94,11.41,38.59,11.8,77.62,4.35,116.94Z"/><path d="M338.44,390.71c-22.46,39.5-48.59,75.57-90.46,96.96,37.84-25.18,66.6-58.8,90.46-96.96Z"/><path d="M320.3,382.68c-31.51,27.52-56.73,59.83-74.83,97.61,15.19-39.99,40.97-71.9,74.83-97.61Z"/><path d="M401.57,336.04c-10.91-.02-19.76-8.99-19.78-20.07-.02-11.21,9.05-20.13,20.42-20.05,11.11,.07,19.99,9.07,19.96,20.22-.03,11.1-9.17,19.93-20.6,19.91Zm.23-13.02c4,.04,7.03-2.79,7.14-6.64,.1-3.84-3.08-7.24-6.88-7.35-3.74-.11-7.16,3.25-7.19,7.06-.02,3.72,3.15,6.89,6.93,6.93Z"/><path d="M410.16,285.27c.09,3.28-2.33,5.87-5.64,6.03-3.18,.15-5.86-2.44-5.9-5.71-.05-3.26,2.26-5.72,5.46-5.81,3.34-.1,6,2.31,6.08,5.5Z"/><path d="M424.49,342.6c-3.26-.03-5.72-2.62-5.68-5.98,.03-3,2.85-5.69,5.85-5.59,2.91,.09,5.77,2.93,5.83,5.81,.07,3.01-2.83,5.8-6,5.77Z"/><path d="M386.88,283.65c3.31-.03,5.85,2.45,5.89,5.77,.04,3.04-2.57,5.82-5.55,5.92-2.92,.1-5.86-2.86-5.92-5.95-.06-3.17,2.41-5.71,5.59-5.75Z"/><path d="M370.79,312.34c3.16-.04,5.85,2.65,5.86,5.85,0,3.03-2.7,5.67-5.79,5.64-3.33-.03-5.89-2.59-5.85-5.86,.03-3.02,2.67-5.6,5.78-5.64Z"/><path d="M433.28,327.56c-3.41,.04-5.97-2.41-5.94-5.67,.03-3.11,2.55-5.7,5.63-5.79,3.21-.09,5.95,2.55,5.93,5.73-.02,3.09-2.58,5.7-5.63,5.73Z"/><path d="M379.62,300.69c-.01,3.25-2.34,5.54-5.64,5.57-3.46,.02-5.69-2.23-5.71-5.76-.02-3.3,2.34-5.83,5.42-5.81,3.44,.02,5.95,2.56,5.94,6.01Z"/><path d="M415.42,291.92c-.03-3.33,2.5-5.96,5.71-5.92,3.03,.03,5.57,2.7,5.56,5.82-.02,3.42-2.47,5.94-5.73,5.9-3.06-.04-5.51-2.59-5.54-5.8Z"/><path d="M403.44,345.64c-.06-3.22,2.34-5.76,5.49-5.81,3.17-.04,5.9,2.63,5.92,5.79,.02,3.05-2.54,5.73-5.59,5.86-3.15,.14-5.75-2.48-5.82-5.85Z"/><path d="M432.08,298.82c3.28,0,5.72,2.36,5.77,5.56,.06,3.35-2.39,5.77-5.83,5.8-3.33,.02-5.57-2.42-5.51-6,.06-3.15,2.36-5.37,5.57-5.36Z"/><path d="M391.45,338.62c3.39-.04,5.99,2.4,6,5.62,0,3.05-2.54,5.6-5.68,5.67-3.23,.07-5.64-2.24-5.72-5.5-.09-3.3,2.2-5.76,5.4-5.79Z"/><path d="M382.45,334.33c.04,3.27-2.37,5.82-5.48,5.8-3.12-.02-5.61-2.51-5.72-5.7-.11-3.03,2.58-5.83,5.57-5.81,3.15,.02,5.59,2.49,5.63,5.71Z"/></svg>