<?xml version="1.0" encoding="UTF-8"?><svg id="a" xmlns="http://www.w3.org/2000/svg" viewBox="0 0 800 600.7"><path d="M163.91,273.58c13.68-1.74,23.01-10.05,32.83-17.55,4.28-3.27,8.9-6.08,13.22-9.29,1.27-.94,2.45-2.43,2.95-3.91,10.54-30.95,29.6-55.09,58.27-70.88,6.66-3.67,10.53-7.48,12.59-14.8,4.1-14.51,13.92-24.87,26.45-32.99,10.09-6.54,20-13.37,29.69-20.48,8.76-6.43,14.86-15.18,19.68-24.85,1.54-3.09,3.26-6.08,5.35-9.94-.54,9.41,2.11,13.56,10.59,14.11,21.08,1.35,38.23,10.95,53.96,23.97,8.34,6.9,14.86,15.32,19.2,25.22,1.51,3.44,3.39,4.13,6.84,3.95,4.86-.25,9.76,.32,14.64,.42,1.29,.02,2.83-.05,3.86-.7,14.33-8.94,29.75-9.37,45.72-6.18,1.25,.25,3.19,.09,3.94-.7,12.47-13.16,28.38-19.27,45.64-22.78,10.4-2.12,20.98-3.73,31.09-6.86,8.15-2.52,15.7-6.97,23.5-10.6,1.05-.49,1.99-1.21,3.2-1.96-1.5,7.46-3.46,14.34-4.14,21.35-.89,9.08-1.14,18.26-.99,27.39,.23,14.44,.68,28.84-3.57,42.88-4.11,13.58-11.33,25.33-21.04,35.58-4.26,4.49-4.23,5.45,.95,8.73,14.58,9.25,24.06,22.06,27.31,39.21,.33,1.72,.83,3.52,.62,5.2-1.51,11.97,5.57,22.44,5.87,34.01,.23,8.75-.42,17.52-.47,26.28-.04,6.63-.19,13.3,.49,19.87,.62,6.01,3.22,11.32,9.77,14.65-2.86,2.22-5,4.81-7.73,5.87-16.03,6.21-27.04,18.15-37.15,31.35-6.64,8.67-13.67,17.03-23.04,23.04-10.82,6.94-22.26,7.77-34.15,3.52-2.22-.79-3.64-.77-5.28,.96-2.49,2.62-5.22,5.02-7.93,7.59,3.16,4.16,6.46,8.07,9.3,12.3,12.06,17.97,16.01,38.02,15.09,59.36-.81,18.78-1.29,37.57-1.91,56.35-.04,1.1,0,2.21,0,2.84-7.41-3.97-14.51-8.87-22.36-11.75-13.58-4.99-27.62-8.75-41.48-12.98-18.07-5.52-34.78-13.54-48.82-26.44-13.27-12.2-22.47-26.81-25.82-44.76-.46-2.46-.56-4.99-1.15-7.41-.32-1.32-1.2-3.41-2.04-3.52-2.83-.39-5.69-3.12-8.7,0-2.69,2.79-5.6,5.41-8.69,7.74-9.99,7.53-21.23,10.96-33.81,9.92-1.22-.1-3.3,.82-3.74,1.82-11.18,25.19-31.38,39-57.33,45.35-12.26,3-24.73,5.13-37,8.05-12.76,3.04-24.74,7.96-34.64,16.47,0-6.86-.15-13.79,.03-20.72,.31-11.91,.34-23.85,1.37-35.7,1.73-20.03,10.4-36.96,25.04-50.7,4-3.76,8.48-7.05,12.93-10.29,1.82-1.32,1.99-2.14,1.01-4.2-3.07-6.41-5.75-13-8.59-19.51-.39-.9-.61-1.96-1.22-2.67-5.16-5.99-10.27-12.01-15.61-17.84-9.82-10.7-26.02-15.4-42.66-6.24,1.4-5.16,2.94-10.47,4.28-15.82,2.62-10.47,1.33-20.58-2.87-30.45-5.01-11.74-9.81-23.57-14.83-35.3-4.03-9.43-9.62-17.79-18.51-24.59Zm114.33-96.56c-1.95,.96-3.19,1.47-4.32,2.15-24.61,14.87-42.37,35.85-53.84,62-2.47,5.64-3.41,12.38-3.35,18.6,.11,10.62,4.53,20.2,10.28,29.01,13.16,20.17,31.53,34.56,52.5,45.69,14.3,7.59,27.42,16.57,39.04,27.83,5.67,5.49,12.4,9.22,20.35,10.58,10.73,1.83,21.18,.34,31.63-2.05,13.14-3.01,26.39-5.58,39.46-8.86,6.48-1.62,12.84-4.02,18.92-6.82,3.63-1.67,6.56-4.83,8.04-9.67-13.22,2.3-25.5,.87-37.59-2.94-1.33-.42-2.96,.17-4.46,.17-6.38,.02-12.84,.64-19.13-.15-15.78-1.97-30.5-7.55-44.8-14.4-13.83-6.63-23.59-16.31-25.88-32.2-.21-1.47-1.48-3.27-2.78-4.03-13.69-7.99-25.56-18.09-35.79-30.17-.86-1.02-1.73-2.04-2.6-3.06,6.43,4.76,12.38,9.96,18.62,14.79,6.12,4.74,12.54,9.11,18.83,13.64,.32-4.6-2.38-6.49-5.02-8.42-11.6-8.47-19.88-19.88-28.14-31.3,.38-.37,.75-.74,1.13-1.11,7.57,8.03,15.15,16.05,22.72,24.08,.31-.19,.63-.39,.94-.58-17.62-28.66-20.16-59.76-14.75-92.79Zm284.31,196.26c-2.18,.94-3.46,1.39-4.64,2.01-4.76,2.52-9.46,5.15-14.23,7.64-10.39,5.42-21.11,9.75-32.95,10.91-14.56,1.42-28.78-.65-42.92-3.66-3.79-.81-7.15-1.01-10.86,.75-3.68,1.75-7.86,2.47-11.83,3.58-1.85,.52-3.75,.88-6,1.4,7.79,3.81,15.04,7.36,22.3,10.91-.17,.36-.35,.73-.52,1.09-8.05-3.09-16.08-6.22-24.15-9.27-3.74-1.42-7.53-2.6-11.59-1.28,11.4,5.31,22.75,10.59,34.09,15.88-15-4.56-29.74-9.57-44.5-14.51-1.88-.63-3.87-1.13-5.84-1.28-14.84-1.13-29.27-4.04-43.28-9.13-8.17-2.97-15.79-7.42-24.82-8.15-4.83-.39-9.53-2.31-14.31-3.55-.05,.21-.21,.47-.15,.66,.28,.83,.6,1.64,.94,2.44,5.28,12.45,12.66,23.6,21.07,34.11,15.94,19.92,35.64,33.23,61.57,36.82,15.07,2.09,30.09,5.11,44.82,8.9,10.18,2.61,19.84,7.25,30.01,11.08,4.04-12.34,14.1-20.94,23.95-29.71,12.93-11.52,25.97-22.92,36.67-36.67,7.11-9.14,12.95-18.97,17.15-30.98Zm-26.23-23.52c.05,.32,.11,.64,.16,.96-9.33,1.47-18.64,3.95-28,4.2-18.53,.49-37.1-.25-55.65-.53-2.88-.04-5.76-.61-8.61-.47-1.67,.08-3.74,.63-4.87,1.74-4.93,4.87-10.51,8.45-17.26,10.17-.74,.19-1.4,.71-2.33,1.19,.73,.44,1.12,.81,1.58,.94,18.47,5.37,36.75,11.51,55.46,15.86,22.7,5.29,45.14,3.89,65.82-8.35,12.13-7.18,25.15-11.33,38.91-14.17,10.18-2.1,20-5.95,30.02-9.03-.4-1.67-.79-2.98-1.03-4.32-2.19-12.22-.57-24.17,2.61-36,3.27-12.18,7.24-24.18,7.47-37.01,.22-12.32-2.66-23.59-10.1-33.5-3.89-5.18-8.49-9.66-14.35-13.3,0,3.31,.07,6.04-.01,8.76-.18,5.63,0,11.31-.75,16.87-1.74,13.02-7.07,24.73-14.64,35.36-11.83,16.61-26.22,30.66-43.42,41.71-6.12,3.94-12.43,7.58-18.95,11.53,23.18-4.43,41.4-18.25,61.2-30.3-.57,.78-.69,1.01-.87,1.16-1.71,1.47-3.41,2.95-5.14,4.4-20.31,16.93-42.38,29.69-69.76,30.88-5.97,.26-11.85,2.37-17.77,3.63,8.31,1.66,28.6,1.34,50.3-2.4Zm-194.21,68.45c-5.43-7.85-10.21-14.87-15.16-21.76-.7-.97-2.28-1.36-3.5-1.9-5.58-2.49-11.49-4.4-16.69-7.5-10.02-5.99-16.97-15.08-23.12-24.83-1.01-1.6-2.84-3.24-4.61-3.73-9.24-2.58-18.59-4.77-27.88-7.15-1.2-.31-2.33-.91-3.47-1.41-.97-.43-1.92-.92-2.88-1.38,11.25,2.54,22.21,5.56,33.98,5.1-1.41-1.75-3.04-3.29-4.88-3.62-11.23-1.99-21.66-6.16-31.55-11.59-6.06-3.32-11.71-7.41-17.54-11.16,8.4,3.58,16.36,7.8,24.47,11.69,8.1,3.89,16.84,5.66,25.78,6.94-1.36-1.57-2.91-2.7-4.62-3.5-7.01-3.29-14.29-6.09-21.07-9.8-16.26-8.89-28.14-21.96-35.6-38.98-.25-.57-.53-1.14-.73-1.73-.19-.58-.3-1.2-.44-1.8,12.9,23.84,32.59,39.34,57.42,48.79-.43-.77-1.11-1.22-1.81-1.64-12.09-7.28-23.33-15.65-33.05-25.95-11.37-12.05-20.57-25.35-23.6-42.03-.8-4.38-.92-8.89-1.41-13.95-11.22,8.08-21.03,17.81-33.8,22.06,3.78,6.24,7.94,11.94,10.88,18.2,5.74,12.23,11,24.69,16.05,37.23,3.11,7.71,4.85,15.79,3.3,24.24-.66,3.61-1.07,7.27-1.64,11.22,1.62-.11,2.73-.1,3.82-.26,12.18-1.74,22.89,1.46,31.82,9.89,3.54,3.34,6.76,7.09,9.73,10.95,9.33,12.12,19.76,22.7,34.94,27.32,11.6,3.54,23.48,5.28,35.56,4.67,6.94-.35,13.84-1.67,21.3-2.62Zm252.45-264.36c-8.34,2.24-17.62,2.01-26.6-.55-11.76-3.35-23.33-7.35-34.91-11.29-12.05-4.1-24.18-7.61-37.09-5.97-4.11,.52-8.12,1.85-12.17,2.8,.02,.61,.04,1.22,.06,1.83,8.57,2.07,17.05,4.69,25.73,6.06,12.4,1.97,23.14,6.12,28.71,18.27,2.16,4.72,4.12,9.84,4.68,14.94,1.26,11.56,1.66,23.21,2.27,34.83,.22,4.15,.03,8.32,.03,12.48l1.27,.05c6.49-14.98,7.04-30.89,6.69-47.2,.26,.45,.43,.62,.47,.82,3.62,19.3,1.45,37.74-7.18,55.57-2.56,5.29-3.23,11.5-4.77,17.29l.7,.29c4.95-7.92,9.9-15.83,14.85-23.75l.87,.49c-5.57,10.47-10.83,21.12-16.84,31.34-2.88,4.91-6.78,9.4-10.94,13.32-2.59,2.44-3.6,4.99-4.54,8.17-3.09,10.43-6.57,20.75-9.91,31.11-.29,.88-.67,1.74-1.32,3.39,16.97-14.18,27.49-32.1,37.84-50.15-9.58,25.85-24.11,48.14-46.12,65.12-2.13,1.65-3.58,4.18-5.8,6.85,1.28-.13,1.64-.11,1.97-.21,.84-.25,1.67-.52,2.48-.84,24.15-9.58,44.38-24.68,61.46-44.06,9.17-10.41,17.1-21.69,20.51-35.45,3.58-14.43,.93-28.86-.06-43.35-.8-11.71-1.34-23.62-.03-35.22,1.04-9.24,5.05-18.14,7.68-27Zm-231.75-69.86c-.43,.55-.76,.81-.87,1.14-3.77,11.4-11.18,20.17-20.62,27.13-9.47,6.98-19.38,13.39-29.21,19.87-10.73,7.08-18.74,16.37-22.55,28.69-7.16,23.16-8.41,46.73-3.51,70.52,1.01,4.92,2.65,9.71,3.99,14.55,2.05-4.23,3.11-8.35,4.64-12.28,1.58-4.08,3.71-7.95,5.44-11.99,1.62-3.79,3.36-7.59,4.47-11.55,2.19-7.74,.33-15.4-1.03-23.07-3.01-16.91,5.42-28.64,22.28-30.32,10.7-1.06,21.48-1.29,32.23-1.68,7.54-.28,7.54-.12,8.71-7.56,.03-.18,.32-.32,.47-.46,2.09,1.17,4.21,2.25,6.22,3.5,2.64,1.64,4.19,.96,5.54-1.81,2.39-4.91,5.1-9.66,7.68-14.47l.97,.38c-2.04,6.07-4.08,12.15-6.12,18.2,7.41,3.31,7.8,3.25,10.92-3.77,2.78-6.27,5.3-12.65,7.94-18.99l.69,.2c-2.18,8.36-4.36,16.73-6.55,25.12,3.31,1.56,5.32,.25,6.8-2.86,3.17-6.68,6.5-13.28,9.76-19.92l.89,.29c-2.29,7.72-4.57,15.44-7.11,24.01,10.73-12.34,24.62-16.97,39.62-20.2-1.32-2.36-2.28-4.24-3.39-6.02-5.1-8.2-11.78-14.99-19.42-20.78-12.63-9.58-26.28-17.01-42.38-18.77-6.19-.68-12.14-1.79-16.51-7.07Zm180.03,470.9c.23-2.25,.48-3.69,.51-5.13,.06-3.51-.09-7.03,.03-10.54,.52-14.91,1.56-29.82,1.54-44.72-.03-17.79-5.88-33.9-16.46-48.21-2.04-2.75-4.47-5.21-6.82-7.93-7.78,7.03-15.06,13.61-23.01,20.79,10.89,1.47,19.88,4.83,27.57,11.23-1.18-.34-2.28-.87-3.37-1.4-7.81-3.79-16.08-5.52-24.73-5.26-1.32,.04-3.2,.64-3.8,1.61-2.01,3.26-3.56,6.81-5.16,10.02,3.18,2.95,5.95,5.67,8.89,8.18,.84,.72,2.21,1.32,3.26,1.21,14.02-1.38,24.4,5.23,33.48,14.79-15.66-8.7-23.59-11.16-29.91-8.85,14.05,17.58,26.88,35.84,34.92,57.02-15.83-20.7-31.65-41.4-50.81-59.45-6.12,10.26-4.88,21.27,3.61,35.22-9.31-7.47-16.7-24.2-8.1-39.68-7.09-7.17-15.38-12.3-25.14-15.08-2.22-.63-3.52-.08-4.08,1.87-1.42,4.9-3.52,9.83-3.7,14.81-.22,6.14,1.23,12.35,1.82,17.42-6.68-10.53-7.75-22.75-2.62-36.26-11.74-2.48-23.23-4.9-35.23-7.44,1.19,17.07,7.57,30.83,17.84,42.83,13.8,16.13,31.75,25.82,51.72,32.02,19.3,6,39.44,9.58,57.78,20.93Zm-276.31-76.07c-9.72-.24-17.31,2.49-24.37,7.13,7.52-7.86,16.13-13.06,27.48-11.84,.8,.09,1.84,0,2.43-.46,5.07-3.81,10.06-7.71,15.27-11.75-5.69-2.92-11.58-3.3-17.41-2.71-5.86,.59-11.64,1.96-16.44,2.81,10.6-6.73,22.81-9.73,36.17-4.9,4.3,1.56,4.75,1.55,8.45-1.98-11.97-4.17-21.09-12.04-29.02-21.67-17.14,10.66-29.33,24.82-35.56,43.93-3.92,12.03-3.71,24.46-4.13,36.83-.25,7.35-.05,14.71-.05,22.19,.55-.24,1.53-.71,2.53-1.12,7.15-2.96,14.1-6.66,21.51-8.68,12.4-3.38,25.1-5.69,37.67-8.44,14.32-3.12,27.34-8.88,38.38-18.72,7.68-6.84,13.48-14.97,17.62-24.35-6.07-2.33-11.67-4.49-17.58-6.76,1.08,7.69,1.02,14.86-2.43,21.58,.83-7.45,.67-14.75-2.62-21.69-1.6-3.37-10.34-7.91-13.75-6.56-4.95,1.95-9.63,4.58-14.66,7.03,8.69,10.6,8.54,21.47,3.83,32.79,1.92-11.29-1.12-21.03-8.59-29.77-3.48,2.56-6.45,4.75-9.45,6.96,5.12,9.12,5.01,17.87-.21,27.4,1.57-9.93-.2-18.38-4.76-23.62-16.9,13.95-31.39,30.16-45.22,48.38,8.06-20.12,20.24-36.23,34.89-52.02ZM474.19,193.73c.78,1.43,1.12,2.21,1.59,2.9,10.64,15.87,15.43,33.29,14.07,52.39-1.43,20.07-9.26,36.81-25.8,48.81-21.82,15.85-47.14,21.91-73.22,25.67-3.14,.45-6.29,.79-10.06,1.27,.98,1.03,1.32,1.56,1.8,1.87,11.91,7.65,24.86,12.39,39.07,12.94,18.75,.73,34.98-6.03,48.64-18.43,15.13-13.73,29.93-27.86,44.32-42.37,5.84-5.89,10.73-12.91,15.16-19.98,4.78-7.62,3.37-14.75-3.09-21.07-2.5-2.44-5.27-4.64-8.12-6.68-5.71-4.09-10.58-8.91-13.43-15.4-5.13-11.66-14.82-17.53-26.37-21.09-1.24-.38-2.57-.49-4.54-.85Zm62.51,45.03c1.97-19.49,2.26-39.46-1.1-59.34-2.51-14.9-10.97-23.94-26.51-25.83-5.18-.63-10.34-1.92-15.32-3.52-9.57-3.07-19.18-5.67-29.27-6.22-14.77-.8-29,1.06-42.06,8.59-2.37,1.36-4.54,3.07-7.48,5.08,1.66,.45,2.13,.6,2.61,.7,18.9,4.06,35.16,12.86,48.52,26.93,.83,.88,2.33,1.3,3.59,1.56,5.37,1.1,10.75,2.16,16.16,3.01,1.39,.22,3.12,.03,4.33-.64,3.79-2.09,7.42-4.5,11.1-6.79l.39,.63c-3.42,2.82-6.84,5.64-10.08,8.3,4.56,6.88,8.32,1.32,12.3-.55,.29,.4,.59,.8,.88,1.2-2.09,1.33-4.19,2.66-6.63,4.21,7.13,5.48,10.52,12.18,14.36,18.67,2.25,3.81,5.41,7.19,8.63,10.29,4.91,4.73,10.22,9.05,15.56,13.72Zm-154.27,97.25l.39-1.23c-1.19-.76-2.39-1.52-3.58-2.28-18.54-11.89-33.25-27.3-43.12-47.12-11.05-22.17-12.49-44.65-1.41-67.19,2.7-5.5,5.03-10.89,5.28-17,.08-1.87-.11-3.94-.87-5.61-2.35-5.19-5.02-10.24-7.57-15.35l.47-.3c3.24,4.44,6.48,8.87,9.6,13.15,5.95-4.88-.07-8.72-1.1-12.99,.49-.39,.99-.78,1.48-1.17,1.02,2.13,2.04,4.27,3.18,6.65,6.29-8.06,11.47-14.71,16.86-21.61-1.26-.51-1.59-.77-1.92-.76-11.03,.21-22.1,0-33.09,.8-11.94,.87-18.9,8.49-18.06,18.76,.21,2.59,.8,5.22,1.64,7.69,3.69,10.93,2.5,21.44-2.29,31.74-2.69,5.79-5.5,11.53-7.91,17.44-5.37,13.19-3.85,25.67,6.3,35.79,8.92,8.9,15.35,19.34,22.15,29.72,9.35,14.29,22.18,24.46,39.05,28.7,4.72,1.18,9.66,1.47,14.5,2.17Zm60.44-146.66l.79-.31c2.1,4.89,4.1,9.84,6.36,14.65,1.03,2.2,2.17,4.68,3.99,6.12,8.7,6.93,13.97,15.97,17.07,26.43,3.09,10.43,2.66,21.09,1.75,31.74-.35,4.12-1.03,8.22-1.68,13.18,.97-1.06,1.35-1.38,1.6-1.78,8.87-14.24,11.62-29.85,9.41-46.22-2.32-17.15-10.12-31.88-22.05-44.35-13.38-13.99-29.55-22.46-49.03-24.34-7.96-.77-15.96-1.55-23.8-3.07-5.3-1.03-10.34-3.35-16.14-5.31-.82,10.99-7.3,18.78-14.15,26.37-5.33,5.9-8.85,12.74-10.36,20.54-.85,4.41-1.53,8.88-1.96,13.35-.89,9.3-.54,18.57,2.09,27.6,1.61,5.51,4.51,10.37,8.6,14.5,.13-.71-.01-1.28-.26-1.8-6.81-14.18-6.47-28.26,.24-42.42,4.24-8.95,11-14.45,20.64-16.42,10.89-2.23,21.86-2.85,32.93-1.65,1.14,.12,2.31,.02,3.46,.02,.13-.29,.26-.58,.39-.86-4.85-4.24-9.71-8.48-14.56-12.72,.56-.61,1.12-1.22,1.68-1.83,6.12,5.06,12.24,10.12,18.37,15.16,.85,.7,1.7,1.7,2.67,1.87,4.64,.8,9.32,1.35,14.4,2.05-1.76-5.15-3.47-10.14-5.17-15.12,3.51,4.76,6.51,9.79,9.01,15.05,1.44,3.03,3.59,4.04,7.01,4.47-1.17-5.27-2.23-10.09-3.3-14.91Zm-51.12,265.17c-3.94-1.59-7.33-2.84-10.62-4.31-13.34-5.96-23.62-15.85-33.59-26.17-.85-.88-2.53-1.54-3.71-1.4-6.82,.8-13.58,2.3-20.41,2.77-19.27,1.32-37.99-.63-55.07-10.75-.56-.33-1.25-.45-2.4-.85,.41,1.24,.56,1.95,.87,2.58,7.66,15.7,18.79,27.43,35.82,33.3,12.02,4.14,23.73,9.25,35.42,14.28,8.3,3.57,16.72,5.92,25.82,5.24,11.21-.84,20.08-6.1,27.86-14.68Zm201.97-245.5c.6-.27,1.01-.34,1.22-.58,10.17-11.47,17.78-24.49,19.87-39.73,1.55-11.35,1.16-22.97,1.59-34.47,.3-7.76,.37-15.53,.86-23.28,.27-4.38,1.16-8.72,1.81-13.34-3.46,1.61-6.45,3.14-9.53,4.42-12.93,5.36-26.75,7.13-40.34,9.83-14.07,2.8-27.15,7.84-38.11,17.47-.78,.69-1.44,1.5-2.37,2.48,6.35,2.27,12.18,4.36,17.76,6.36,2.14-3.94,4.1-7.55,6.06-11.16-.11,2.98-1.28,5.51-1.66,8.15-.23,1.59,.36,4.51,1.29,4.84,6.58,2.37,13.34,4.22,20.89,6.48-6.53-13.11-6.45-22.82-.21-28.19-2.68,8.71-1.39,16.58,4.39,24.34,12.32-13.2,24.41-26.16,36.5-39.12l1.15,.91c-10.09,14.46-20.17,28.93-30.32,43.47,7.81,.33,15.43-1.2,22.74-4.79-6.77,10.38-10.65,21.58-12.82,34.13,2.45-1,4.36-1.78,6.27-2.56-1.2,1.28-2.63,2.08-3.86,3.13-1.17,.99-3.02,2.2-3.05,3.36-.25,9.21-.14,18.43-.14,27.86Zm25.94,147.64c-4.72,1.3-9.77,1.99-14.16,4.06-10.06,4.74-20.4,8.14-31.42,9.67-1.41,.2-3.28,1.9-3.74,3.3-3.73,11.3-9.17,21.67-16.19,31.22-3.54,4.82-7.39,9.41-11.18,14.2,.56,.3,1.06,.71,1.64,.87,10.97,3.13,21.49,2.01,29.91-5.88,8.38-7.86,16.01-16.56,23.5-25.3,9.15-10.68,19.27-19.7,33.22-23.49,1.5-.41,2.88-1.26,3.45-1.51-2.64-5.25-6.13-9.93-7.34-15.15-1.47-6.35-1.28-13.15-1.34-19.76-.1-10.13,.27-20.26,.27-30.39,0-2.01-.76-4.01-1.17-6.02l-1.32,.11c-2.69,11.93-6.04,23.75-7.88,35.81-1.47,9.66-2.29,19.76,3.76,28.26Zm-224.44-40.27l.15-1.16c-11.51-5.4-22.56-11.47-31.22-21.01,1.36,.4,2.42,1.24,3.6,1.88,9.77,5.33,19.48,10.78,29.36,15.89,8.61,4.46,16.62,.15,25.45-2.82-1.91-2.56-4.45-4.22-6.69-6.21-10.45-9.31-23.02-14.42-36.1-18.63-15.88-5.11-31.74-10.28-44.18-22.24-.09-.09-.4,.04-.84,.1,5.31,21.94,17.34,39.53,34.17,54.09,.86,.74,2.29,1.22,3.44,1.18,7.62-.26,15.24-.69,22.86-1.07Zm52.03-103.58c-.03,.73-.13,1-.04,1.17,.41,.77,.89,1.51,1.32,2.27,4.58,8.17,5.93,16.93,4.56,26.13-2.15,14.48-10.61,25.01-21.93,33.28-6.81,4.98-14.4,8.87-21.74,13.31,3.16,2.53,6.57,5.03,9.69,7.85,1.7,1.54,3,1.57,4.94,.56,13.36-6.97,23.95-16.79,31.35-29.96,1.44-2.56,2.84-5.15,4.26-7.73-4.96,19.18-17.57,32.1-34.21,41.63,4.16,6.4,4.28,6.64,10.62,3.56,7.65-3.72,15.12-7.84,22.57-11.96,1.29-.72,2.81-2.18,3.03-3.5,2.42-14.19,5.35-28.37,4.15-42.89-.65-7.78-2.53-15.29-6.6-22.09-2.91-4.86-6.66-8.85-11.97-11.63Zm-1.43,131.22c1.24,.32,2.03,.63,2.83,.72,12.3,1.41,24.54,.6,36.7-1.32,2.2-.35,4.65-1.82,6.13-3.52,12.77-14.76,19.37-32.58,24.68-50.99,.11-.38-.07-.85-.15-1.68-1.44,1.27-2.6,2.2-3.66,3.24-8.14,7.99-16.35,15.91-24.37,24.01-11.83,11.95-24.58,22.52-40.62,28.42-.42,.15-.75,.54-1.53,1.12Zm-68.64-137.04c-8.3,4.69-12.24,19.55-8.67,33.54,1.89,7.4,14.18,17.07,21.98,17.2-5.06-8.06-8.36-16.41-7.12-26.26,1.49-11.77,10.89-20.26,22.22-18.23,4.7,.84,8.96,4.14,13.44,6.27,3.46,1.64,6.96,3.21,10.44,4.81-3.47-9.33-13.76-17.07-24.79-19.33-13.43-2.75-26.51,3.69-28.8,18.53-.07,.47-.44,.89-.68,1.33l-1.19-.32c1.05-5.83,2.1-11.67,3.16-17.54Zm48.79,22.32c1.13,2.29,1.82,3.61,2.44,4.96,6.16,13.4,1.64,24.86-12.19,29.95-13.53,4.99-26.32,2.74-38.29-4.98-1.2-.77-2.35-1.62-3.53-2.44,.04,1.51,.43,2.7,1.16,3.62,4.19,5.27,8.42,10.52,12.71,15.71,4.22,5.09,10.91,5.21,16.33,7.89,.45,.22,1.22-.13,1.81-.3,19.03-5.23,31.6-24.19,29.09-43.73-.69-5.33-3.79-8.44-9.54-10.69Zm-59.77,149.69c14.85,9.63,68.17,13.17,80.62,5.85-.33-.21-.62-.47-.95-.59-12.88-4.48-25.74-8.99-38.66-13.36-1.59-.54-3.53-.71-5.15-.34-11.68,2.64-23.32,5.46-35.86,8.44Zm-45.21,6.24c-2.38-6.34-4.31-11.61-6.37-16.83-.34-.87-1.18-1.62-1.93-2.26-4.39-3.73-8.67-7.61-13.29-11.04-4.3-3.19-8.98-5.86-13.49-8.76l-.66,.93c7.99,15.84,17.1,30.64,35.74,37.95Zm84.28-125.83c7.47,1.29,17.98-3.66,20.96-10.23,.97-2.14,1.43-4.94,1-7.22-1.85-9.85-12.62-19.98-22.61-21.76-6.03-1.08-10.94,.79-13.41,5.1-2.36,4.14-1.28,12.59,2.64,17.06,.35-3.42,.75-6.31,.93-9.21,.55-9.21,11.88-12.98,19.1-6.9,7.26,6.12,7.77,17.35,.63,25.13-2.68,2.92-6.01,5.25-9.23,8.02Zm-26.94,16.42c-7.21-8.76-12.19-17.64-15.36-27.49-3.2-9.95-3.19-20.16-2.16-30.81-15.97,14.93-5.48,51,17.53,58.29Zm64.7-25.94c5.29-11.58,5.32-22.91-1.36-33.75-2.89-4.69-7.07-8.01-12.96-8.79,10.33,12.44,16.89,25.9,14.32,42.54Zm-98.57,9.5c-2.61-10.12-5.2-20.14-7.54-29.21-4.93,14.68-3.21,22.21,7.54,29.21Zm-10.89,62.87c-6.62-8.97-13.94-18.87-20.92-28.31,1.39,13.7,9.49,23.01,20.92,28.31Zm78.96-79.54c2.35-5.57,.95-10.87-3.22-13.33-2.3-1.36-4.69-2.3-6.86,1.02,7.32,.75,8.85,6.09,10.08,12.31Zm-5.21,7.44c-.89-3.14,1.6-7.27-2.54-7.73-3.78-.42-4.13,3.73-5.35,7.28,2.68,.15,4.93,.28,7.89,.45Z"/></svg>